<mxfile host="app.diagrams.net" agent="Mozilla/5.0 (Windows NT 10.0; Win64; x64) AppleWebKit/537.36 (KHTML, like Gecko) Chrome/131.0.0.0 Safari/537.36" version="25.0.3" pages="2">
  <diagram id="Yz2PXxQQh5y1KGRfbQ9T" name="High-level Flow">
    <mxGraphModel dx="1035" dy="541" grid="1" gridSize="10" guides="1" tooltips="1" connect="1" arrows="1" fold="1" page="1" pageScale="1" pageWidth="850" pageHeight="1100" math="0" shadow="0">
      <root>
        <mxCell id="0" />
        <mxCell id="1" parent="0" />
        <mxCell id="WJSsdUHRGtexvnZjyKZ5-14" style="edgeStyle=orthogonalEdgeStyle;rounded=0;orthogonalLoop=1;jettySize=auto;html=1;exitX=1;exitY=0.545;exitDx=0;exitDy=0;entryX=0.5;entryY=0;entryDx=0;entryDy=0;exitPerimeter=0;sketch=1;curveFitting=1;jiggle=2;shadow=1;flowAnimation=1;curved=1;strokeColor=#bd7000;" edge="1" parent="1" source="WJSsdUHRGtexvnZjyKZ5-9" target="Ney8tAnjvXWJZyPuXJS9-17">
          <mxGeometry relative="1" as="geometry" />
        </mxCell>
        <mxCell id="WJSsdUHRGtexvnZjyKZ5-2" style="edgeStyle=orthogonalEdgeStyle;rounded=0;orthogonalLoop=1;jettySize=auto;html=1;exitX=1;exitY=0.5;exitDx=0;exitDy=0;entryX=0;entryY=0.5;entryDx=0;entryDy=0;sketch=1;curveFitting=1;jiggle=2;shadow=1;flowAnimation=1;strokeColor=#bd7000;" edge="1" parent="1" source="Ney8tAnjvXWJZyPuXJS9-17" target="Ney8tAnjvXWJZyPuXJS9-19">
          <mxGeometry relative="1" as="geometry" />
        </mxCell>
        <mxCell id="Ney8tAnjvXWJZyPuXJS9-17" value="Source System" style="ellipse;whiteSpace=wrap;html=1;sketch=1;curveFitting=1;jiggle=2;shadow=1;fillColor=#f0a30a;strokeColor=#BD7000;fontColor=#000000;" vertex="1" parent="1">
          <mxGeometry x="202" y="170" width="120" height="80" as="geometry" />
        </mxCell>
        <mxCell id="Ney8tAnjvXWJZyPuXJS9-24" style="edgeStyle=orthogonalEdgeStyle;rounded=0;orthogonalLoop=1;jettySize=auto;html=1;exitX=1;exitY=0.5;exitDx=0;exitDy=0;sketch=1;curveFitting=1;jiggle=2;shadow=1;fillColor=#f0a30a;strokeColor=#BD7000;flowAnimation=1;" edge="1" parent="1" source="Ney8tAnjvXWJZyPuXJS9-19" target="Ney8tAnjvXWJZyPuXJS9-23">
          <mxGeometry relative="1" as="geometry" />
        </mxCell>
        <mxCell id="Ney8tAnjvXWJZyPuXJS9-19" value="Pre-Validation Processor" style="rounded=1;whiteSpace=wrap;html=1;sketch=1;curveFitting=1;jiggle=2;shadow=1;fillColor=#e1d5e7;strokeColor=#9673a6;" vertex="1" parent="1">
          <mxGeometry x="407" y="180" width="120" height="60" as="geometry" />
        </mxCell>
        <mxCell id="Ney8tAnjvXWJZyPuXJS9-26" style="edgeStyle=orthogonalEdgeStyle;rounded=0;orthogonalLoop=1;jettySize=auto;html=1;exitX=0.5;exitY=1;exitDx=0;exitDy=0;entryX=0.5;entryY=0;entryDx=0;entryDy=0;sketch=1;curveFitting=1;jiggle=2;shadow=1;fillColor=#f0a30a;strokeColor=#BD7000;flowAnimation=1;" edge="1" parent="1" source="Ney8tAnjvXWJZyPuXJS9-23" target="Ney8tAnjvXWJZyPuXJS9-25">
          <mxGeometry relative="1" as="geometry" />
        </mxCell>
        <mxCell id="Ney8tAnjvXWJZyPuXJS9-23" value="Validator app" style="rounded=1;whiteSpace=wrap;html=1;sketch=1;curveFitting=1;jiggle=2;shadow=1;fillColor=#fa6800;strokeColor=#C73500;fontColor=#000000;" vertex="1" parent="1">
          <mxGeometry x="624" y="180" width="120" height="60" as="geometry" />
        </mxCell>
        <mxCell id="Ney8tAnjvXWJZyPuXJS9-29" style="edgeStyle=orthogonalEdgeStyle;rounded=0;orthogonalLoop=1;jettySize=auto;html=1;exitX=0.5;exitY=1;exitDx=0;exitDy=0;entryX=0.5;entryY=0;entryDx=0;entryDy=0;sketch=1;curveFitting=1;jiggle=2;shadow=1;fillColor=#f0a30a;strokeColor=#BD7000;flowAnimation=1;" edge="1" parent="1" source="Ney8tAnjvXWJZyPuXJS9-25" target="Ney8tAnjvXWJZyPuXJS9-28">
          <mxGeometry relative="1" as="geometry" />
        </mxCell>
        <mxCell id="Ney8tAnjvXWJZyPuXJS9-25" value="SyncApp" style="rounded=1;whiteSpace=wrap;html=1;sketch=1;curveFitting=1;jiggle=2;shadow=1;fillColor=#b0e3e6;strokeColor=#0e8088;" vertex="1" parent="1">
          <mxGeometry x="624" y="316" width="120" height="60" as="geometry" />
        </mxCell>
        <mxCell id="Ney8tAnjvXWJZyPuXJS9-27" value="Rules" style="icon;html=1;image=img/clipart/Gear_128x128.png;rotation=-45;sketch=1;curveFitting=1;jiggle=2;shadow=1;fillColor=#dae8fc;gradientColor=#7ea6e0;strokeColor=#6c8ebf;" vertex="1" parent="1">
          <mxGeometry x="725.71" y="164.26" width="38" height="36" as="geometry" />
        </mxCell>
        <mxCell id="Ney8tAnjvXWJZyPuXJS9-34" style="edgeStyle=orthogonalEdgeStyle;rounded=0;orthogonalLoop=1;jettySize=auto;html=1;exitX=0.5;exitY=1;exitDx=0;exitDy=0;sketch=1;curveFitting=1;jiggle=2;shadow=1;fillColor=#f0a30a;strokeColor=#BD7000;flowAnimation=1;curved=1;" edge="1" parent="1" source="Ney8tAnjvXWJZyPuXJS9-28" target="Ney8tAnjvXWJZyPuXJS9-33">
          <mxGeometry relative="1" as="geometry" />
        </mxCell>
        <mxCell id="Ney8tAnjvXWJZyPuXJS9-28" value="Post-Processor" style="rounded=1;whiteSpace=wrap;html=1;sketch=1;curveFitting=1;jiggle=2;shadow=1;fillColor=#f0a30a;strokeColor=#BD7000;fontColor=#000000;" vertex="1" parent="1">
          <mxGeometry x="624" y="456" width="120" height="60" as="geometry" />
        </mxCell>
        <mxCell id="Ney8tAnjvXWJZyPuXJS9-31" value="" style="verticalLabelPosition=bottom;html=1;verticalAlign=top;align=center;strokeColor=#006EAF;fillColor=#1ba1e2;shape=mxgraph.azure.azure_alert;sketch=1;curveFitting=1;jiggle=2;shadow=1;fontColor=#ffffff;" vertex="1" parent="1">
          <mxGeometry x="728.02" y="440" width="30" height="22.5" as="geometry" />
        </mxCell>
        <mxCell id="Ney8tAnjvXWJZyPuXJS9-32" value="" style="image;aspect=fixed;perimeter=ellipsePerimeter;html=1;align=center;shadow=1;dashed=0;labelBackgroundColor=default;fontSize=12;spacingTop=3;image=img/lib/ibm/management/push_notifications.svg;sketch=1;curveFitting=1;jiggle=2;fillColor=#f0a30a;strokeColor=#BD7000;fontColor=#000000;" vertex="1" parent="1">
          <mxGeometry x="724" y="496" width="30" height="30" as="geometry" />
        </mxCell>
        <mxCell id="Ney8tAnjvXWJZyPuXJS9-35" value="Command" style="shape=mxgraph.signs.tech.command;html=1;pointerEvents=1;fillColor=#1ba1e2;strokeColor=#006EAF;verticalLabelPosition=bottom;verticalAlign=top;align=center;rotation=-30;sketch=1;curveFitting=1;jiggle=2;shadow=1;fontColor=#0F0F0F;" vertex="1" parent="1">
          <mxGeometry x="724" y="294.4" width="34.5" height="30" as="geometry" />
        </mxCell>
        <mxCell id="Ney8tAnjvXWJZyPuXJS9-33" value="Collibra Data Intelligence Platform&lt;div&gt;Layer&lt;/div&gt;" style="rounded=1;whiteSpace=wrap;html=1;sketch=1;curveFitting=1;jiggle=2;shadow=1;fillColor=#f0a30a;strokeColor=#BD7000;fontColor=#000000;glass=0;" vertex="1" parent="1">
          <mxGeometry x="407" y="590" width="120" height="60" as="geometry" />
        </mxCell>
        <mxCell id="WJSsdUHRGtexvnZjyKZ5-3" style="edgeStyle=orthogonalEdgeStyle;rounded=0;orthogonalLoop=1;jettySize=auto;html=1;entryX=0.5;entryY=1;entryDx=0;entryDy=0;sketch=1;curveFitting=1;jiggle=2;shadow=1;flowAnimation=1;strokeColor=#bd7000;curved=1;" edge="1" parent="1" source="WJSsdUHRGtexvnZjyKZ5-1" target="Ney8tAnjvXWJZyPuXJS9-17">
          <mxGeometry relative="1" as="geometry" />
        </mxCell>
        <mxCell id="WJSsdUHRGtexvnZjyKZ5-4" value="" style="sketch=0;outlineConnect=0;fontColor=#232F3E;gradientColor=none;strokeColor=#232F3E;fillColor=#ffffff;dashed=0;verticalLabelPosition=bottom;verticalAlign=top;align=center;html=1;fontSize=12;fontStyle=0;aspect=fixed;shape=mxgraph.aws4.resourceIcon;resIcon=mxgraph.aws4.topic_2;" vertex="1" parent="1">
          <mxGeometry x="112" y="270" width="40" height="40" as="geometry" />
        </mxCell>
        <mxCell id="WJSsdUHRGtexvnZjyKZ5-1" value="EventHub&lt;div&gt;&lt;br&gt;&lt;/div&gt;" style="image;sketch=0;aspect=fixed;html=1;points=[];align=center;fontSize=12;image=img/lib/mscae/Event_Grid_Topics.svg;" vertex="1" parent="1">
          <mxGeometry x="82" y="294.4" width="50" height="50" as="geometry" />
        </mxCell>
        <mxCell id="WJSsdUHRGtexvnZjyKZ5-5" value="" style="outlineConnect=0;dashed=0;verticalLabelPosition=bottom;verticalAlign=top;align=center;html=1;shape=mxgraph.aws3.topic;fillColor=#5294CF;gradientColor=none;" vertex="1" parent="1">
          <mxGeometry x="502" y="160" width="29.5" height="36" as="geometry" />
        </mxCell>
        <mxCell id="WJSsdUHRGtexvnZjyKZ5-9" value="SpecsHub" style="image;aspect=fixed;html=1;points=[];align=center;fontSize=12;image=img/lib/azure2/other/Template_Specs.svg;" vertex="1" parent="1">
          <mxGeometry x="82" y="30" width="60" height="71.58" as="geometry" />
        </mxCell>
        <mxCell id="WJSsdUHRGtexvnZjyKZ5-11" style="edgeStyle=orthogonalEdgeStyle;rounded=0;orthogonalLoop=1;jettySize=auto;html=1;exitX=1;exitY=0.5;exitDx=0;exitDy=0;entryX=0;entryY=0.5;entryDx=0;entryDy=0;curved=1;sketch=1;curveFitting=1;jiggle=2;shadow=1;flowAnimation=1;strokeColor=#bd7000;" edge="1" parent="1" source="WJSsdUHRGtexvnZjyKZ5-10" target="Ney8tAnjvXWJZyPuXJS9-17">
          <mxGeometry relative="1" as="geometry" />
        </mxCell>
        <mxCell id="WJSsdUHRGtexvnZjyKZ5-10" value="DBHub" style="image;html=1;image=img/lib/clip_art/computers/Database_128x128.png" vertex="1" parent="1">
          <mxGeometry x="22" y="187.5" width="40" height="45" as="geometry" />
        </mxCell>
      </root>
    </mxGraphModel>
  </diagram>
  <diagram id="j6ENngaQJtz8nWlPsK1Q" name="APIs-Importer-TechDesign">
    <mxGraphModel dx="1730" dy="426" grid="1" gridSize="10" guides="1" tooltips="1" connect="1" arrows="1" fold="1" page="1" pageScale="1" pageWidth="850" pageHeight="1100" math="0" shadow="0">
      <root>
        <mxCell id="0" />
        <mxCell id="1" parent="0" />
        <mxCell id="QFZf7pw_Yvivp7_EfdEL-6" style="edgeStyle=elbowEdgeStyle;rounded=0;orthogonalLoop=1;jettySize=auto;html=1;entryX=-0.016;entryY=0.49;entryDx=0;entryDy=0;entryPerimeter=0;elbow=vertical;strokeColor=#808080;" parent="1" source="QFZf7pw_Yvivp7_EfdEL-17" target="QFZf7pw_Yvivp7_EfdEL-20" edge="1">
          <mxGeometry relative="1" as="geometry" />
        </mxCell>
        <mxCell id="QFZf7pw_Yvivp7_EfdEL-15" value="Transformation Processor" style="rounded=0;whiteSpace=wrap;html=1;fillColor=#f5f5f5;strokeColor=none;fontColor=#333333;verticalAlign=top;" parent="1" vertex="1">
          <mxGeometry x="230" y="324" width="230" height="151" as="geometry" />
        </mxCell>
        <mxCell id="QFZf7pw_Yvivp7_EfdEL-17" value="Transformers" style="shape=image;verticalLabelPosition=bottom;labelBackgroundColor=none;verticalAlign=top;aspect=fixed;imageAspect=0;image=data:image/svg+xml,PHN2ZyB4bWxuczpjYz0iaHR0cDovL2NyZWF0aXZlY29tbW9ucy5vcmcvbnMjIiB4bWxuczpkYz0iaHR0cDovL3B1cmwub3JnL2RjL2VsZW1lbnRzLzEuMS8iIHhtbG5zOmlua3NjYXBlPSJodHRwOi8vd3d3Lmlua3NjYXBlLm9yZy9uYW1lc3BhY2VzL2lua3NjYXBlIiB4bWxuczpyZGY9Imh0dHA6Ly93d3cudzMub3JnLzE5OTkvMDIvMjItcmRmLXN5bnRheC1ucyMiIHhtbG5zOnNvZGlwb2RpPSJodHRwOi8vc29kaXBvZGkuc291cmNlZm9yZ2UubmV0L0RURC9zb2RpcG9kaS0wLmR0ZCIgeG1sbnM6c3ZnPSJodHRwOi8vd3d3LnczLm9yZy8yMDAwL3N2ZyIgeG1sbnM9Imh0dHA6Ly93d3cudzMub3JnLzIwMDAvc3ZnIiB4bWxuczp4bGluaz0iaHR0cDovL3d3dy53My5vcmcvMTk5OS94bGluayIgdmVyc2lvbj0iMS4xIiBpZD0ic3ZnNTQ2MTgiIGlua3NjYXBlOnZlcnNpb249IjAuOTIuMyAoMjQwNTU0NiwgMjAxOC0wMy0xMSkiIHNvZGlwb2RpOmRvY25hbWU9ImVuY29kaW5nLnN2ZyIgeD0iMHB4IiB5PSIwcHgiIHZpZXdCb3g9IjAgMCAyMi44MiAyMS41OCIgc3R5bGU9ImVuYWJsZS1iYWNrZ3JvdW5kOm5ldyAwIDAgMjIuODIgMjEuNTg7IiB4bWw6c3BhY2U9InByZXNlcnZlIj4mI3hhOzxzb2RpcG9kaTpuYW1lZHZpZXcgYm9yZGVyY29sb3I9IiM2NjY2NjYiIGJvcmRlcm9wYWNpdHk9IjEiIGZpdC1tYXJnaW4tYm90dG9tPSIwIiBmaXQtbWFyZ2luLWxlZnQ9IjAiIGZpdC1tYXJnaW4tcmlnaHQ9IjAiIGZpdC1tYXJnaW4tdG9wPSIwIiBncmlkdG9sZXJhbmNlPSIxMCIgZ3VpZGV0b2xlcmFuY2U9IjEwIiBpZD0ibmFtZWR2aWV3NTQ2MjAiIGlua3NjYXBlOmN1cnJlbnQtbGF5ZXI9InN2ZzU0NjE4IiBpbmtzY2FwZTpjeD0iMTEuMjk4ODY0IiBpbmtzY2FwZTpjeT0iLTEuMDQxNTI5MSIgaW5rc2NhcGU6cGFnZW9wYWNpdHk9IjAiIGlua3NjYXBlOnBhZ2VzaGFkb3c9IjIiIGlua3NjYXBlOndpbmRvdy1oZWlnaHQ9IjEwMTciIGlua3NjYXBlOndpbmRvdy1tYXhpbWl6ZWQ9IjEiIGlua3NjYXBlOndpbmRvdy13aWR0aD0iMTkyMCIgaW5rc2NhcGU6d2luZG93LXg9Ii04IiBpbmtzY2FwZTp3aW5kb3cteT0iLTgiIGlua3NjYXBlOnpvb209IjEwLjY1MzgzNiIgb2JqZWN0dG9sZXJhbmNlPSIxMCIgcGFnZWNvbG9yPSIjZmZmZmZmIiBzaG93Z3JpZD0iZmFsc2UiPiYjeGE7CTwvc29kaXBvZGk6bmFtZWR2aWV3PiYjeGE7PGcgaWQ9Imc1NDYxNiIgdHJhbnNmb3JtPSJ0cmFuc2xhdGUoLTIuNzQwNjUzNWUtNSwwLjAwMzE0NTc0KSI+JiN4YTsJPHRpdGxlIGlkPSJ0aXRsZTU0NjA5Ij5QYWdlLTE8L3RpdGxlPiYjeGE7CTxnIGlkPSJzaGFwZTMwODQtMSI+JiN4YTsJCTx0aXRsZSBpZD0idGl0bGU1NDYxMSI+RW5jb2Rpbmc8L3RpdGxlPiYjeGE7CQk8cGF0aCBpZD0icGF0aDU0NjEzIiBpbmtzY2FwZTpjb25uZWN0b3ItY3VydmF0dXJlPSIwIiBzdHlsZT0iZmlsbDojM0Y1NzY1OyIgZD0iTTIyLjgyLDEzLjMxYzAtMC44NSwwLTQuNzktMC4wOC04LjY3ICAgIGMwLTIuNDQtMi4zNC00Ljc0LTUuODctNC42NEMxNi4zMiwwLDgsMC4wNyw4LDAuMDdDNi45OSwwLjE1LDYuODQsMC45NCw2Ljg0LDEuMzNzMCwwLjA3LDAsMC42M2MwLDAuNDgsMC41MywwLjg3LDEuMDksMC45NCAgICBjMCwwLDAsMCwwLDAuMWMwLDAuMDcsMCwwLjA3LDAuMDcsMC4xNEM3LjU0LDMuNyw3LjU0LDMuNyw3LjU0LDMuN2MwLDAuNjMsMCwwLjYzLDAsMC42M2MtNC40LDAtNC40LDAtNC40LDAgICAgYzAsMi44MywwLDIuODMsMCwyLjgzQzAsNy4xNiwwLDcuMTYsMCw3LjE2YzAsMy44LDAsMy44LDAsMy44YzE2LjI0LDAsMTYuMjQsMCwxNi4yNCwwYzAtMy44LDAtMy44LDAtMy44Yy0yLjIsMC0yLjIsMC0yLjIsMCAgICBjMC0yLjgzLDAtMi44MywwLTIuODNjLTMuOTgsMC0zLjk4LDAtMy45OCwwYzAtMC41NiwwLTAuNTYsMC0wLjU2QzkuNTcsMy4xNCw5LjU3LDMuMTQsOS41NywzLjE0YzAtMC4wNywwLjA3LTAuMDcsMC4wNy0wLjE0ICAgIGMwLTAuMSwwLTAuMS0wLjA3LTAuMTdjMi4xMywwLDUuNTktMC4wNyw2LjIxLTAuMDdjMy41MSwwLDMuODIsMS40LDMuODIsMi4zN2MwLDAuODUsMC4xLDYuMjIsMC4xLDguMzQgICAgYzAuMDcsMi4wNi0zLjIyLDIuMDYtMy44NCwyLjA2Yy0wLjM5LDAtNC4zMywwLTYuMjIsMC4wN2wtMC4wNy0wLjA3Yy0wLjE0LDAtMC4xNCwwLTAuMTQsMGMwLTAuMSwwLTAuMSwwLTAuMSAgICBjMC4xNC0wLjA3LDAuMTQtMC4wNywwLjE0LTAuMDdoMC4wN2MwLTAuMDctMC4wNy0wLjA3LTAuMDctMC4wN2MtMC4xNCwwLTAuMTQsMC0wLjE0LDBjMC0wLjE3LDAtMC4xNywwLTAuMTcgICAgYzAuMTQsMCwwLjE0LDAsMC4xNCwwczAuMDcsMCwwLjA3LTAuMDdIOS41N2MtMC4xNCwwLTAuMTQsMC0wLjE0LDBjMC0wLjE1LDAtMC4xNSwwLTAuMTVjMC4xNCwwLDAuMTQsMCwwLjE0LDBzMC4wNywwLDAuMDctMC4wOSAgICBIOS41N2MtMC4xNCwwLTAuMTQsMC0wLjE0LDBjMC0wLjE1LDAtMC4xNSwwLTAuMTVjMC4xNCwwLDAuMTQsMCwwLjE0LDBsMC4wNy0wLjFsLTAuMDctMC4wN2MtMC4xNCwwLTAuMTQsMC0wLjE0LDAgICAgYzAtMC4xNCwwLTAuMTQsMC0wLjE0YzAuMTQsMCwwLjE0LDAsMC4xNCwwaDAuMDdjMC0wLjEtMC4wNy0wLjEtMC4wNy0wLjFjLTAuMTQsMC0wLjE0LDAtMC4xNCwwQzkuMzUsMTQuMSw5LjM1LDE0LjEsOS4zNSwxNC4xICAgIGMwLjIyLDAsMC4yMiwwLDAuMjIsMHMwLjA3LDAsMC4wNy0wLjA3Yy0wLjA3LDAtMC4wNywwLTAuMDcsMGMtMC4yMiwwLTAuMjIsMC0wLjIyLDBjMC0wLjE3LDAtMC4xNywwLTAuMTdjMC4yMiwwLDAuMjIsMCwwLjIyLDAgICAgdi0wLjA3di0wLjA3Yy0wLjIyLDAtMC4yMiwwLTAuMjIsMGMwLTAuMTcsMC0wLjE3LDAtMC4xN2MwLjIyLDAsMC4yMiwwLDAuMjIsMGwwLDBjMC0wLjA4LDAtMC4wOCwwLTAuMDhjLTAuMjIsMC0wLjIyLDAtMC4yMiwwICAgIGMwLTAuMTYsMC0wLjE2LDAtMC4xNmMwLjIyLDAsMC4yMiwwLDAuMjIsMHMwLDAsMC0wLjA4bDAsMGMtMC4yMiwwLTAuMjIsMC0wLjIyLDBjMC0wLjE0LDAtMC4xNCwwLTAuMTRjMC4yMiwwLDAuMjIsMCwwLjIyLDAgICAgdi0wLjF2LTAuMDdjLTAuMjIsMC0wLjIyLDAtMC4yMiwwYzAtMC4xNSwwLTAuMTUsMC0wLjE1YzAuMjIsMCwwLjIyLDAsMC4yMiwwbDAsMGMwLTAuMDksMC0wLjA5LDAtMC4wOWMtMC4yMiwwLTAuMjIsMC0wLjIyLDAgICAgYzAtMC4wOCwwLTAuMDgsMC0wLjA4YzAuMjIsMCwwLjIyLDAsMC4yMiwwYzAuMDcsMCwwLjE3LTAuMDcsMC4xNy0wLjE0YzAtMC4xLDAtMC4xLTAuMS0wLjE3YzAuNDktMC41NiwwLjQ5LTAuNTYsMC40OS0wLjU2ICAgIGMwLTAuNzcsMC0wLjc3LDAtMC43N2MtMi41MiwwLTIuNTIsMC0yLjUyLDBjMCwwLjcsMCwwLjcsMCwwLjdjMC40OSwwLjcsMC40OSwwLjcsMC40OSwwLjdjLTAuMSwwLTAuMSwwLjEtMC4xLDAuMSAgICBjMCwwLjE0LDAuMSwwLjE0LDAuMTcsMC4xNHMwLjA3LDAsMC4wNywwYzAsMC4wOCwwLDAuMDgsMCwwLjA4Yy0wLjE0LDAtMC4xNCwwLTAuMTQsMHYwLjA5djAuMDhjMC4xNCwwLDAuMTQsMCwwLjE0LDAgICAgYzAsMC4xNCwwLDAuMTQsMCwwLjE0Yy0wLjE0LDAtMC4xNCwwLTAuMTQsMGwwLDBjMCwwLjEsMCwwLjEsMCwwLjFjMC4xNCwwLDAuMTQsMCwwLjE0LDBjMCwwLjE0LDAsMC4xNCwwLDAuMTQgICAgYy0wLjE0LDAtMC4xNCwwLTAuMTQsMHMwLDAsMCwwLjA4bDAsMGMwLjE0LDAsMC4xNCwwLDAuMTQsMGMwLDAuMTYsMCwwLjE2LDAsMC4xNmMtMC4xNCwwLTAuMTQsMC0wLjE0LDB2MC4wOHYwLjA3ICAgIGMwLjE0LDAsMC4xNCwwLDAuMTQsMGMwLDAuMTcsMCwwLjE3LDAsMC4xN2MtMC4xNCwwLTAuMTQsMC0wLjE0LDBsMCwwYzAsMC4wNywwLDAuMDcsMC4wNywwLjA3czAuMDcsMCwwLjA3LDAgICAgYzAsMC4xNywwLDAuMTcsMCwwLjE3Yy0wLjA3LDAtMC4wNywwLTAuMDcsMGMtMC4wNywwLTAuMDcsMC0wLjA3LDAuMDdjMCwwLDAsMCwwLjA3LDBzMC4wNywwLDAuMDcsMGMwLDAuMTUsMCwwLjE1LDAsMC4xNSAgICBjLTAuMDcsMC0wLjA3LDAtMC4wNywwYy0wLjA3LDAtMC4wNywwLTAuMDcsMC4xYzAsMCwwLDAsMC4wNywwczAuMDcsMCwwLjA3LDBjMCwwLjE0LDAsMC4xNCwwLDAuMTRjLTAuMDcsMC0wLjA3LDAtMC4wNywwICAgIGMtMC4wNywwLTAuMDcsMC4wNy0wLjA3LDAuMDdjMCwwLjEsMCwwLjEsMC4wNywwLjFzMC4wNywwLDAuMDcsMGMwLDAuMTUsMCwwLjE1LDAsMC4xNWMtMC4wNywwLTAuMDcsMC0wLjA3LDAgICAgYy0wLjA3LDAtMC4wNywwLTAuMDcsMGMwLDAuMDksMCwwLjA5LDAuMDcsMC4wOXMwLjA3LDAsMC4wNywwYzAsMC4xNSwwLDAuMTUsMCwwLjE1Yy0wLjA3LDAtMC4wNywwLTAuMDcsMCAgICBjLTAuMDcsMC0wLjA3LDAtMC4wNywwLjA3YzAsMCwwLDAsMC4wNywwczAuMDcsMCwwLjA3LDBjMCwwLjE3LDAsMC4xNywwLDAuMTdjLTAuMDcsMC0wLjA3LDAtMC4wNywwYy0wLjA3LDAtMC4wNywwLjA3LTAuMDcsMC4wNyAgICBzMCwwLjA3LDAuMDcsMC4wN3MwLjA3LDAsMC4wNywwYzAsMC4xNywwLDAuMTcsMCwwLjE3Yy0wLjA3LDAtMC4wNywwLTAuMDcsMGMtMC4wNywwLTAuMDcsMC0wLjA3LDB2MC4wOCAgICBjLTAuNDEsMC4wNy0wLjczLDAuMzEtMC43MywwLjc5YzAsMC4zMiwwLDAuMzksMC4xLDAuODhjMCwwLjM4LDAuMzEsMC43NywwLjcsMC44NGwwLDBjMCwwLjEsMCwwLjEsMCwwLjFjMC4xNCwwLDAuMTQsMCwwLjE0LDAgICAgYzAsMC4xNCwwLDAuMTQsMCwwLjE0Yy0wLjE0LDAtMC4xNCwwLTAuMTQsMHMwLDAsMCwwLjA4bDAsMGMwLjE0LDAsMC4xNCwwLDAuMTQsMGMwLDAuMTcsMCwwLjE3LDAsMC4xN2MtMC4xNCwwLTAuMTQsMC0wLjE0LDAgICAgdjAuMDd2MC4wN2MwLjE0LDAsMC4xNCwwLDAuMTQsMGMwLDAuMTcsMCwwLjE3LDAsMC4xN2MtMC4xNCwwLTAuMTQsMC0wLjE0LDBsMCwwYzAsMC4wNywwLDAuMDcsMCwwLjA3YzAuMTQsMCwwLjE0LDAsMC4xNCwwICAgIGMwLDAuMTcsMCwwLjE3LDAsMC4xN2MtMC4xNCwwLTAuMTQsMC0wLjE0LDBzMCwwLDAsMC4wN2wwLDBjMC4xNCwwLDAuMTQsMCwwLjE0LDBjMCwwLjE1LDAsMC4xNSwwLDAuMTVjLTAuMTQsMC0wLjE0LDAtMC4xNCwwICAgIHYwLjF2MC4wN2MwLjE0LDAsMC4xNCwwLDAuMTQsMGMwLDAuMTcsMCwwLjE3LDAsMC4xN2MtMC4xNCwwLTAuMTQsMC0wLjE0LDBsMCwwYzAsMC4wNywwLDAuMDcsMC4wNywwLjA3czAuMDcsMCwwLjA3LDAgICAgYzAsMC4xNSwwLDAuMTUsMCwwLjE1Yy0wLjA3LDAtMC4wNywwLTAuMDcsMGMtMC4wNywwLTAuMDcsMC0wLjA3LDAuMDljMCwwLDAsMCwwLjA3LDBzMC4wNywwLDAuMDcsMGMwLDAuMDgsMCwwLjA4LDAsMC4wOCAgICBjLTAuNjIsMC0wLjYyLDAtMC42MiwwYzAsMC4yNCwwLDAuMjQsMCwwLjI0Yy0yLjksMC0yLjksMC0yLjksMGMtMC4yMiwwLTAuMzksMC4wNy0wLjM5LDAuMTRjMCwwLjA4LDAsMC4wOCwwLDAuMDggICAgYzAsMC4wOSwwLjE3LDAuMTYsMC4zOSwwLjE2YzIuOS0wLjA3LDIuOS0wLjA3LDIuOS0wLjA3YzAsMC4xNSwwLDAuMTUsMCwwLjE1YzAuNTUsMC43LDAuNTUsMC43LDAuNTUsMC43YzEuNSwwLDEuNSwwLDEuNSwwICAgIGMwLjUzLTAuNywwLjUzLTAuNywwLjUzLTAuN2MwLTAuMTUsMC0wLjE1LDAtMC4xNWMyLjgzLDAsMi44MywwLDIuODMsMGMwLjI0LTAuMDksMC40OC0wLjA5LDAuNDgtMC4xNyAgICBjLTAuMDktMC4xNC0wLjA5LTAuMTQtMC4wOS0wLjE0YzAtMC4xLTAuMTUtMC4xLTAuMzktMC4xYy0yLjgzLDAtMi44MywwLTIuODMsMGMwLTAuMTQsMC0wLjE0LDAtMC4xNGMtMC43NywwLTAuNzcsMC0wLjc3LDAgICAgYzAtMC4wOCwwLTAuMDgsMC0wLjA4YzAuMTQsMCwwLjE0LDAsMC4xNCwwczAuMSwwLDAuMS0wLjA5aC0wLjFjLTAuMjEsMC0wLjIxLDAtMC4yMSwwYzAtMC4xNSwwLTAuMTUsMC0wLjE1ICAgIGMwLjIxLDAsMC4yMSwwLDAuMjEsMHYtMC4wN3YtMC4xYy0wLjIxLDAtMC4yMSwwLTAuMjEsMGMwLTAuMTQsMC0wLjE0LDAtMC4xNGMwLjIxLDAsMC4yMSwwLDAuMjEsMGwwLDBjMC0wLjEsMC0wLjEsMC0wLjEgICAgYy0wLjIxLDAtMC4yMSwwLTAuMjEsMGMwLTAuMTUsMC0wLjE1LDAtMC4xNWMwLjIxLDAsMC4yMSwwLDAuMjEsMHMwLDAsMC0wLjA3bDAsMGMtMC4yMSwwLTAuMjEsMC0wLjIxLDBjMC0wLjE3LDAtMC4xNywwLTAuMTcgICAgYzAuMjEsMCwwLjIxLDAsMC4yMSwwdi0wLjA3di0wLjA3Yy0wLjIxLDAtMC4yMSwwLTAuMjEsMGMwLTAuMSwwLTAuMSwwLTAuMWMwLjIxLTAuMDcsMC4yMS0wLjA3LDAuMjEtMC4wN2wwLDAgICAgYzAtMC4wNywwLTAuMDcsMC0wLjA3Yy0wLjIxLDAtMC4yMSwwLTAuMjEsMGMwLTAuMTcsMC0wLjE3LDAtMC4xN2MwLjIxLDAsMC4yMSwwLDAuMjEsMGwwLDBjMC0wLjA4LDAtMC4wOCwwLTAuMDggICAgYy0wLjIxLDAtMC4yMSwwLTAuMjEsMGMwLTAuMTQsMC0wLjE0LDAtMC4xNGMwLjIxLDAsMC4yMSwwLDAuMjEsMHMwLDAsMC0wLjFsMCwwYzEuMzYsMCwzLjYzLTAuMDcsNy4zOC0wLjA3ICAgIEMyMi44MiwxOC4wNSwyMi44MiwxNC4yNSwyMi44MiwxMy4zMXoiLz4mI3hhOwk8L2c+JiN4YTs8L2c+JiN4YTs8L3N2Zz4=;" parent="1" vertex="1">
          <mxGeometry x="245" y="360" width="63.11" height="60" as="geometry" />
        </mxCell>
        <mxCell id="QFZf7pw_Yvivp7_EfdEL-19" value="Preview&lt;br&gt;Monitoring&lt;br&gt;" style="aspect=fixed;html=1;perimeter=none;align=center;shadow=0;dashed=0;image;fontSize=12;image=img/lib/mscae/TaskVM.svg;" parent="1" vertex="1">
          <mxGeometry x="1270" y="1140" width="63" height="60" as="geometry" />
        </mxCell>
        <mxCell id="QFZf7pw_Yvivp7_EfdEL-20" value="Transformer&lt;div&gt;App&lt;/div&gt;" style="aspect=fixed;html=1;perimeter=none;align=center;shadow=0;dashed=0;image;fontSize=12;image=img/lib/mscae/WebApp_WebJobs.svg;labelBackgroundColor=none;" parent="1" vertex="1">
          <mxGeometry x="378" y="356" width="64" height="64" as="geometry" />
        </mxCell>
        <mxCell id="gfm_nSeY3BKA6nFXt_tZ-7" style="edgeStyle=orthogonalEdgeStyle;rounded=0;orthogonalLoop=1;jettySize=auto;html=1;exitX=0;exitY=0;exitDx=0;exitDy=0;entryX=0.5;entryY=1;entryDx=0;entryDy=0;dashed=1;" edge="1" parent="1" source="QFZf7pw_Yvivp7_EfdEL-22" target="4ndBJUu1C0Kb1_ytCzMU-13">
          <mxGeometry relative="1" as="geometry" />
        </mxCell>
        <mxCell id="gfm_nSeY3BKA6nFXt_tZ-8" value="Retry&amp;nbsp;&lt;div&gt;Remediate Records&lt;/div&gt;" style="edgeLabel;html=1;align=center;verticalAlign=middle;resizable=0;points=[];" vertex="1" connectable="0" parent="gfm_nSeY3BKA6nFXt_tZ-7">
          <mxGeometry x="0.4648" y="-3" relative="1" as="geometry">
            <mxPoint as="offset" />
          </mxGeometry>
        </mxCell>
        <mxCell id="QFZf7pw_Yvivp7_EfdEL-22" value="Azure Blob&lt;br&gt;Storage" style="aspect=fixed;html=1;perimeter=none;align=center;shadow=0;dashed=0;image;fontSize=12;image=img/lib/mscae/BlobBlock.svg;" parent="1" vertex="1">
          <mxGeometry x="1170" y="640" width="105.45" height="90.14" as="geometry" />
        </mxCell>
        <mxCell id="QFZf7pw_Yvivp7_EfdEL-29" value="Source Zone" style="rounded=0;whiteSpace=wrap;html=1;fillColor=#f5f5f5;strokeColor=none;fontColor=#333333;verticalAlign=top;" parent="1" vertex="1">
          <mxGeometry x="-118" y="269" width="160" height="461" as="geometry" />
        </mxCell>
        <mxCell id="-W0rYXSzwMDniz4wgtud-1" value="EventHub" style="image;sketch=0;aspect=fixed;html=1;points=[];align=center;fontSize=12;image=img/lib/mscae/Event_Grid_Topics.svg;" parent="1" vertex="1">
          <mxGeometry x="-66" y="600" width="50" height="50" as="geometry" />
        </mxCell>
        <mxCell id="ghNVG1pRIT7VL2G6ETEf-1" value="DBHub" style="image;html=1;image=img/lib/clip_art/computers/Database_128x128.png" parent="1" vertex="1">
          <mxGeometry x="-68" y="466" width="52" height="53" as="geometry" />
        </mxCell>
        <mxCell id="UqW9Xq1WL7jgjOPIQogc-1" value="&lt;span style=&quot;background-color: rgb(245, 245, 245);&quot;&gt;SpecsHub&lt;/span&gt;" style="image;aspect=fixed;html=1;points=[];align=center;fontSize=12;image=img/lib/azure2/other/Template_Specs.svg;" parent="1" vertex="1">
          <mxGeometry x="-68" y="333" width="60" height="71.58" as="geometry" />
        </mxCell>
        <mxCell id="UqW9Xq1WL7jgjOPIQogc-3" style="edgeStyle=orthogonalEdgeStyle;rounded=0;orthogonalLoop=1;jettySize=auto;html=1;exitX=1;exitY=0.5;exitDx=0;exitDy=0;entryX=0.007;entryY=0.438;entryDx=0;entryDy=0;entryPerimeter=0;strokeColor=#808080;" parent="1" source="4ndBJUu1C0Kb1_ytCzMU-29" target="QFZf7pw_Yvivp7_EfdEL-15" edge="1">
          <mxGeometry relative="1" as="geometry" />
        </mxCell>
        <mxCell id="UqW9Xq1WL7jgjOPIQogc-7" value="PreValidation&lt;div&gt;Queue&lt;/div&gt;" style="verticalLabelPosition=bottom;html=1;verticalAlign=top;align=center;strokeColor=none;fillColor=#00BEF2;shape=mxgraph.azure.service_bus_queues;pointerEvents=1;" parent="1" vertex="1">
          <mxGeometry x="563" y="374.5" width="42.5" height="50" as="geometry" />
        </mxCell>
        <mxCell id="UqW9Xq1WL7jgjOPIQogc-10" value="Validation Processor" style="rounded=0;whiteSpace=wrap;html=1;fillColor=#f5f5f5;strokeColor=none;fontColor=#333333;verticalAlign=top;" parent="1" vertex="1">
          <mxGeometry x="480" y="570" width="440" height="151" as="geometry" />
        </mxCell>
        <mxCell id="UqW9Xq1WL7jgjOPIQogc-9" style="edgeStyle=orthogonalEdgeStyle;rounded=0;orthogonalLoop=1;jettySize=auto;html=1;exitX=1;exitY=0.5;exitDx=0;exitDy=0;entryX=0;entryY=0.5;entryDx=0;entryDy=0;entryPerimeter=0;strokeColor=#808080;" parent="1" source="QFZf7pw_Yvivp7_EfdEL-15" target="UqW9Xq1WL7jgjOPIQogc-7" edge="1">
          <mxGeometry relative="1" as="geometry" />
        </mxCell>
        <mxCell id="UqW9Xq1WL7jgjOPIQogc-12" value="Validator&amp;nbsp;&lt;div&gt;App&lt;/div&gt;" style="aspect=fixed;html=1;perimeter=none;align=center;shadow=0;dashed=0;image;fontSize=12;image=img/lib/mscae/WebApp_WebJobs.svg;labelBackgroundColor=none;" parent="1" vertex="1">
          <mxGeometry x="620" y="610" width="64" height="64" as="geometry" />
        </mxCell>
        <mxCell id="UqW9Xq1WL7jgjOPIQogc-15" value="Rules&lt;div&gt;Config&lt;/div&gt;" style="outlineConnect=0;dashed=0;verticalLabelPosition=bottom;verticalAlign=top;align=center;html=1;shape=mxgraph.aws3.config_rule;fillColor=#759C3E;gradientColor=none;" parent="1" vertex="1">
          <mxGeometry x="494" y="611" width="55.5" height="62" as="geometry" />
        </mxCell>
        <mxCell id="UqW9Xq1WL7jgjOPIQogc-23" style="edgeStyle=orthogonalEdgeStyle;rounded=0;orthogonalLoop=1;jettySize=auto;html=1;exitX=0.5;exitY=1;exitDx=0;exitDy=0;exitPerimeter=0;strokeColor=#808080;" parent="1" source="UqW9Xq1WL7jgjOPIQogc-18" target="UqW9Xq1WL7jgjOPIQogc-22" edge="1">
          <mxGeometry relative="1" as="geometry">
            <Array as="points">
              <mxPoint x="865" y="780" />
              <mxPoint x="731" y="780" />
            </Array>
          </mxGeometry>
        </mxCell>
        <mxCell id="UqW9Xq1WL7jgjOPIQogc-30" value="valid msg" style="edgeLabel;html=1;align=center;verticalAlign=middle;resizable=0;points=[];" parent="UqW9Xq1WL7jgjOPIQogc-23" vertex="1" connectable="0">
          <mxGeometry x="0.0477" y="-3" relative="1" as="geometry">
            <mxPoint x="-46" y="-7" as="offset" />
          </mxGeometry>
        </mxCell>
        <mxCell id="UqW9Xq1WL7jgjOPIQogc-18" value="Decider" style="verticalLabelPosition=bottom;sketch=0;html=1;fillColor=#A153A0;strokeColor=#ffffff;verticalAlign=top;align=center;points=[[0,0.5,0],[0.125,0.25,0],[0.25,0,0],[0.5,0,0],[0.75,0,0],[0.875,0.25,0],[1,0.5,0],[0.875,0.75,0],[0.75,1,0],[0.5,1,0],[0.125,0.75,0]];pointerEvents=1;shape=mxgraph.cisco_safe.compositeIcon;bgIcon=mxgraph.cisco_safe.design.blank_device;resIcon=mxgraph.cisco_safe.design.automated_system;" parent="1" vertex="1">
          <mxGeometry x="840" y="618" width="50" height="45" as="geometry" />
        </mxCell>
        <mxCell id="UqW9Xq1WL7jgjOPIQogc-36" style="edgeStyle=orthogonalEdgeStyle;rounded=0;orthogonalLoop=1;jettySize=auto;html=1;exitX=0;exitY=0.5;exitDx=0;exitDy=0;exitPerimeter=0;entryX=0.5;entryY=0;entryDx=0;entryDy=0;strokeColor=#808080;" parent="1" source="UqW9Xq1WL7jgjOPIQogc-22" target="UqW9Xq1WL7jgjOPIQogc-32" edge="1">
          <mxGeometry relative="1" as="geometry" />
        </mxCell>
        <mxCell id="UqW9Xq1WL7jgjOPIQogc-22" value="PostValidation&lt;div&gt;Queue&lt;/div&gt;" style="verticalLabelPosition=bottom;html=1;verticalAlign=top;align=center;strokeColor=none;fillColor=#00BEF2;shape=mxgraph.azure.service_bus_queues;pointerEvents=1;" parent="1" vertex="1">
          <mxGeometry x="710" y="841" width="42.5" height="50" as="geometry" />
        </mxCell>
        <mxCell id="xZAcJMV6n3TPmo2zS2b6-13" style="edgeStyle=orthogonalEdgeStyle;rounded=0;orthogonalLoop=1;jettySize=auto;html=1;exitX=0.37;exitY=1;exitDx=0;exitDy=0;exitPerimeter=0;entryX=0;entryY=0.25;entryDx=0;entryDy=0;strokeColor=#808080;" parent="1" source="UqW9Xq1WL7jgjOPIQogc-26" target="UqW9Xq1WL7jgjOPIQogc-33" edge="1">
          <mxGeometry relative="1" as="geometry" />
        </mxCell>
        <mxCell id="UqW9Xq1WL7jgjOPIQogc-26" value="Invalid Data&lt;br&gt;&lt;div&gt;Queue&lt;/div&gt;" style="verticalLabelPosition=bottom;html=1;verticalAlign=top;align=center;strokeColor=none;fillColor=#00BEF2;shape=mxgraph.azure.service_bus_queues;pointerEvents=1;" parent="1" vertex="1">
          <mxGeometry x="960" y="841" width="42.5" height="50" as="geometry" />
        </mxCell>
        <mxCell id="UqW9Xq1WL7jgjOPIQogc-27" style="edgeStyle=orthogonalEdgeStyle;rounded=0;orthogonalLoop=1;jettySize=auto;html=1;exitX=0.5;exitY=1;exitDx=0;exitDy=0;exitPerimeter=0;entryX=0.41;entryY=0;entryDx=0;entryDy=0;entryPerimeter=0;strokeColor=#808080;" parent="1" source="UqW9Xq1WL7jgjOPIQogc-18" target="UqW9Xq1WL7jgjOPIQogc-26" edge="1">
          <mxGeometry relative="1" as="geometry">
            <Array as="points">
              <mxPoint x="865" y="780" />
              <mxPoint x="977" y="780" />
            </Array>
          </mxGeometry>
        </mxCell>
        <mxCell id="UqW9Xq1WL7jgjOPIQogc-31" value="Invalid msg" style="edgeLabel;html=1;align=center;verticalAlign=middle;resizable=0;points=[];" parent="UqW9Xq1WL7jgjOPIQogc-27" vertex="1" connectable="0">
          <mxGeometry x="0.014" y="2" relative="1" as="geometry">
            <mxPoint x="43" y="-8" as="offset" />
          </mxGeometry>
        </mxCell>
        <mxCell id="UqW9Xq1WL7jgjOPIQogc-29" value="Serialized JSON Objects" style="text;html=1;align=center;verticalAlign=middle;whiteSpace=wrap;rounded=0;" parent="1" vertex="1">
          <mxGeometry x="460" y="363" width="90" height="30" as="geometry" />
        </mxCell>
        <mxCell id="UqW9Xq1WL7jgjOPIQogc-32" value="SyncApp" style="rounded=0;whiteSpace=wrap;html=1;fillColor=#f5f5f5;strokeColor=none;fontColor=#333333;verticalAlign=top;" parent="1" vertex="1">
          <mxGeometry x="290" y="891" width="230" height="151" as="geometry" />
        </mxCell>
        <mxCell id="xZAcJMV6n3TPmo2zS2b6-17" style="edgeStyle=orthogonalEdgeStyle;rounded=0;orthogonalLoop=1;jettySize=auto;html=1;exitX=0.5;exitY=1;exitDx=0;exitDy=0;entryX=0.5;entryY=0;entryDx=0;entryDy=0;strokeColor=#808080;" parent="1" source="UqW9Xq1WL7jgjOPIQogc-32" target="UqW9Xq1WL7jgjOPIQogc-35" edge="1">
          <mxGeometry relative="1" as="geometry" />
        </mxCell>
        <mxCell id="xZAcJMV6n3TPmo2zS2b6-30" value="Import Successful&amp;nbsp;&lt;div&gt;records&amp;nbsp;&lt;/div&gt;&lt;div&gt;into Collibra CDIP Layer&lt;/div&gt;" style="edgeLabel;html=1;align=center;verticalAlign=middle;resizable=0;points=[];" parent="xZAcJMV6n3TPmo2zS2b6-17" vertex="1" connectable="0">
          <mxGeometry x="0.0072" y="9" relative="1" as="geometry">
            <mxPoint as="offset" />
          </mxGeometry>
        </mxCell>
        <mxCell id="UqW9Xq1WL7jgjOPIQogc-33" value="Post Processor" style="rounded=0;whiteSpace=wrap;html=1;fillColor=#f5f5f5;strokeColor=none;fontColor=#333333;verticalAlign=top;" parent="1" vertex="1">
          <mxGeometry x="1165" y="891" width="255" height="151" as="geometry" />
        </mxCell>
        <mxCell id="UqW9Xq1WL7jgjOPIQogc-35" value="" style="shape=image;verticalLabelPosition=bottom;labelBackgroundColor=default;verticalAlign=top;aspect=fixed;imageAspect=0;image=https://www.collibra.com/mfe/nav/assets/icons/logo.svg;" parent="1" vertex="1">
          <mxGeometry x="258.64" y="1200" width="491.36" height="117.5" as="geometry" />
        </mxCell>
        <mxCell id="UqW9Xq1WL7jgjOPIQogc-38" value="Sync&amp;nbsp;&lt;div&gt;App&lt;/div&gt;" style="aspect=fixed;html=1;perimeter=none;align=center;shadow=0;dashed=0;image;fontSize=12;image=img/lib/mscae/WebApp_WebJobs.svg;labelBackgroundColor=none;" parent="1" vertex="1">
          <mxGeometry x="308" y="934.5" width="64" height="64" as="geometry" />
        </mxCell>
        <mxCell id="xZAcJMV6n3TPmo2zS2b6-19" style="edgeStyle=orthogonalEdgeStyle;rounded=0;orthogonalLoop=1;jettySize=auto;html=1;exitX=0;exitY=0;exitDx=0;exitDy=0;strokeColor=#808080;" parent="1" source="xZAcJMV6n3TPmo2zS2b6-3" target="xZAcJMV6n3TPmo2zS2b6-18" edge="1">
          <mxGeometry relative="1" as="geometry" />
        </mxCell>
        <mxCell id="xZAcJMV6n3TPmo2zS2b6-3" value="BlobExporter&lt;div&gt;App&lt;/div&gt;" style="aspect=fixed;html=1;perimeter=none;align=center;shadow=0;dashed=0;image;fontSize=12;image=img/lib/mscae/WebApp_WebJobs.svg;labelBackgroundColor=none;" parent="1" vertex="1">
          <mxGeometry x="1190" y="941.5" width="64" height="64" as="geometry" />
        </mxCell>
        <mxCell id="xZAcJMV6n3TPmo2zS2b6-4" value="" style="html=1;verticalLabelPosition=bottom;align=center;labelBackgroundColor=#ffffff;verticalAlign=top;strokeWidth=2;strokeColor=#0080F0;shadow=0;dashed=0;shape=mxgraph.ios7.icons.mail;" parent="1" vertex="1">
          <mxGeometry x="1359.5" y="973" width="30" height="16.5" as="geometry" />
        </mxCell>
        <mxCell id="xZAcJMV6n3TPmo2zS2b6-5" value="Simulator" style="sketch=0;outlineConnect=0;fontColor=#232F3E;gradientColor=none;strokeColor=#232F3E;fillColor=#f5f5f5;dashed=0;verticalLabelPosition=bottom;verticalAlign=top;align=center;html=1;fontSize=12;fontStyle=0;aspect=fixed;shape=mxgraph.aws4.resourceIcon;resIcon=mxgraph.aws4.simulator;" parent="1" vertex="1">
          <mxGeometry x="425" y="939.5" width="60" height="60" as="geometry" />
        </mxCell>
        <mxCell id="xZAcJMV6n3TPmo2zS2b6-14" style="edgeStyle=orthogonalEdgeStyle;rounded=0;orthogonalLoop=1;jettySize=auto;html=1;exitX=1;exitY=0.58;exitDx=0;exitDy=0;exitPerimeter=0;entryX=0;entryY=0.5;entryDx=0;entryDy=0;strokeColor=#808080;" parent="1" source="xZAcJMV6n3TPmo2zS2b6-6" target="UqW9Xq1WL7jgjOPIQogc-33" edge="1">
          <mxGeometry relative="1" as="geometry" />
        </mxCell>
        <mxCell id="4ndBJUu1C0Kb1_ytCzMU-5" value="Simulator&amp;nbsp;&lt;div&gt;Failed&amp;nbsp;&lt;div&gt;records&lt;/div&gt;&lt;/div&gt;" style="edgeLabel;html=1;align=center;verticalAlign=middle;resizable=0;points=[];" parent="xZAcJMV6n3TPmo2zS2b6-14" vertex="1" connectable="0">
          <mxGeometry x="-0.0778" y="1" relative="1" as="geometry">
            <mxPoint y="22" as="offset" />
          </mxGeometry>
        </mxCell>
        <mxCell id="xZAcJMV6n3TPmo2zS2b6-6" value="PostSimulator&lt;div&gt;Validation&lt;div&gt;Queue&lt;/div&gt;&lt;/div&gt;" style="verticalLabelPosition=bottom;html=1;verticalAlign=top;align=center;strokeColor=none;fillColor=#00BEF2;shape=mxgraph.azure.service_bus_queues;pointerEvents=1;" parent="1" vertex="1">
          <mxGeometry x="807.5" y="939.5" width="42.5" height="50" as="geometry" />
        </mxCell>
        <mxCell id="xZAcJMV6n3TPmo2zS2b6-15" style="edgeStyle=orthogonalEdgeStyle;rounded=0;orthogonalLoop=1;jettySize=auto;html=1;exitX=1;exitY=0.5;exitDx=0;exitDy=0;entryX=0;entryY=0.5;entryDx=0;entryDy=0;entryPerimeter=0;strokeColor=#808080;" parent="1" source="UqW9Xq1WL7jgjOPIQogc-32" target="xZAcJMV6n3TPmo2zS2b6-6" edge="1">
          <mxGeometry relative="1" as="geometry" />
        </mxCell>
        <mxCell id="xZAcJMV6n3TPmo2zS2b6-16" value="Simulator Passed / Failed&amp;nbsp;&lt;div&gt;records&lt;/div&gt;" style="edgeLabel;html=1;align=center;verticalAlign=middle;resizable=0;points=[];" parent="xZAcJMV6n3TPmo2zS2b6-15" vertex="1" connectable="0">
          <mxGeometry x="-0.2288" y="-2" relative="1" as="geometry">
            <mxPoint x="21" y="12" as="offset" />
          </mxGeometry>
        </mxCell>
        <mxCell id="xZAcJMV6n3TPmo2zS2b6-18" value="" style="shape=image;verticalLabelPosition=bottom;labelBackgroundColor=#ffffff;verticalAlign=top;aspect=fixed;imageAspect=0;image=data:image/svg+xml,PHN2ZyB4bWxuczpjYz0iaHR0cDovL2NyZWF0aXZlY29tbW9ucy5vcmcvbnMjIiB4bWxuczpkYz0iaHR0cDovL3B1cmwub3JnL2RjL2VsZW1lbnRzLzEuMS8iIHhtbG5zOmlua3NjYXBlPSJodHRwOi8vd3d3Lmlua3NjYXBlLm9yZy9uYW1lc3BhY2VzL2lua3NjYXBlIiB4bWxuczpyZGY9Imh0dHA6Ly93d3cudzMub3JnLzE5OTkvMDIvMjItcmRmLXN5bnRheC1ucyMiIHhtbG5zOnNvZGlwb2RpPSJodHRwOi8vc29kaXBvZGkuc291cmNlZm9yZ2UubmV0L0RURC9zb2RpcG9kaS0wLmR0ZCIgeG1sbnM6c3ZnPSJodHRwOi8vd3d3LnczLm9yZy8yMDAwL3N2ZyIgeG1sbnM9Imh0dHA6Ly93d3cudzMub3JnLzIwMDAvc3ZnIiB4bWxuczp4bGluaz0iaHR0cDovL3d3dy53My5vcmcvMTk5OS94bGluayIgdmVyc2lvbj0iMS4xIiBpZD0ic3ZnMTgxNTczIiBpbmtzY2FwZTp2ZXJzaW9uPSIwLjkyLjMgKDI0MDU1NDYsIDIwMTgtMDMtMTEpIiBzb2RpcG9kaTpkb2NuYW1lPSJqc29uLnN2ZyIgeD0iMHB4IiB5PSIwcHgiIHZpZXdCb3g9IjAgMCA3Ni41IDc1LjYzIiBzdHlsZT0iZW5hYmxlLWJhY2tncm91bmQ6bmV3IDAgMCA3Ni41IDc1LjYzOyIgeG1sOnNwYWNlPSJwcmVzZXJ2ZSI+JiN4YTs8c29kaXBvZGk6bmFtZWR2aWV3IGJvcmRlcmNvbG9yPSIjNjY2NjY2IiBib3JkZXJvcGFjaXR5PSIxIiBmaXQtbWFyZ2luLWJvdHRvbT0iMCIgZml0LW1hcmdpbi1sZWZ0PSIwIiBmaXQtbWFyZ2luLXJpZ2h0PSIwIiBmaXQtbWFyZ2luLXRvcD0iMCIgZ3JpZHRvbGVyYW5jZT0iMTAiIGd1aWRldG9sZXJhbmNlPSIxMCIgaWQ9Im5hbWVkdmlldzE4MTU3NSIgaW5rc2NhcGU6Y3VycmVudC1sYXllcj0ic3ZnMTgxNTczIiBpbmtzY2FwZTpjeD0iNTEiIGlua3NjYXBlOmN5PSI1MC40MjEyNjciIGlua3NjYXBlOnBhZ2VvcGFjaXR5PSIwIiBpbmtzY2FwZTpwYWdlc2hhZG93PSIyIiBpbmtzY2FwZTp3aW5kb3ctaGVpZ2h0PSIxMDE3IiBpbmtzY2FwZTp3aW5kb3ctbWF4aW1pemVkPSIxIiBpbmtzY2FwZTp3aW5kb3ctd2lkdGg9IjE5MjAiIGlua3NjYXBlOndpbmRvdy14PSItOCIgaW5rc2NhcGU6d2luZG93LXk9Ii04IiBpbmtzY2FwZTp6b29tPSI4LjU5Nzk5NjkiIG9iamVjdHRvbGVyYW5jZT0iMTAiIHBhZ2Vjb2xvcj0iI2ZmZmZmZiIgc2hvd2dyaWQ9ImZhbHNlIj4mI3hhOwk8L3NvZGlwb2RpOm5hbWVkdmlldz4mI3hhOzxnIGlkPSJnMTgxNTcxIj4mI3hhOwk8dGl0bGUgaWQ9InRpdGxlMTgxNTEyIj5QYWdlLTE8L3RpdGxlPiYjeGE7CTxnIGlkPSJncm91cDEwNzctMSI+JiN4YTsJCTx0aXRsZSBpZD0idGl0bGUxODE1MTQiPkpTT048L3RpdGxlPiYjeGE7CQk8ZyBpZD0ic2hhcGUxMDc4LTIiPiYjeGE7CQkJPHRpdGxlIGlkPSJ0aXRsZTE4MTUxNiI+U2hlZXQuMTA3ODwvdGl0bGU+JiN4YTsJCQk8cGF0aCBpZD0icGF0aDE4MTUxOCIgaW5rc2NhcGU6Y29ubmVjdG9yLWN1cnZhdHVyZT0iMCIgc3R5bGU9ImZpbGw6Izk3NzdBODsiIGQ9Ik0wLDM3LjgxQzAsMTYuOTQsMTcuMTMsMCwzOC4yNSwwICAgICBDNTkuNDIsMCw3Ni41LDE2Ljk0LDc2LjUsMzcuODFjMCwyMC45My0xNy4wOCwzNy44Mi0zOC4yNSwzNy44MkMxNy4xMyw3NS42MywwLDU4Ljc0LDAsMzcuODF6Ii8+JiN4YTsJCTwvZz4mI3hhOwkJPGcgaWQ9Imdyb3VwMTA3OS00IiB0cmFuc2Zvcm09InRyYW5zbGF0ZSgxNS42NTM0LC0xNy4zOTk4KSI+JiN4YTsJCQk8dGl0bGUgaWQ9InRpdGxlMTgxNTIxIj5TaGVldC4xMDc5PC90aXRsZT4mI3hhOwkJCTxnIGlkPSJncm91cDEwODAtNSIgdHJhbnNmb3JtPSJ0cmFuc2xhdGUoNi43NDUzLC0xNi40NDE5KSI+JiN4YTsJCQkJPHRpdGxlIGlkPSJ0aXRsZTE4MTUyMyI+U2hlZXQuMTA4MDwvdGl0bGU+JiN4YTsJCQkJPGcgaWQ9InNoYXBlMTA4MS02Ij4mI3hhOwkJCQkJPHRpdGxlIGlkPSJ0aXRsZTE4MTUyNSI+U2hlZXQuMTA4MTwvdGl0bGU+JiN4YTsJCQkJCTxwYXRoIGlkPSJwYXRoMTgxNTI3IiBpbmtzY2FwZTpjb25uZWN0b3ItY3VydmF0dXJlPSIwIiBzdHlsZT0iZmlsbDojRkZGRkZGOyIgZD0iTTYuMSw1OS43OFY1NC45YzAtMC42NywwLjU0LTEuMjIsMS4yMi0xLjIyICAgICAgIGMwLjY3LDAsMS4yMi0wLjU1LDEuMjItMS4yMmMwLTAuNjctMC41NS0xLjIyLTEuMjItMS4yMmMtMi4wMiwwLTMuNjYsMS42NC0zLjY2LDMuNjZ2NC44OGMwLDEuMzQtMS4xLDIuNDQtMi40NCwyLjQ0ICAgICAgIEMwLjU1LDYyLjIyLDAsNjIuNzYsMCw2My40M2MwLDAuNjgsMC41NSwxLjIyLDEuMjIsMS4yMmMxLjM0LDAsMi40NCwxLjEsMi40NCwyLjQ0djQuODhjMCwyLjAyLDEuNjQsMy42NiwzLjY2LDMuNjYgICAgICAgYzAuNjcsMCwxLjIyLTAuNTUsMS4yMi0xLjIycy0wLjU1LTEuMjItMS4yMi0xLjIyYy0wLjY4LDAtMS4yMi0wLjU1LTEuMjItMS4yMnYtNC44OGMwLTEuNDYtMC42Ni0yLjc2LTEuNjktMy42NiAgICAgICBDNS40NCw2Mi41NCw2LjEsNjEuMjQsNi4xLDU5Ljc4eiIvPiYjeGE7CQkJCTwvZz4mI3hhOwkJCQk8ZyBpZD0ic2hhcGUxMDgyLTgiIHRyYW5zZm9ybT0idHJhbnNsYXRlKDE0LjAyMjMsLTE0LjYzMikiPiYjeGE7CQkJCQk8dGl0bGUgaWQ9InRpdGxlMTgxNTMwIj5TaGVldC4xMDgyPC90aXRsZT4mI3hhOwkJCQkJPGNpcmNsZSBpZD0iZWxsaXBzZTE4MTUzMiIgc3R5bGU9ImZpbGw6I0ZGRkZGRjsiIGN4PSIxLjgzIiBjeT0iNzMuOCIgcj0iMS44MyIvPiYjeGE7CQkJCTwvZz4mI3hhOwkJCQk8ZyBpZD0ic2hhcGUxMDgzLTEwIiB0cmFuc2Zvcm09InRyYW5zbGF0ZSgyMy4xNjczKSI+JiN4YTsJCQkJCTx0aXRsZSBpZD0idGl0bGUxODE1MzUiPlNoZWV0LjEwODM8L3RpdGxlPiYjeGE7CQkJCQk8cGF0aCBpZD0icGF0aDE4MTUzNyIgaW5rc2NhcGU6Y29ubmVjdG9yLWN1cnZhdHVyZT0iMCIgc3R5bGU9ImZpbGw6I0ZGRkZGRjsiIGQ9Ik03LjMyLDYyLjIyYy0xLjM1LDAtMi40NC0xLjEtMi40NC0yLjQ0VjU0LjkgICAgICAgYzAtMi4wMi0xLjY0LTMuNjYtMy42Ni0zLjY2QzAuNTUsNTEuMjQsMCw1MS43OSwwLDUyLjQ2YzAsMC42NywwLjU1LDEuMjIsMS4yMiwxLjIyczEuMjIsMC41NSwxLjIyLDEuMjJ2NC44OCAgICAgICBjMCwxLjQ2LDAuNjYsMi43NiwxLjY4LDMuNjVjLTEuMDIsMC45LTEuNjgsMi4yLTEuNjgsMy42NnY0Ljg4YzAsMC42Ny0wLjU1LDEuMjItMS4yMiwxLjIyUzAsNzMuNzQsMCw3NC40MSAgICAgICBzMC41NSwxLjIyLDEuMjIsMS4yMmMyLjAyLDAsMy42Ni0xLjY0LDMuNjYtMy42NnYtNC44OGMwLTEuMzQsMS4wOS0yLjQ0LDIuNDQtMi40NGMwLjY3LDAsMS4yMi0wLjU0LDEuMjItMS4yMiAgICAgICBDOC41NCw2Mi43Niw3Ljk5LDYyLjIyLDcuMzIsNjIuMjJ6Ii8+JiN4YTsJCQkJPC9nPiYjeGE7CQkJCTxnIGlkPSJzaGFwZTEwODQtMTIiIHRyYW5zZm9ybT0idHJhbnNsYXRlKDE0LjYzMiwtMy42NTc5OSkiPiYjeGE7CQkJCQk8dGl0bGUgaWQ9InRpdGxlMTgxNTQwIj5TaGVldC4xMDg0PC90aXRsZT4mI3hhOwkJCQkJPHBhdGggaWQ9InBhdGgxODE1NDIiIGlua3NjYXBlOmNvbm5lY3Rvci1jdXJ2YXR1cmU9IjAiIHN0eWxlPSJmaWxsOiNGRkZGRkY7IiBkPSJNMS4yMiw2OS41M0MwLjU1LDY5LjUzLDAsNzAuMDgsMCw3MC43NXYzLjY2ICAgICAgIGMwLDAuNjcsMC41NSwxLjIyLDEuMjIsMS4yMnMxLjIyLTAuNTUsMS4yMi0xLjIydi0zLjY2QzIuNDQsNzAuMDgsMS44OSw2OS41MywxLjIyLDY5LjUzeiIvPiYjeGE7CQkJCTwvZz4mI3hhOwkJCTwvZz4mI3hhOwkJCTxnIGlkPSJncm91cDEwODUtMTQiPiYjeGE7CQkJCTx0aXRsZSBpZD0idGl0bGUxODE1NDYiPlNoZWV0LjEwODU8L3RpdGxlPiYjeGE7CQkJCTxnIGlkPSJzaGFwZTEwODYtMTUiPiYjeGE7CQkJCQk8dGl0bGUgaWQ9InRpdGxlMTgxNTQ4Ij5TaGVldC4xMDg2PC90aXRsZT4mI3hhOwkJCQkJPHBhdGggaWQ9InBhdGgxODE1NTAiIGlua3NjYXBlOmNvbm5lY3Rvci1jdXJ2YXR1cmU9IjAiIHN0eWxlPSJmaWxsOiNGRkZGRkY7IiBkPSJNOC4yNCw2MS44djEwLjQ5YzAsMC42My0wLjEyLDEuMTYtMC4zNSwxLjU5ICAgICAgIGMtMC4yMywwLjQ0LTAuNTQsMC43OC0wLjkzLDEuMDVjLTAuMzksMC4yNi0wLjg0LDAuNDQtMS4zNCwwLjU0Yy0wLjUxLDAuMTEtMS4wMywwLjE2LTEuNTYsMC4xNmMtMC4yNywwLTAuNTktMC4wMy0wLjk1LTAuMDggICAgICAgQzIuNzYsNzUuNDksMi4zOCw3NS40MSwyLDc1LjI5cy0wLjc1LTAuMjUtMS4xLTAuMzljLTAuMzYtMC4xNS0wLjY2LTAuMzEtMC45LTAuNWwwLjkzLTEuNDdjMC4xMiwwLjA4LDAuMywwLjE3LDAuNTIsMC4yNiAgICAgICBjMC4yMywwLjA5LDAuNDgsMC4xOCwwLjc0LDAuMjVjMC4yNywwLjA4LDAuNTUsMC4xNSwwLjg0LDAuMjFjMC4zLDAuMDcsMC41NywwLjEsMC44MiwwLjFjMC42NSwwLDEuMTYtMC4xMywxLjU1LTAuMzggICAgICAgYzAuMzgtMC4yNSwwLjU4LTAuNjcsMC42MS0xLjI3VjYxLjhIOC4yNHoiLz4mI3hhOwkJCQk8L2c+JiN4YTsJCQkJPGcgaWQ9InNoYXBlMTA4Ny0xNyIgdHJhbnNmb3JtPSJ0cmFuc2xhdGUoMTEuMzI0NywtMC4wMTg3MDUyKSI+JiN4YTsJCQkJCTx0aXRsZSBpZD0idGl0bGUxODE1NTMiPlNoZWV0LjEwODc8L3RpdGxlPiYjeGE7CQkJCQk8cGF0aCBpZD0icGF0aDE4MTU1NSIgaW5rc2NhcGU6Y29ubmVjdG9yLWN1cnZhdHVyZT0iMCIgc3R5bGU9ImZpbGw6I0ZGRkZGRjsiIGQ9Ik03LjgyLDcxLjg3YzAsMC40OC0wLjEsMC45NS0wLjMsMS40MSAgICAgICBjLTAuMiwwLjQ2LTAuNDksMC44Ni0wLjg1LDEuMjFjLTAuMzcsMC4zNC0wLjgyLDAuNjItMS4zNSwwLjgzYy0wLjU0LDAuMjEtMS4xNSwwLjMxLTEuODMsMC4zMWMtMC4yOSwwLTAuNTktMC4wMi0wLjktMC4wNSAgICAgICBjLTAuMzItMC4wMy0wLjYzLTAuMDgtMC45NS0wLjE1Yy0wLjMxLTAuMDgtMC42MS0wLjE4LTAuOS0wLjNDMC40NSw3NSwwLjIxLDc0Ljg0LDAsNzQuNjZsMC4zOC0xLjU3ICAgICAgIGMwLjE3LDAuMSwwLjM5LDAuMTksMC42NSwwLjI4czAuNTMsMC4xOCwwLjgxLDAuMjZzMC41NiwwLjE0LDAuODQsMC4xOXMwLjU1LDAuMDcsMC43OSwwLjA3YzAuNzQsMCwxLjMxLTAuMTcsMS43MS0wLjUyICAgICAgIGMwLjM5LTAuMzUsMC41OS0wLjg2LDAuNTktMS41NGMwLTAuNDItMC4xNC0wLjc3LTAuNDItMS4wNmMtMC4yOC0wLjI5LTAuNjMtMC41Ni0xLjA1LTAuOGMtMC40Mi0wLjIzLTAuODctMC40Ny0xLjM2LTAuNzEgICAgICAgQzIuNDUsNjkuMDIsMiw2OC43NCwxLjU3LDY4LjQycy0wLjc4LTAuNy0xLjA2LTEuMTRzLTAuNDItMC45OS0wLjQyLTEuNjRjMC0wLjYsMC4xMS0xLjEzLDAuMzMtMS41OXMwLjUxLTAuODYsMC44OS0xLjE4ICAgICAgIGMwLjM3LTAuMzIsMC44LTAuNTcsMS4yOS0wLjc0YzAuNS0wLjE3LDEuMDItMC4yNiwxLjU2LTAuMjZjMC41NiwwLDEuMTMsMC4wNiwxLjcsMC4xNnMxLjA0LDAuMjcsMS4zOSwwLjUgICAgICAgQzcuMTgsNjIuNjksNy4wOSw2Mi44Niw3LDYzLjA1Yy0wLjEsMC4xOS0wLjE5LDAuMzctMC4yOCwwLjUzYy0wLjA4LDAuMTctMC4xNiwwLjMtMC4yMiwwLjQxYy0wLjA2LDAuMTEtMC4wOSwwLjE3LTAuMTEsMC4xOSAgICAgICBjLTAuMDctMC4wNC0wLjE1LTAuMDktMC4yNC0wLjE1Yy0wLjEtMC4wNi0wLjIzLTAuMTItMC40LTAuMThjLTAuMTctMC4wNi0wLjM5LTAuMTEtMC42Ny0wLjEzQzQuOCw2My42OSw0LjQ0LDYzLjcsNCw2My43NCAgICAgICBjLTAuMjUsMC4wMi0wLjQ4LDAuMDktMC43LDAuMjFjLTAuMjIsMC4xMS0wLjQxLDAuMjYtMC41OCwwLjQzYy0wLjE3LDAuMTctMC4zMSwwLjM2LTAuNCwwLjU3Yy0wLjEsMC4yMi0wLjE1LDAuNDItMC4xNSwwLjYxICAgICAgIGMwLDAuNDksMC4xNCwwLjg4LDAuNDIsMS4xOHMwLjYzLDAuNTYsMS4wNCwwLjc5YzAuNDEsMC4yMiwwLjg3LDAuNDQsMS4zNSwwLjY2YzAuNDksMC4yMSwwLjk0LDAuNDcsMS4zNywwLjc3ICAgICAgIGMwLjQyLDAuMzEsMC43NiwwLjY5LDEuMDUsMS4xNEM3LjY4LDcwLjU2LDcuODIsNzEuMTUsNy44Miw3MS44N3oiLz4mI3hhOwkJCQk8L2c+JiN4YTsJCQkJPGcgaWQ9InNoYXBlMTA4OC0xOSIgdHJhbnNmb3JtPSJ0cmFuc2xhdGUoMjEuMTU0MykiPiYjeGE7CQkJCQk8dGl0bGUgaWQ9InRpdGxlMTgxNTU4Ij5TaGVldC4xMDg4PC90aXRsZT4mI3hhOwkJCQkJPHBhdGggaWQ9InBhdGgxODE1NjAiIGlua3NjYXBlOmNvbm5lY3Rvci1jdXJ2YXR1cmU9IjAiIHN0eWxlPSJmaWxsOiNGRkZGRkY7IiBkPSJNMTEuMjIsNjguNzRjMCwxLjEzLTAuMTUsMi4xMy0wLjQzLDMgICAgICAgYy0wLjI5LDAuODYtMC42OSwxLjU4LTEuMTksMi4xNWMtMC41MSwwLjU3LTEuMSwxLjAxLTEuNzcsMS4zYy0wLjY4LDAuMjktMS40MiwwLjQ0LTIuMjIsMC40NGMtMC44MSwwLTEuNTUtMC4xNS0yLjIyLTAuNDQgICAgICAgYy0wLjY4LTAuMjktMS4yNy0wLjcyLTEuNzctMS4zYy0wLjUxLTAuNTctMC45MS0xLjI5LTEuMTktMi4xNUMwLjE0LDcwLjg3LDAsNjkuODcsMCw2OC43NGMwLTEuMTMsMC4xNC0yLjEzLDAuNDMtMi45OCAgICAgICBjMC4yOC0wLjg2LDAuNjgtMS41OCwxLjE5LTIuMTVjMC41LTAuNTcsMS4wOS0xLjAxLDEuNzctMS4zMWMwLjY3LTAuMywxLjQxLTAuNDQsMi4yMi0wLjQ0YzAuOCwwLDEuNTQsMC4xNCwyLjIyLDAuNDQgICAgICAgYzAuNjcsMC4zLDEuMjYsMC43NCwxLjc3LDEuMzFjMC41LDAuNTcsMC45LDEuMjksMS4xOSwyLjE1QzExLjA3LDY2LjYxLDExLjIyLDY3LjYxLDExLjIyLDY4Ljc0eiBNNS41NSw3My44NCAgICAgICBjMC40NSwwLDAuODgtMC4wOSwxLjI5LTAuMjdjMC40MS0wLjE3LDAuNzctMC40NiwxLjEtMC44NmMwLjMyLTAuNCwwLjU3LTAuOTMsMC43NS0xLjU4YzAuMTktMC42NiwwLjI4LTEuNDUsMC4zLTIuMzkgICAgICAgYy0wLjAyLTAuOTEtMC4xMS0xLjY5LTAuMjktMi4zM2MtMC4xNy0wLjYzLTAuNDItMS4xNi0wLjczLTEuNThjLTAuMzEtMC40MS0wLjY2LTAuNzEtMS4wNi0wLjg5ICAgICAgIGMtMC4zOS0wLjE4LTAuODEtMC4yOC0xLjI1LTAuMjhjLTAuNDUsMC0wLjg4LDAuMDktMS4yOSwwLjI2cy0wLjc3LDAuNDYtMS4wOSwwLjg3Yy0wLjMyLDAuNC0wLjU4LDAuOTMtMC43NiwxLjU4ICAgICAgIGMtMC4xOCwwLjY0LTAuMjgsMS40My0wLjI5LDIuMzdjMC4wMSwwLjkyLDAuMSwxLjY5LDAuMjgsMi4zNGMwLjE4LDAuNjUsMC40MiwxLjE3LDAuNzMsMS41OHMwLjY3LDAuNzEsMS4wNiwwLjkgICAgICAgQzQuNyw3My43NSw1LjExLDczLjg0LDUuNTUsNzMuODR6Ii8+JiN4YTsJCQkJPC9nPiYjeGE7CQkJCTxnIGlkPSJzaGFwZTEwODktMjEiIHRyYW5zZm9ybT0idHJhbnNsYXRlKDM1LjQ1NzEsLTAuMDkwODU0MSkiPiYjeGE7CQkJCQk8dGl0bGUgaWQ9InRpdGxlMTgxNTYzIj5TaGVldC4xMDg5PC90aXRsZT4mI3hhOwkJCQkJPHBhdGggaWQ9InBhdGgxODE1NjUiIGlua3NjYXBlOmNvbm5lY3Rvci1jdXJ2YXR1cmU9IjAiIHN0eWxlPSJmaWxsOiNGRkZGRkY7IiBkPSJNOS43NCw2Mi4xN3YxMy40Nkg3LjUxbC01LjI4LTkuMjh2OS4yOEgwICAgICAgIFY2Mi4xN2gyLjIzbDUuMjgsOS4yN3YtOS4yN0w5Ljc0LDYyLjE3eiIvPiYjeGE7CQkJCTwvZz4mI3hhOwkJCTwvZz4mI3hhOwkJPC9nPiYjeGE7CTwvZz4mI3hhOzwvZz4mI3hhOzwvc3ZnPg==;" parent="1" vertex="1">
          <mxGeometry x="1340" y="934.5" width="47" height="46.39" as="geometry" />
        </mxCell>
        <mxCell id="xZAcJMV6n3TPmo2zS2b6-20" value="" style="shape=image;verticalLabelPosition=bottom;labelBackgroundColor=#ffffff;verticalAlign=top;aspect=fixed;imageAspect=0;image=data:image/svg+xml,PHN2ZyB4bWxuczpjYz0iaHR0cDovL2NyZWF0aXZlY29tbW9ucy5vcmcvbnMjIiB4bWxuczpkYz0iaHR0cDovL3B1cmwub3JnL2RjL2VsZW1lbnRzLzEuMS8iIHhtbG5zOmlua3NjYXBlPSJodHRwOi8vd3d3Lmlua3NjYXBlLm9yZy9uYW1lc3BhY2VzL2lua3NjYXBlIiB4bWxuczpyZGY9Imh0dHA6Ly93d3cudzMub3JnLzE5OTkvMDIvMjItcmRmLXN5bnRheC1ucyMiIHhtbG5zOnNvZGlwb2RpPSJodHRwOi8vc29kaXBvZGkuc291cmNlZm9yZ2UubmV0L0RURC9zb2RpcG9kaS0wLmR0ZCIgeG1sbnM6c3ZnPSJodHRwOi8vd3d3LnczLm9yZy8yMDAwL3N2ZyIgeG1sbnM9Imh0dHA6Ly93d3cudzMub3JnLzIwMDAvc3ZnIiB4bWxuczp4bGluaz0iaHR0cDovL3d3dy53My5vcmcvMTk5OS94bGluayIgdmVyc2lvbj0iMS4xIiBpZD0ic3ZnMTgxNTczIiBpbmtzY2FwZTp2ZXJzaW9uPSIwLjkyLjMgKDI0MDU1NDYsIDIwMTgtMDMtMTEpIiBzb2RpcG9kaTpkb2NuYW1lPSJqc29uLnN2ZyIgeD0iMHB4IiB5PSIwcHgiIHZpZXdCb3g9IjAgMCA3Ni41IDc1LjYzIiBzdHlsZT0iZW5hYmxlLWJhY2tncm91bmQ6bmV3IDAgMCA3Ni41IDc1LjYzOyIgeG1sOnNwYWNlPSJwcmVzZXJ2ZSI+JiN4YTs8c29kaXBvZGk6bmFtZWR2aWV3IGJvcmRlcmNvbG9yPSIjNjY2NjY2IiBib3JkZXJvcGFjaXR5PSIxIiBmaXQtbWFyZ2luLWJvdHRvbT0iMCIgZml0LW1hcmdpbi1sZWZ0PSIwIiBmaXQtbWFyZ2luLXJpZ2h0PSIwIiBmaXQtbWFyZ2luLXRvcD0iMCIgZ3JpZHRvbGVyYW5jZT0iMTAiIGd1aWRldG9sZXJhbmNlPSIxMCIgaWQ9Im5hbWVkdmlldzE4MTU3NSIgaW5rc2NhcGU6Y3VycmVudC1sYXllcj0ic3ZnMTgxNTczIiBpbmtzY2FwZTpjeD0iNTEiIGlua3NjYXBlOmN5PSI1MC40MjEyNjciIGlua3NjYXBlOnBhZ2VvcGFjaXR5PSIwIiBpbmtzY2FwZTpwYWdlc2hhZG93PSIyIiBpbmtzY2FwZTp3aW5kb3ctaGVpZ2h0PSIxMDE3IiBpbmtzY2FwZTp3aW5kb3ctbWF4aW1pemVkPSIxIiBpbmtzY2FwZTp3aW5kb3ctd2lkdGg9IjE5MjAiIGlua3NjYXBlOndpbmRvdy14PSItOCIgaW5rc2NhcGU6d2luZG93LXk9Ii04IiBpbmtzY2FwZTp6b29tPSI4LjU5Nzk5NjkiIG9iamVjdHRvbGVyYW5jZT0iMTAiIHBhZ2Vjb2xvcj0iI2ZmZmZmZiIgc2hvd2dyaWQ9ImZhbHNlIj4mI3hhOwk8L3NvZGlwb2RpOm5hbWVkdmlldz4mI3hhOzxnIGlkPSJnMTgxNTcxIj4mI3hhOwk8dGl0bGUgaWQ9InRpdGxlMTgxNTEyIj5QYWdlLTE8L3RpdGxlPiYjeGE7CTxnIGlkPSJncm91cDEwNzctMSI+JiN4YTsJCTx0aXRsZSBpZD0idGl0bGUxODE1MTQiPkpTT048L3RpdGxlPiYjeGE7CQk8ZyBpZD0ic2hhcGUxMDc4LTIiPiYjeGE7CQkJPHRpdGxlIGlkPSJ0aXRsZTE4MTUxNiI+U2hlZXQuMTA3ODwvdGl0bGU+JiN4YTsJCQk8cGF0aCBpZD0icGF0aDE4MTUxOCIgaW5rc2NhcGU6Y29ubmVjdG9yLWN1cnZhdHVyZT0iMCIgc3R5bGU9ImZpbGw6Izk3NzdBODsiIGQ9Ik0wLDM3LjgxQzAsMTYuOTQsMTcuMTMsMCwzOC4yNSwwICAgICBDNTkuNDIsMCw3Ni41LDE2Ljk0LDc2LjUsMzcuODFjMCwyMC45My0xNy4wOCwzNy44Mi0zOC4yNSwzNy44MkMxNy4xMyw3NS42MywwLDU4Ljc0LDAsMzcuODF6Ii8+JiN4YTsJCTwvZz4mI3hhOwkJPGcgaWQ9Imdyb3VwMTA3OS00IiB0cmFuc2Zvcm09InRyYW5zbGF0ZSgxNS42NTM0LC0xNy4zOTk4KSI+JiN4YTsJCQk8dGl0bGUgaWQ9InRpdGxlMTgxNTIxIj5TaGVldC4xMDc5PC90aXRsZT4mI3hhOwkJCTxnIGlkPSJncm91cDEwODAtNSIgdHJhbnNmb3JtPSJ0cmFuc2xhdGUoNi43NDUzLC0xNi40NDE5KSI+JiN4YTsJCQkJPHRpdGxlIGlkPSJ0aXRsZTE4MTUyMyI+U2hlZXQuMTA4MDwvdGl0bGU+JiN4YTsJCQkJPGcgaWQ9InNoYXBlMTA4MS02Ij4mI3hhOwkJCQkJPHRpdGxlIGlkPSJ0aXRsZTE4MTUyNSI+U2hlZXQuMTA4MTwvdGl0bGU+JiN4YTsJCQkJCTxwYXRoIGlkPSJwYXRoMTgxNTI3IiBpbmtzY2FwZTpjb25uZWN0b3ItY3VydmF0dXJlPSIwIiBzdHlsZT0iZmlsbDojRkZGRkZGOyIgZD0iTTYuMSw1OS43OFY1NC45YzAtMC42NywwLjU0LTEuMjIsMS4yMi0xLjIyICAgICAgIGMwLjY3LDAsMS4yMi0wLjU1LDEuMjItMS4yMmMwLTAuNjctMC41NS0xLjIyLTEuMjItMS4yMmMtMi4wMiwwLTMuNjYsMS42NC0zLjY2LDMuNjZ2NC44OGMwLDEuMzQtMS4xLDIuNDQtMi40NCwyLjQ0ICAgICAgIEMwLjU1LDYyLjIyLDAsNjIuNzYsMCw2My40M2MwLDAuNjgsMC41NSwxLjIyLDEuMjIsMS4yMmMxLjM0LDAsMi40NCwxLjEsMi40NCwyLjQ0djQuODhjMCwyLjAyLDEuNjQsMy42NiwzLjY2LDMuNjYgICAgICAgYzAuNjcsMCwxLjIyLTAuNTUsMS4yMi0xLjIycy0wLjU1LTEuMjItMS4yMi0xLjIyYy0wLjY4LDAtMS4yMi0wLjU1LTEuMjItMS4yMnYtNC44OGMwLTEuNDYtMC42Ni0yLjc2LTEuNjktMy42NiAgICAgICBDNS40NCw2Mi41NCw2LjEsNjEuMjQsNi4xLDU5Ljc4eiIvPiYjeGE7CQkJCTwvZz4mI3hhOwkJCQk8ZyBpZD0ic2hhcGUxMDgyLTgiIHRyYW5zZm9ybT0idHJhbnNsYXRlKDE0LjAyMjMsLTE0LjYzMikiPiYjeGE7CQkJCQk8dGl0bGUgaWQ9InRpdGxlMTgxNTMwIj5TaGVldC4xMDgyPC90aXRsZT4mI3hhOwkJCQkJPGNpcmNsZSBpZD0iZWxsaXBzZTE4MTUzMiIgc3R5bGU9ImZpbGw6I0ZGRkZGRjsiIGN4PSIxLjgzIiBjeT0iNzMuOCIgcj0iMS44MyIvPiYjeGE7CQkJCTwvZz4mI3hhOwkJCQk8ZyBpZD0ic2hhcGUxMDgzLTEwIiB0cmFuc2Zvcm09InRyYW5zbGF0ZSgyMy4xNjczKSI+JiN4YTsJCQkJCTx0aXRsZSBpZD0idGl0bGUxODE1MzUiPlNoZWV0LjEwODM8L3RpdGxlPiYjeGE7CQkJCQk8cGF0aCBpZD0icGF0aDE4MTUzNyIgaW5rc2NhcGU6Y29ubmVjdG9yLWN1cnZhdHVyZT0iMCIgc3R5bGU9ImZpbGw6I0ZGRkZGRjsiIGQ9Ik03LjMyLDYyLjIyYy0xLjM1LDAtMi40NC0xLjEtMi40NC0yLjQ0VjU0LjkgICAgICAgYzAtMi4wMi0xLjY0LTMuNjYtMy42Ni0zLjY2QzAuNTUsNTEuMjQsMCw1MS43OSwwLDUyLjQ2YzAsMC42NywwLjU1LDEuMjIsMS4yMiwxLjIyczEuMjIsMC41NSwxLjIyLDEuMjJ2NC44OCAgICAgICBjMCwxLjQ2LDAuNjYsMi43NiwxLjY4LDMuNjVjLTEuMDIsMC45LTEuNjgsMi4yLTEuNjgsMy42NnY0Ljg4YzAsMC42Ny0wLjU1LDEuMjItMS4yMiwxLjIyUzAsNzMuNzQsMCw3NC40MSAgICAgICBzMC41NSwxLjIyLDEuMjIsMS4yMmMyLjAyLDAsMy42Ni0xLjY0LDMuNjYtMy42NnYtNC44OGMwLTEuMzQsMS4wOS0yLjQ0LDIuNDQtMi40NGMwLjY3LDAsMS4yMi0wLjU0LDEuMjItMS4yMiAgICAgICBDOC41NCw2Mi43Niw3Ljk5LDYyLjIyLDcuMzIsNjIuMjJ6Ii8+JiN4YTsJCQkJPC9nPiYjeGE7CQkJCTxnIGlkPSJzaGFwZTEwODQtMTIiIHRyYW5zZm9ybT0idHJhbnNsYXRlKDE0LjYzMiwtMy42NTc5OSkiPiYjeGE7CQkJCQk8dGl0bGUgaWQ9InRpdGxlMTgxNTQwIj5TaGVldC4xMDg0PC90aXRsZT4mI3hhOwkJCQkJPHBhdGggaWQ9InBhdGgxODE1NDIiIGlua3NjYXBlOmNvbm5lY3Rvci1jdXJ2YXR1cmU9IjAiIHN0eWxlPSJmaWxsOiNGRkZGRkY7IiBkPSJNMS4yMiw2OS41M0MwLjU1LDY5LjUzLDAsNzAuMDgsMCw3MC43NXYzLjY2ICAgICAgIGMwLDAuNjcsMC41NSwxLjIyLDEuMjIsMS4yMnMxLjIyLTAuNTUsMS4yMi0xLjIydi0zLjY2QzIuNDQsNzAuMDgsMS44OSw2OS41MywxLjIyLDY5LjUzeiIvPiYjeGE7CQkJCTwvZz4mI3hhOwkJCTwvZz4mI3hhOwkJCTxnIGlkPSJncm91cDEwODUtMTQiPiYjeGE7CQkJCTx0aXRsZSBpZD0idGl0bGUxODE1NDYiPlNoZWV0LjEwODU8L3RpdGxlPiYjeGE7CQkJCTxnIGlkPSJzaGFwZTEwODYtMTUiPiYjeGE7CQkJCQk8dGl0bGUgaWQ9InRpdGxlMTgxNTQ4Ij5TaGVldC4xMDg2PC90aXRsZT4mI3hhOwkJCQkJPHBhdGggaWQ9InBhdGgxODE1NTAiIGlua3NjYXBlOmNvbm5lY3Rvci1jdXJ2YXR1cmU9IjAiIHN0eWxlPSJmaWxsOiNGRkZGRkY7IiBkPSJNOC4yNCw2MS44djEwLjQ5YzAsMC42My0wLjEyLDEuMTYtMC4zNSwxLjU5ICAgICAgIGMtMC4yMywwLjQ0LTAuNTQsMC43OC0wLjkzLDEuMDVjLTAuMzksMC4yNi0wLjg0LDAuNDQtMS4zNCwwLjU0Yy0wLjUxLDAuMTEtMS4wMywwLjE2LTEuNTYsMC4xNmMtMC4yNywwLTAuNTktMC4wMy0wLjk1LTAuMDggICAgICAgQzIuNzYsNzUuNDksMi4zOCw3NS40MSwyLDc1LjI5cy0wLjc1LTAuMjUtMS4xLTAuMzljLTAuMzYtMC4xNS0wLjY2LTAuMzEtMC45LTAuNWwwLjkzLTEuNDdjMC4xMiwwLjA4LDAuMywwLjE3LDAuNTIsMC4yNiAgICAgICBjMC4yMywwLjA5LDAuNDgsMC4xOCwwLjc0LDAuMjVjMC4yNywwLjA4LDAuNTUsMC4xNSwwLjg0LDAuMjFjMC4zLDAuMDcsMC41NywwLjEsMC44MiwwLjFjMC42NSwwLDEuMTYtMC4xMywxLjU1LTAuMzggICAgICAgYzAuMzgtMC4yNSwwLjU4LTAuNjcsMC42MS0xLjI3VjYxLjhIOC4yNHoiLz4mI3hhOwkJCQk8L2c+JiN4YTsJCQkJPGcgaWQ9InNoYXBlMTA4Ny0xNyIgdHJhbnNmb3JtPSJ0cmFuc2xhdGUoMTEuMzI0NywtMC4wMTg3MDUyKSI+JiN4YTsJCQkJCTx0aXRsZSBpZD0idGl0bGUxODE1NTMiPlNoZWV0LjEwODc8L3RpdGxlPiYjeGE7CQkJCQk8cGF0aCBpZD0icGF0aDE4MTU1NSIgaW5rc2NhcGU6Y29ubmVjdG9yLWN1cnZhdHVyZT0iMCIgc3R5bGU9ImZpbGw6I0ZGRkZGRjsiIGQ9Ik03LjgyLDcxLjg3YzAsMC40OC0wLjEsMC45NS0wLjMsMS40MSAgICAgICBjLTAuMiwwLjQ2LTAuNDksMC44Ni0wLjg1LDEuMjFjLTAuMzcsMC4zNC0wLjgyLDAuNjItMS4zNSwwLjgzYy0wLjU0LDAuMjEtMS4xNSwwLjMxLTEuODMsMC4zMWMtMC4yOSwwLTAuNTktMC4wMi0wLjktMC4wNSAgICAgICBjLTAuMzItMC4wMy0wLjYzLTAuMDgtMC45NS0wLjE1Yy0wLjMxLTAuMDgtMC42MS0wLjE4LTAuOS0wLjNDMC40NSw3NSwwLjIxLDc0Ljg0LDAsNzQuNjZsMC4zOC0xLjU3ICAgICAgIGMwLjE3LDAuMSwwLjM5LDAuMTksMC42NSwwLjI4czAuNTMsMC4xOCwwLjgxLDAuMjZzMC41NiwwLjE0LDAuODQsMC4xOXMwLjU1LDAuMDcsMC43OSwwLjA3YzAuNzQsMCwxLjMxLTAuMTcsMS43MS0wLjUyICAgICAgIGMwLjM5LTAuMzUsMC41OS0wLjg2LDAuNTktMS41NGMwLTAuNDItMC4xNC0wLjc3LTAuNDItMS4wNmMtMC4yOC0wLjI5LTAuNjMtMC41Ni0xLjA1LTAuOGMtMC40Mi0wLjIzLTAuODctMC40Ny0xLjM2LTAuNzEgICAgICAgQzIuNDUsNjkuMDIsMiw2OC43NCwxLjU3LDY4LjQycy0wLjc4LTAuNy0xLjA2LTEuMTRzLTAuNDItMC45OS0wLjQyLTEuNjRjMC0wLjYsMC4xMS0xLjEzLDAuMzMtMS41OXMwLjUxLTAuODYsMC44OS0xLjE4ICAgICAgIGMwLjM3LTAuMzIsMC44LTAuNTcsMS4yOS0wLjc0YzAuNS0wLjE3LDEuMDItMC4yNiwxLjU2LTAuMjZjMC41NiwwLDEuMTMsMC4wNiwxLjcsMC4xNnMxLjA0LDAuMjcsMS4zOSwwLjUgICAgICAgQzcuMTgsNjIuNjksNy4wOSw2Mi44Niw3LDYzLjA1Yy0wLjEsMC4xOS0wLjE5LDAuMzctMC4yOCwwLjUzYy0wLjA4LDAuMTctMC4xNiwwLjMtMC4yMiwwLjQxYy0wLjA2LDAuMTEtMC4wOSwwLjE3LTAuMTEsMC4xOSAgICAgICBjLTAuMDctMC4wNC0wLjE1LTAuMDktMC4yNC0wLjE1Yy0wLjEtMC4wNi0wLjIzLTAuMTItMC40LTAuMThjLTAuMTctMC4wNi0wLjM5LTAuMTEtMC42Ny0wLjEzQzQuOCw2My42OSw0LjQ0LDYzLjcsNCw2My43NCAgICAgICBjLTAuMjUsMC4wMi0wLjQ4LDAuMDktMC43LDAuMjFjLTAuMjIsMC4xMS0wLjQxLDAuMjYtMC41OCwwLjQzYy0wLjE3LDAuMTctMC4zMSwwLjM2LTAuNCwwLjU3Yy0wLjEsMC4yMi0wLjE1LDAuNDItMC4xNSwwLjYxICAgICAgIGMwLDAuNDksMC4xNCwwLjg4LDAuNDIsMS4xOHMwLjYzLDAuNTYsMS4wNCwwLjc5YzAuNDEsMC4yMiwwLjg3LDAuNDQsMS4zNSwwLjY2YzAuNDksMC4yMSwwLjk0LDAuNDcsMS4zNywwLjc3ICAgICAgIGMwLjQyLDAuMzEsMC43NiwwLjY5LDEuMDUsMS4xNEM3LjY4LDcwLjU2LDcuODIsNzEuMTUsNy44Miw3MS44N3oiLz4mI3hhOwkJCQk8L2c+JiN4YTsJCQkJPGcgaWQ9InNoYXBlMTA4OC0xOSIgdHJhbnNmb3JtPSJ0cmFuc2xhdGUoMjEuMTU0MykiPiYjeGE7CQkJCQk8dGl0bGUgaWQ9InRpdGxlMTgxNTU4Ij5TaGVldC4xMDg4PC90aXRsZT4mI3hhOwkJCQkJPHBhdGggaWQ9InBhdGgxODE1NjAiIGlua3NjYXBlOmNvbm5lY3Rvci1jdXJ2YXR1cmU9IjAiIHN0eWxlPSJmaWxsOiNGRkZGRkY7IiBkPSJNMTEuMjIsNjguNzRjMCwxLjEzLTAuMTUsMi4xMy0wLjQzLDMgICAgICAgYy0wLjI5LDAuODYtMC42OSwxLjU4LTEuMTksMi4xNWMtMC41MSwwLjU3LTEuMSwxLjAxLTEuNzcsMS4zYy0wLjY4LDAuMjktMS40MiwwLjQ0LTIuMjIsMC40NGMtMC44MSwwLTEuNTUtMC4xNS0yLjIyLTAuNDQgICAgICAgYy0wLjY4LTAuMjktMS4yNy0wLjcyLTEuNzctMS4zYy0wLjUxLTAuNTctMC45MS0xLjI5LTEuMTktMi4xNUMwLjE0LDcwLjg3LDAsNjkuODcsMCw2OC43NGMwLTEuMTMsMC4xNC0yLjEzLDAuNDMtMi45OCAgICAgICBjMC4yOC0wLjg2LDAuNjgtMS41OCwxLjE5LTIuMTVjMC41LTAuNTcsMS4wOS0xLjAxLDEuNzctMS4zMWMwLjY3LTAuMywxLjQxLTAuNDQsMi4yMi0wLjQ0YzAuOCwwLDEuNTQsMC4xNCwyLjIyLDAuNDQgICAgICAgYzAuNjcsMC4zLDEuMjYsMC43NCwxLjc3LDEuMzFjMC41LDAuNTcsMC45LDEuMjksMS4xOSwyLjE1QzExLjA3LDY2LjYxLDExLjIyLDY3LjYxLDExLjIyLDY4Ljc0eiBNNS41NSw3My44NCAgICAgICBjMC40NSwwLDAuODgtMC4wOSwxLjI5LTAuMjdjMC40MS0wLjE3LDAuNzctMC40NiwxLjEtMC44NmMwLjMyLTAuNCwwLjU3LTAuOTMsMC43NS0xLjU4YzAuMTktMC42NiwwLjI4LTEuNDUsMC4zLTIuMzkgICAgICAgYy0wLjAyLTAuOTEtMC4xMS0xLjY5LTAuMjktMi4zM2MtMC4xNy0wLjYzLTAuNDItMS4xNi0wLjczLTEuNThjLTAuMzEtMC40MS0wLjY2LTAuNzEtMS4wNi0wLjg5ICAgICAgIGMtMC4zOS0wLjE4LTAuODEtMC4yOC0xLjI1LTAuMjhjLTAuNDUsMC0wLjg4LDAuMDktMS4yOSwwLjI2cy0wLjc3LDAuNDYtMS4wOSwwLjg3Yy0wLjMyLDAuNC0wLjU4LDAuOTMtMC43NiwxLjU4ICAgICAgIGMtMC4xOCwwLjY0LTAuMjgsMS40My0wLjI5LDIuMzdjMC4wMSwwLjkyLDAuMSwxLjY5LDAuMjgsMi4zNGMwLjE4LDAuNjUsMC40MiwxLjE3LDAuNzMsMS41OHMwLjY3LDAuNzEsMS4wNiwwLjkgICAgICAgQzQuNyw3My43NSw1LjExLDczLjg0LDUuNTUsNzMuODR6Ii8+JiN4YTsJCQkJPC9nPiYjeGE7CQkJCTxnIGlkPSJzaGFwZTEwODktMjEiIHRyYW5zZm9ybT0idHJhbnNsYXRlKDM1LjQ1NzEsLTAuMDkwODU0MSkiPiYjeGE7CQkJCQk8dGl0bGUgaWQ9InRpdGxlMTgxNTYzIj5TaGVldC4xMDg5PC90aXRsZT4mI3hhOwkJCQkJPHBhdGggaWQ9InBhdGgxODE1NjUiIGlua3NjYXBlOmNvbm5lY3Rvci1jdXJ2YXR1cmU9IjAiIHN0eWxlPSJmaWxsOiNGRkZGRkY7IiBkPSJNOS43NCw2Mi4xN3YxMy40Nkg3LjUxbC01LjI4LTkuMjh2OS4yOEgwICAgICAgIFY2Mi4xN2gyLjIzbDUuMjgsOS4yN3YtOS4yN0w5Ljc0LDYyLjE3eiIvPiYjeGE7CQkJCTwvZz4mI3hhOwkJCTwvZz4mI3hhOwkJPC9nPiYjeGE7CTwvZz4mI3hhOzwvZz4mI3hhOzwvc3ZnPg==;" parent="1" vertex="1">
          <mxGeometry x="803" y="739.39" width="37" height="36.52" as="geometry" />
        </mxCell>
        <mxCell id="xZAcJMV6n3TPmo2zS2b6-31" value="" style="shape=image;verticalLabelPosition=bottom;labelBackgroundColor=#ffffff;verticalAlign=top;aspect=fixed;imageAspect=0;image=data:image/svg+xml,PHN2ZyB4bWxuczpjYz0iaHR0cDovL2NyZWF0aXZlY29tbW9ucy5vcmcvbnMjIiB4bWxuczpkYz0iaHR0cDovL3B1cmwub3JnL2RjL2VsZW1lbnRzLzEuMS8iIHhtbG5zOmlua3NjYXBlPSJodHRwOi8vd3d3Lmlua3NjYXBlLm9yZy9uYW1lc3BhY2VzL2lua3NjYXBlIiB4bWxuczpyZGY9Imh0dHA6Ly93d3cudzMub3JnLzE5OTkvMDIvMjItcmRmLXN5bnRheC1ucyMiIHhtbG5zOnNvZGlwb2RpPSJodHRwOi8vc29kaXBvZGkuc291cmNlZm9yZ2UubmV0L0RURC9zb2RpcG9kaS0wLmR0ZCIgeG1sbnM6c3ZnPSJodHRwOi8vd3d3LnczLm9yZy8yMDAwL3N2ZyIgeG1sbnM9Imh0dHA6Ly93d3cudzMub3JnLzIwMDAvc3ZnIiB4bWxuczp4bGluaz0iaHR0cDovL3d3dy53My5vcmcvMTk5OS94bGluayIgdmVyc2lvbj0iMS4xIiBpZD0ic3ZnMTgxNTczIiBpbmtzY2FwZTp2ZXJzaW9uPSIwLjkyLjMgKDI0MDU1NDYsIDIwMTgtMDMtMTEpIiBzb2RpcG9kaTpkb2NuYW1lPSJqc29uLnN2ZyIgeD0iMHB4IiB5PSIwcHgiIHZpZXdCb3g9IjAgMCA3Ni41IDc1LjYzIiBzdHlsZT0iZW5hYmxlLWJhY2tncm91bmQ6bmV3IDAgMCA3Ni41IDc1LjYzOyIgeG1sOnNwYWNlPSJwcmVzZXJ2ZSI+JiN4YTs8c29kaXBvZGk6bmFtZWR2aWV3IGJvcmRlcmNvbG9yPSIjNjY2NjY2IiBib3JkZXJvcGFjaXR5PSIxIiBmaXQtbWFyZ2luLWJvdHRvbT0iMCIgZml0LW1hcmdpbi1sZWZ0PSIwIiBmaXQtbWFyZ2luLXJpZ2h0PSIwIiBmaXQtbWFyZ2luLXRvcD0iMCIgZ3JpZHRvbGVyYW5jZT0iMTAiIGd1aWRldG9sZXJhbmNlPSIxMCIgaWQ9Im5hbWVkdmlldzE4MTU3NSIgaW5rc2NhcGU6Y3VycmVudC1sYXllcj0ic3ZnMTgxNTczIiBpbmtzY2FwZTpjeD0iNTEiIGlua3NjYXBlOmN5PSI1MC40MjEyNjciIGlua3NjYXBlOnBhZ2VvcGFjaXR5PSIwIiBpbmtzY2FwZTpwYWdlc2hhZG93PSIyIiBpbmtzY2FwZTp3aW5kb3ctaGVpZ2h0PSIxMDE3IiBpbmtzY2FwZTp3aW5kb3ctbWF4aW1pemVkPSIxIiBpbmtzY2FwZTp3aW5kb3ctd2lkdGg9IjE5MjAiIGlua3NjYXBlOndpbmRvdy14PSItOCIgaW5rc2NhcGU6d2luZG93LXk9Ii04IiBpbmtzY2FwZTp6b29tPSI4LjU5Nzk5NjkiIG9iamVjdHRvbGVyYW5jZT0iMTAiIHBhZ2Vjb2xvcj0iI2ZmZmZmZiIgc2hvd2dyaWQ9ImZhbHNlIj4mI3hhOwk8L3NvZGlwb2RpOm5hbWVkdmlldz4mI3hhOzxnIGlkPSJnMTgxNTcxIj4mI3hhOwk8dGl0bGUgaWQ9InRpdGxlMTgxNTEyIj5QYWdlLTE8L3RpdGxlPiYjeGE7CTxnIGlkPSJncm91cDEwNzctMSI+JiN4YTsJCTx0aXRsZSBpZD0idGl0bGUxODE1MTQiPkpTT048L3RpdGxlPiYjeGE7CQk8ZyBpZD0ic2hhcGUxMDc4LTIiPiYjeGE7CQkJPHRpdGxlIGlkPSJ0aXRsZTE4MTUxNiI+U2hlZXQuMTA3ODwvdGl0bGU+JiN4YTsJCQk8cGF0aCBpZD0icGF0aDE4MTUxOCIgaW5rc2NhcGU6Y29ubmVjdG9yLWN1cnZhdHVyZT0iMCIgc3R5bGU9ImZpbGw6Izk3NzdBODsiIGQ9Ik0wLDM3LjgxQzAsMTYuOTQsMTcuMTMsMCwzOC4yNSwwICAgICBDNTkuNDIsMCw3Ni41LDE2Ljk0LDc2LjUsMzcuODFjMCwyMC45My0xNy4wOCwzNy44Mi0zOC4yNSwzNy44MkMxNy4xMyw3NS42MywwLDU4Ljc0LDAsMzcuODF6Ii8+JiN4YTsJCTwvZz4mI3hhOwkJPGcgaWQ9Imdyb3VwMTA3OS00IiB0cmFuc2Zvcm09InRyYW5zbGF0ZSgxNS42NTM0LC0xNy4zOTk4KSI+JiN4YTsJCQk8dGl0bGUgaWQ9InRpdGxlMTgxNTIxIj5TaGVldC4xMDc5PC90aXRsZT4mI3hhOwkJCTxnIGlkPSJncm91cDEwODAtNSIgdHJhbnNmb3JtPSJ0cmFuc2xhdGUoNi43NDUzLC0xNi40NDE5KSI+JiN4YTsJCQkJPHRpdGxlIGlkPSJ0aXRsZTE4MTUyMyI+U2hlZXQuMTA4MDwvdGl0bGU+JiN4YTsJCQkJPGcgaWQ9InNoYXBlMTA4MS02Ij4mI3hhOwkJCQkJPHRpdGxlIGlkPSJ0aXRsZTE4MTUyNSI+U2hlZXQuMTA4MTwvdGl0bGU+JiN4YTsJCQkJCTxwYXRoIGlkPSJwYXRoMTgxNTI3IiBpbmtzY2FwZTpjb25uZWN0b3ItY3VydmF0dXJlPSIwIiBzdHlsZT0iZmlsbDojRkZGRkZGOyIgZD0iTTYuMSw1OS43OFY1NC45YzAtMC42NywwLjU0LTEuMjIsMS4yMi0xLjIyICAgICAgIGMwLjY3LDAsMS4yMi0wLjU1LDEuMjItMS4yMmMwLTAuNjctMC41NS0xLjIyLTEuMjItMS4yMmMtMi4wMiwwLTMuNjYsMS42NC0zLjY2LDMuNjZ2NC44OGMwLDEuMzQtMS4xLDIuNDQtMi40NCwyLjQ0ICAgICAgIEMwLjU1LDYyLjIyLDAsNjIuNzYsMCw2My40M2MwLDAuNjgsMC41NSwxLjIyLDEuMjIsMS4yMmMxLjM0LDAsMi40NCwxLjEsMi40NCwyLjQ0djQuODhjMCwyLjAyLDEuNjQsMy42NiwzLjY2LDMuNjYgICAgICAgYzAuNjcsMCwxLjIyLTAuNTUsMS4yMi0xLjIycy0wLjU1LTEuMjItMS4yMi0xLjIyYy0wLjY4LDAtMS4yMi0wLjU1LTEuMjItMS4yMnYtNC44OGMwLTEuNDYtMC42Ni0yLjc2LTEuNjktMy42NiAgICAgICBDNS40NCw2Mi41NCw2LjEsNjEuMjQsNi4xLDU5Ljc4eiIvPiYjeGE7CQkJCTwvZz4mI3hhOwkJCQk8ZyBpZD0ic2hhcGUxMDgyLTgiIHRyYW5zZm9ybT0idHJhbnNsYXRlKDE0LjAyMjMsLTE0LjYzMikiPiYjeGE7CQkJCQk8dGl0bGUgaWQ9InRpdGxlMTgxNTMwIj5TaGVldC4xMDgyPC90aXRsZT4mI3hhOwkJCQkJPGNpcmNsZSBpZD0iZWxsaXBzZTE4MTUzMiIgc3R5bGU9ImZpbGw6I0ZGRkZGRjsiIGN4PSIxLjgzIiBjeT0iNzMuOCIgcj0iMS44MyIvPiYjeGE7CQkJCTwvZz4mI3hhOwkJCQk8ZyBpZD0ic2hhcGUxMDgzLTEwIiB0cmFuc2Zvcm09InRyYW5zbGF0ZSgyMy4xNjczKSI+JiN4YTsJCQkJCTx0aXRsZSBpZD0idGl0bGUxODE1MzUiPlNoZWV0LjEwODM8L3RpdGxlPiYjeGE7CQkJCQk8cGF0aCBpZD0icGF0aDE4MTUzNyIgaW5rc2NhcGU6Y29ubmVjdG9yLWN1cnZhdHVyZT0iMCIgc3R5bGU9ImZpbGw6I0ZGRkZGRjsiIGQ9Ik03LjMyLDYyLjIyYy0xLjM1LDAtMi40NC0xLjEtMi40NC0yLjQ0VjU0LjkgICAgICAgYzAtMi4wMi0xLjY0LTMuNjYtMy42Ni0zLjY2QzAuNTUsNTEuMjQsMCw1MS43OSwwLDUyLjQ2YzAsMC42NywwLjU1LDEuMjIsMS4yMiwxLjIyczEuMjIsMC41NSwxLjIyLDEuMjJ2NC44OCAgICAgICBjMCwxLjQ2LDAuNjYsMi43NiwxLjY4LDMuNjVjLTEuMDIsMC45LTEuNjgsMi4yLTEuNjgsMy42NnY0Ljg4YzAsMC42Ny0wLjU1LDEuMjItMS4yMiwxLjIyUzAsNzMuNzQsMCw3NC40MSAgICAgICBzMC41NSwxLjIyLDEuMjIsMS4yMmMyLjAyLDAsMy42Ni0xLjY0LDMuNjYtMy42NnYtNC44OGMwLTEuMzQsMS4wOS0yLjQ0LDIuNDQtMi40NGMwLjY3LDAsMS4yMi0wLjU0LDEuMjItMS4yMiAgICAgICBDOC41NCw2Mi43Niw3Ljk5LDYyLjIyLDcuMzIsNjIuMjJ6Ii8+JiN4YTsJCQkJPC9nPiYjeGE7CQkJCTxnIGlkPSJzaGFwZTEwODQtMTIiIHRyYW5zZm9ybT0idHJhbnNsYXRlKDE0LjYzMiwtMy42NTc5OSkiPiYjeGE7CQkJCQk8dGl0bGUgaWQ9InRpdGxlMTgxNTQwIj5TaGVldC4xMDg0PC90aXRsZT4mI3hhOwkJCQkJPHBhdGggaWQ9InBhdGgxODE1NDIiIGlua3NjYXBlOmNvbm5lY3Rvci1jdXJ2YXR1cmU9IjAiIHN0eWxlPSJmaWxsOiNGRkZGRkY7IiBkPSJNMS4yMiw2OS41M0MwLjU1LDY5LjUzLDAsNzAuMDgsMCw3MC43NXYzLjY2ICAgICAgIGMwLDAuNjcsMC41NSwxLjIyLDEuMjIsMS4yMnMxLjIyLTAuNTUsMS4yMi0xLjIydi0zLjY2QzIuNDQsNzAuMDgsMS44OSw2OS41MywxLjIyLDY5LjUzeiIvPiYjeGE7CQkJCTwvZz4mI3hhOwkJCTwvZz4mI3hhOwkJCTxnIGlkPSJncm91cDEwODUtMTQiPiYjeGE7CQkJCTx0aXRsZSBpZD0idGl0bGUxODE1NDYiPlNoZWV0LjEwODU8L3RpdGxlPiYjeGE7CQkJCTxnIGlkPSJzaGFwZTEwODYtMTUiPiYjeGE7CQkJCQk8dGl0bGUgaWQ9InRpdGxlMTgxNTQ4Ij5TaGVldC4xMDg2PC90aXRsZT4mI3hhOwkJCQkJPHBhdGggaWQ9InBhdGgxODE1NTAiIGlua3NjYXBlOmNvbm5lY3Rvci1jdXJ2YXR1cmU9IjAiIHN0eWxlPSJmaWxsOiNGRkZGRkY7IiBkPSJNOC4yNCw2MS44djEwLjQ5YzAsMC42My0wLjEyLDEuMTYtMC4zNSwxLjU5ICAgICAgIGMtMC4yMywwLjQ0LTAuNTQsMC43OC0wLjkzLDEuMDVjLTAuMzksMC4yNi0wLjg0LDAuNDQtMS4zNCwwLjU0Yy0wLjUxLDAuMTEtMS4wMywwLjE2LTEuNTYsMC4xNmMtMC4yNywwLTAuNTktMC4wMy0wLjk1LTAuMDggICAgICAgQzIuNzYsNzUuNDksMi4zOCw3NS40MSwyLDc1LjI5cy0wLjc1LTAuMjUtMS4xLTAuMzljLTAuMzYtMC4xNS0wLjY2LTAuMzEtMC45LTAuNWwwLjkzLTEuNDdjMC4xMiwwLjA4LDAuMywwLjE3LDAuNTIsMC4yNiAgICAgICBjMC4yMywwLjA5LDAuNDgsMC4xOCwwLjc0LDAuMjVjMC4yNywwLjA4LDAuNTUsMC4xNSwwLjg0LDAuMjFjMC4zLDAuMDcsMC41NywwLjEsMC44MiwwLjFjMC42NSwwLDEuMTYtMC4xMywxLjU1LTAuMzggICAgICAgYzAuMzgtMC4yNSwwLjU4LTAuNjcsMC42MS0xLjI3VjYxLjhIOC4yNHoiLz4mI3hhOwkJCQk8L2c+JiN4YTsJCQkJPGcgaWQ9InNoYXBlMTA4Ny0xNyIgdHJhbnNmb3JtPSJ0cmFuc2xhdGUoMTEuMzI0NywtMC4wMTg3MDUyKSI+JiN4YTsJCQkJCTx0aXRsZSBpZD0idGl0bGUxODE1NTMiPlNoZWV0LjEwODc8L3RpdGxlPiYjeGE7CQkJCQk8cGF0aCBpZD0icGF0aDE4MTU1NSIgaW5rc2NhcGU6Y29ubmVjdG9yLWN1cnZhdHVyZT0iMCIgc3R5bGU9ImZpbGw6I0ZGRkZGRjsiIGQ9Ik03LjgyLDcxLjg3YzAsMC40OC0wLjEsMC45NS0wLjMsMS40MSAgICAgICBjLTAuMiwwLjQ2LTAuNDksMC44Ni0wLjg1LDEuMjFjLTAuMzcsMC4zNC0wLjgyLDAuNjItMS4zNSwwLjgzYy0wLjU0LDAuMjEtMS4xNSwwLjMxLTEuODMsMC4zMWMtMC4yOSwwLTAuNTktMC4wMi0wLjktMC4wNSAgICAgICBjLTAuMzItMC4wMy0wLjYzLTAuMDgtMC45NS0wLjE1Yy0wLjMxLTAuMDgtMC42MS0wLjE4LTAuOS0wLjNDMC40NSw3NSwwLjIxLDc0Ljg0LDAsNzQuNjZsMC4zOC0xLjU3ICAgICAgIGMwLjE3LDAuMSwwLjM5LDAuMTksMC42NSwwLjI4czAuNTMsMC4xOCwwLjgxLDAuMjZzMC41NiwwLjE0LDAuODQsMC4xOXMwLjU1LDAuMDcsMC43OSwwLjA3YzAuNzQsMCwxLjMxLTAuMTcsMS43MS0wLjUyICAgICAgIGMwLjM5LTAuMzUsMC41OS0wLjg2LDAuNTktMS41NGMwLTAuNDItMC4xNC0wLjc3LTAuNDItMS4wNmMtMC4yOC0wLjI5LTAuNjMtMC41Ni0xLjA1LTAuOGMtMC40Mi0wLjIzLTAuODctMC40Ny0xLjM2LTAuNzEgICAgICAgQzIuNDUsNjkuMDIsMiw2OC43NCwxLjU3LDY4LjQycy0wLjc4LTAuNy0xLjA2LTEuMTRzLTAuNDItMC45OS0wLjQyLTEuNjRjMC0wLjYsMC4xMS0xLjEzLDAuMzMtMS41OXMwLjUxLTAuODYsMC44OS0xLjE4ICAgICAgIGMwLjM3LTAuMzIsMC44LTAuNTcsMS4yOS0wLjc0YzAuNS0wLjE3LDEuMDItMC4yNiwxLjU2LTAuMjZjMC41NiwwLDEuMTMsMC4wNiwxLjcsMC4xNnMxLjA0LDAuMjcsMS4zOSwwLjUgICAgICAgQzcuMTgsNjIuNjksNy4wOSw2Mi44Niw3LDYzLjA1Yy0wLjEsMC4xOS0wLjE5LDAuMzctMC4yOCwwLjUzYy0wLjA4LDAuMTctMC4xNiwwLjMtMC4yMiwwLjQxYy0wLjA2LDAuMTEtMC4wOSwwLjE3LTAuMTEsMC4xOSAgICAgICBjLTAuMDctMC4wNC0wLjE1LTAuMDktMC4yNC0wLjE1Yy0wLjEtMC4wNi0wLjIzLTAuMTItMC40LTAuMThjLTAuMTctMC4wNi0wLjM5LTAuMTEtMC42Ny0wLjEzQzQuOCw2My42OSw0LjQ0LDYzLjcsNCw2My43NCAgICAgICBjLTAuMjUsMC4wMi0wLjQ4LDAuMDktMC43LDAuMjFjLTAuMjIsMC4xMS0wLjQxLDAuMjYtMC41OCwwLjQzYy0wLjE3LDAuMTctMC4zMSwwLjM2LTAuNCwwLjU3Yy0wLjEsMC4yMi0wLjE1LDAuNDItMC4xNSwwLjYxICAgICAgIGMwLDAuNDksMC4xNCwwLjg4LDAuNDIsMS4xOHMwLjYzLDAuNTYsMS4wNCwwLjc5YzAuNDEsMC4yMiwwLjg3LDAuNDQsMS4zNSwwLjY2YzAuNDksMC4yMSwwLjk0LDAuNDcsMS4zNywwLjc3ICAgICAgIGMwLjQyLDAuMzEsMC43NiwwLjY5LDEuMDUsMS4xNEM3LjY4LDcwLjU2LDcuODIsNzEuMTUsNy44Miw3MS44N3oiLz4mI3hhOwkJCQk8L2c+JiN4YTsJCQkJPGcgaWQ9InNoYXBlMTA4OC0xOSIgdHJhbnNmb3JtPSJ0cmFuc2xhdGUoMjEuMTU0MykiPiYjeGE7CQkJCQk8dGl0bGUgaWQ9InRpdGxlMTgxNTU4Ij5TaGVldC4xMDg4PC90aXRsZT4mI3hhOwkJCQkJPHBhdGggaWQ9InBhdGgxODE1NjAiIGlua3NjYXBlOmNvbm5lY3Rvci1jdXJ2YXR1cmU9IjAiIHN0eWxlPSJmaWxsOiNGRkZGRkY7IiBkPSJNMTEuMjIsNjguNzRjMCwxLjEzLTAuMTUsMi4xMy0wLjQzLDMgICAgICAgYy0wLjI5LDAuODYtMC42OSwxLjU4LTEuMTksMi4xNWMtMC41MSwwLjU3LTEuMSwxLjAxLTEuNzcsMS4zYy0wLjY4LDAuMjktMS40MiwwLjQ0LTIuMjIsMC40NGMtMC44MSwwLTEuNTUtMC4xNS0yLjIyLTAuNDQgICAgICAgYy0wLjY4LTAuMjktMS4yNy0wLjcyLTEuNzctMS4zYy0wLjUxLTAuNTctMC45MS0xLjI5LTEuMTktMi4xNUMwLjE0LDcwLjg3LDAsNjkuODcsMCw2OC43NGMwLTEuMTMsMC4xNC0yLjEzLDAuNDMtMi45OCAgICAgICBjMC4yOC0wLjg2LDAuNjgtMS41OCwxLjE5LTIuMTVjMC41LTAuNTcsMS4wOS0xLjAxLDEuNzctMS4zMWMwLjY3LTAuMywxLjQxLTAuNDQsMi4yMi0wLjQ0YzAuOCwwLDEuNTQsMC4xNCwyLjIyLDAuNDQgICAgICAgYzAuNjcsMC4zLDEuMjYsMC43NCwxLjc3LDEuMzFjMC41LDAuNTcsMC45LDEuMjksMS4xOSwyLjE1QzExLjA3LDY2LjYxLDExLjIyLDY3LjYxLDExLjIyLDY4Ljc0eiBNNS41NSw3My44NCAgICAgICBjMC40NSwwLDAuODgtMC4wOSwxLjI5LTAuMjdjMC40MS0wLjE3LDAuNzctMC40NiwxLjEtMC44NmMwLjMyLTAuNCwwLjU3LTAuOTMsMC43NS0xLjU4YzAuMTktMC42NiwwLjI4LTEuNDUsMC4zLTIuMzkgICAgICAgYy0wLjAyLTAuOTEtMC4xMS0xLjY5LTAuMjktMi4zM2MtMC4xNy0wLjYzLTAuNDItMS4xNi0wLjczLTEuNThjLTAuMzEtMC40MS0wLjY2LTAuNzEtMS4wNi0wLjg5ICAgICAgIGMtMC4zOS0wLjE4LTAuODEtMC4yOC0xLjI1LTAuMjhjLTAuNDUsMC0wLjg4LDAuMDktMS4yOSwwLjI2cy0wLjc3LDAuNDYtMS4wOSwwLjg3Yy0wLjMyLDAuNC0wLjU4LDAuOTMtMC43NiwxLjU4ICAgICAgIGMtMC4xOCwwLjY0LTAuMjgsMS40My0wLjI5LDIuMzdjMC4wMSwwLjkyLDAuMSwxLjY5LDAuMjgsMi4zNGMwLjE4LDAuNjUsMC40MiwxLjE3LDAuNzMsMS41OHMwLjY3LDAuNzEsMS4wNiwwLjkgICAgICAgQzQuNyw3My43NSw1LjExLDczLjg0LDUuNTUsNzMuODR6Ii8+JiN4YTsJCQkJPC9nPiYjeGE7CQkJCTxnIGlkPSJzaGFwZTEwODktMjEiIHRyYW5zZm9ybT0idHJhbnNsYXRlKDM1LjQ1NzEsLTAuMDkwODU0MSkiPiYjeGE7CQkJCQk8dGl0bGUgaWQ9InRpdGxlMTgxNTYzIj5TaGVldC4xMDg5PC90aXRsZT4mI3hhOwkJCQkJPHBhdGggaWQ9InBhdGgxODE1NjUiIGlua3NjYXBlOmNvbm5lY3Rvci1jdXJ2YXR1cmU9IjAiIHN0eWxlPSJmaWxsOiNGRkZGRkY7IiBkPSJNOS43NCw2Mi4xN3YxMy40Nkg3LjUxbC01LjI4LTkuMjh2OS4yOEgwICAgICAgIFY2Mi4xN2gyLjIzbDUuMjgsOS4yN3YtOS4yN0w5Ljc0LDYyLjE3eiIvPiYjeGE7CQkJCTwvZz4mI3hhOwkJCTwvZz4mI3hhOwkJPC9nPiYjeGE7CTwvZz4mI3hhOzwvZz4mI3hhOzwvc3ZnPg==;" parent="1" vertex="1">
          <mxGeometry x="-105.49000000000001" y="319" width="37.49" height="37" as="geometry" />
        </mxCell>
        <mxCell id="xZAcJMV6n3TPmo2zS2b6-34" value="" style="shape=image;verticalLabelPosition=bottom;labelBackgroundColor=#ffffff;verticalAlign=top;aspect=fixed;imageAspect=0;image=data:image/svg+xml,PHN2ZyB4bWxuczpjYz0iaHR0cDovL2NyZWF0aXZlY29tbW9ucy5vcmcvbnMjIiB4bWxuczpkYz0iaHR0cDovL3B1cmwub3JnL2RjL2VsZW1lbnRzLzEuMS8iIHhtbG5zOmlua3NjYXBlPSJodHRwOi8vd3d3Lmlua3NjYXBlLm9yZy9uYW1lc3BhY2VzL2lua3NjYXBlIiB4bWxuczpyZGY9Imh0dHA6Ly93d3cudzMub3JnLzE5OTkvMDIvMjItcmRmLXN5bnRheC1ucyMiIHhtbG5zOnNvZGlwb2RpPSJodHRwOi8vc29kaXBvZGkuc291cmNlZm9yZ2UubmV0L0RURC9zb2RpcG9kaS0wLmR0ZCIgeG1sbnM6c3ZnPSJodHRwOi8vd3d3LnczLm9yZy8yMDAwL3N2ZyIgeG1sbnM9Imh0dHA6Ly93d3cudzMub3JnLzIwMDAvc3ZnIiB4bWxuczp4bGluaz0iaHR0cDovL3d3dy53My5vcmcvMTk5OS94bGluayIgdmVyc2lvbj0iMS4xIiBpZD0ic3ZnMzg3NzciIGlua3NjYXBlOnZlcnNpb249IjAuOTIuMyAoMjQwNTU0NiwgMjAxOC0wMy0xMSkiIHNvZGlwb2RpOmRvY25hbWU9ImNzdi5zdmciIHg9IjBweCIgeT0iMHB4IiB2aWV3Qm94PSIwIDAgMjYuODUgMzUuMzIiIHN0eWxlPSJlbmFibGUtYmFja2dyb3VuZDpuZXcgMCAwIDI2Ljg1IDM1LjMyOyIgeG1sOnNwYWNlPSJwcmVzZXJ2ZSI+JiN4YTs8c29kaXBvZGk6bmFtZWR2aWV3IGJvcmRlcmNvbG9yPSIjNjY2NjY2IiBib3JkZXJvcGFjaXR5PSIxIiBmaXQtbWFyZ2luLWJvdHRvbT0iMCIgZml0LW1hcmdpbi1sZWZ0PSIwIiBmaXQtbWFyZ2luLXJpZ2h0PSIwIiBmaXQtbWFyZ2luLXRvcD0iMCIgZ3JpZHRvbGVyYW5jZT0iMTAiIGd1aWRldG9sZXJhbmNlPSIxMCIgaWQ9Im5hbWVkdmlldzM4Nzc5IiBpbmtzY2FwZTpjdXJyZW50LWxheWVyPSJzdmczODc3NyIgaW5rc2NhcGU6Y3g9IjE3Ljg5Nzg4NCIgaW5rc2NhcGU6Y3k9IjIzLjU0OTc1NiIgaW5rc2NhcGU6cGFnZW9wYWNpdHk9IjAiIGlua3NjYXBlOnBhZ2VzaGFkb3c9IjIiIGlua3NjYXBlOndpbmRvdy1oZWlnaHQ9IjEwMTciIGlua3NjYXBlOndpbmRvdy1tYXhpbWl6ZWQ9IjEiIGlua3NjYXBlOndpbmRvdy13aWR0aD0iMTkyMCIgaW5rc2NhcGU6d2luZG93LXg9Ii04IiBpbmtzY2FwZTp3aW5kb3cteT0iLTgiIGlua3NjYXBlOnpvb209IjExLjM3MjMzNiIgb2JqZWN0dG9sZXJhbmNlPSIxMCIgcGFnZWNvbG9yPSIjZmZmZmZmIiBzaG93Z3JpZD0iZmFsc2UiPiYjeGE7CTwvc29kaXBvZGk6bmFtZWR2aWV3PiYjeGE7PGcgaWQ9ImczODc3NSIgdHJhbnNmb3JtPSJ0cmFuc2xhdGUoLTEwLjkyODYsLTEwLjkzMTQpIj4mI3hhOwk8dGl0bGUgaWQ9InRpdGxlMzg3MjkiPlBhZ2UtMTwvdGl0bGU+JiN4YTsJPGcgaWQ9Imdyb3VwNDAxNi0xIiB0cmFuc2Zvcm09InRyYW5zbGF0ZSgxMC45Mjg2LC0xMC45Mjg2KSI+JiN4YTsJCTx0aXRsZSBpZD0idGl0bGUzODczMSI+Q1NWPC90aXRsZT4mI3hhOwkJPGcgaWQ9Imdyb3VwNDAxNy0yIj4mI3hhOwkJCTx0aXRsZSBpZD0idGl0bGUzODczMyI+U2hlZXQuNDAxNzwvdGl0bGU+JiN4YTsJCQk8ZyBpZD0ic2hhcGU0MDE4LTMiPiYjeGE7CQkJCTx0aXRsZSBpZD0idGl0bGUzODczNSI+U2hlZXQuNDAxODwvdGl0bGU+JiN4YTsJCQkJPHBhdGggaWQ9InBhdGgzODczNyIgaW5rc2NhcGU6Y29ubmVjdG9yLWN1cnZhdHVyZT0iMCIgc3R5bGU9ImZpbGw6I0U5RTlFMDsiIGQ9Ik0xOS4wMywyMS44NkgwLjkxYy0wLjUsMC0wLjkxLDAuNDEtMC45MSwxLjIxICAgICAgdjMzLjQ4YzAsMC4yMiwwLjQxLDAuNjMsMC45MSwwLjYzaDI1LjAyYzAuNTEsMCwwLjkyLTAuNDEsMC45Mi0wLjYzVjMwLjA0YzAtMC40NC0wLjA2LTAuNTgtMC4xNi0wLjY4bC03LjI3LTcuMzQgICAgICBDMTkuMzIsMjEuOTIsMTkuMTgsMjEuODYsMTkuMDMsMjEuODZ6Ii8+JiN4YTsJCQk8L2c+JiN4YTsJCQk8ZyBpZD0ic2hhcGU0MDE5LTUiIHRyYW5zZm9ybT0idHJhbnNsYXRlKDE5LjM1NDcsLTI3Ljc1MjMpIj4mI3hhOwkJCQk8dGl0bGUgaWQ9InRpdGxlMzg3NDAiPlNoZWV0LjQwMTk8L3RpdGxlPiYjeGE7CQkJCTxwYXRoIGlkPSJwYXRoMzg3NDIiIGlua3NjYXBlOmNvbm5lY3Rvci1jdXJ2YXR1cmU9IjAiIHN0eWxlPSJmaWxsOiNEOUQ3Q0E7IiBkPSJNMCw0OS43djcuNDhoNy40TDAsNDkuN3oiLz4mI3hhOwkJCTwvZz4mI3hhOwkJCTxnIGlkPSJzaGFwZTQwMjAtNyI+JiN4YTsJCQkJPHRpdGxlIGlkPSJ0aXRsZTM4NzQ1Ij5TaGVldC40MDIwPC90aXRsZT4mI3hhOwkJCQk8cGF0aCBpZD0icGF0aDM4NzQ3IiBpbmtzY2FwZTpjb25uZWN0b3ItY3VydmF0dXJlPSIwIiBzdHlsZT0iZmlsbDojRjMwQkEwOyIgZD0iTTI1LjkzLDU3LjE4SDAuOTFjLTAuNSwwLTAuOTEtMC40MS0wLjkxLTAuOTIgICAgICB2LTkuOGgyNi44NXY5LjhDMjYuODUsNTYuNzcsMjYuNDQsNTcuMTgsMjUuOTMsNTcuMTh6Ii8+JiN4YTsJCQk8L2c+JiN4YTsJCQk8ZyBpZD0iZ3JvdXA0MDIxLTkiIHRyYW5zZm9ybT0idHJhbnNsYXRlKDUuMDQ1MzQsLTEuODQ5MzEpIj4mI3hhOwkJCQk8dGl0bGUgaWQ9InRpdGxlMzg3NTAiPlNoZWV0LjQwMjE8L3RpdGxlPiYjeGE7CQkJCTxnIGlkPSJzaGFwZTQwMjItMTAiPiYjeGE7CQkJCQk8dGl0bGUgaWQ9InRpdGxlMzg3NTIiPlNoZWV0LjQwMjI8L3RpdGxlPiYjeGE7CQkJCQk8cGF0aCBpZD0icGF0aDM4NzU0IiBpbmtzY2FwZTpjb25uZWN0b3ItY3VydmF0dXJlPSIwIiBzdHlsZT0iZmlsbDojRkZGRkZGOyIgZD0iTTQuMzcsNTYuNDljLTAuMjMsMC4yMy0wLjUsMC40LTAuNzksMC41MiAgICAgICBjLTAuMywwLjExLTAuNjIsMC4xNy0wLjk2LDAuMTdjLTAuMzgsMC0wLjcyLTAuMDctMS4wNC0wLjIxYy0wLjMxLTAuMTQtMC41OS0wLjM0LTAuODItMC42MWMtMC4yNC0wLjI3LTAuNDMtMC42MS0wLjU2LTEuMDIgICAgICAgUzAsNTQuNDYsMCw1My45M2MwLTAuNTQsMC4wNy0xLjAxLDAuMi0xLjQxYzAuMTMtMC40MSwwLjMyLTAuNzUsMC41Ni0xLjAyYzAuMjMtMC4yNywwLjUxLTAuNDcsMC44My0wLjYxczAuNjYtMC4yMSwxLjAzLTAuMjEgICAgICAgYzAuMzQsMCwwLjY2LDAuMDUsMC45NiwwLjE3YzAuMjksMC4xMSwwLjU2LDAuMjksMC43OSwwLjUyTDMuNjYsNTJjLTAuMTQtMC4xNi0wLjMtMC4yOC0wLjQ3LTAuMzYgICAgICAgYy0wLjE4LTAuMDctMC4zNi0wLjExLTAuNTQtMC4xMWMtMC4yMiwwLTAuNDIsMC4wNC0wLjYxLDAuMTJjLTAuMTksMC4wOC0wLjM2LDAuMjItMC41MSwwLjQxcy0wLjI3LDAuNDQtMC4zNSwwLjc1ICAgICAgIGMtMC4wOSwwLjMtMC4xMywwLjY3LTAuMTQsMS4xMmMwLjAxLDAuNDMsMC4wNSwwLjgsMC4xMywxLjFjMC4wOSwwLjMxLDAuMiwwLjU1LDAuMzQsMC43NWMwLjE1LDAuMTksMC4zMSwwLjMzLDAuNSwwLjQyICAgICAgIGMwLjE4LDAuMDksMC4zOCwwLjEzLDAuNTgsMC4xM2MwLjIxLDAsMC40LTAuMDMsMC41OC0wLjExYzAuMTgtMC4wNywwLjM0LTAuMTksMC40OS0wLjM2TDQuMzcsNTYuNDl6Ii8+JiN4YTsJCQkJPC9nPiYjeGE7CQkJCTxnIGlkPSJzaGFwZTQwMjMtMTIiIHRyYW5zZm9ybT0idHJhbnNsYXRlKDUuNzQzMzYsLTAuMDA4ODMwMjcpIj4mI3hhOwkJCQkJPHRpdGxlIGlkPSJ0aXRsZTM4NzU3Ij5TaGVldC40MDIzPC90aXRsZT4mI3hhOwkJCQkJPHBhdGggaWQ9InBhdGgzODc1OSIgaW5rc2NhcGU6Y29ubmVjdG9yLWN1cnZhdHVyZT0iMCIgc3R5bGU9ImZpbGw6I0ZGRkZGRjsiIGQ9Ik0zLjY1LDU1LjRjMCwwLjIzLTAuMDQsMC40NS0wLjE0LDAuNjcgICAgICAgYy0wLjA5LDAuMjItMC4yMiwwLjQxLTAuMzksMC41N3MtMC4zOSwwLjI5LTAuNjQsMC4zOXMtMC41MywwLjE1LTAuODUsMC4xNWMtMC4xNCwwLTAuMjgtMC4wMS0wLjQyLTAuMDIgICAgICAgYy0wLjE1LTAuMDItMC4yOS0wLjA0LTAuNDQtMC4wOEMwLjYyLDU3LjA1LDAuNDgsNTcsMC4zNSw1Ni45NEMwLjIxLDU2Ljg4LDAuMSw1Ni44MSwwLDU2LjcybDAuMTgtMC43NCAgICAgICBjMC4wOCwwLjA1LDAuMTgsMC4wOSwwLjMsMC4xM2MwLjEyLDAuMDUsMC4yNSwwLjA5LDAuMzgsMC4xMmMwLjEzLDAuMDQsMC4yNiwwLjA3LDAuMzksMC4wOWMwLjEzLDAuMDMsMC4yNiwwLjA0LDAuMzcsMC4wNCAgICAgICBjMC4zNSwwLDAuNjEtMC4wOCwwLjgtMC4yNWMwLjE4LTAuMTYsMC4yOC0wLjQsMC4yOC0wLjczYzAtMC4xOS0wLjA3LTAuMzYtMC4yLTAuNWMtMC4xMy0wLjEzLTAuMjktMC4yNi0wLjQ5LTAuMzcgICAgICAgYy0wLjItMC4xMS0wLjQxLTAuMjItMC42NC0wLjM0Yy0wLjIyLTAuMTEtMC40NC0wLjI0LTAuNjQtMC4zOWMtMC4yLTAuMTYtMC4zNi0wLjM0LTAuNDktMC41NGMtMC4xMy0wLjIxLTAuMi0wLjQ3LTAuMi0wLjc4ICAgICAgIGMwLTAuMjgsMC4wNS0wLjUzLDAuMTYtMC43NWMwLjEtMC4yMiwwLjI0LTAuNCwwLjQxLTAuNTVjMC4xNy0wLjE2LDAuMzgtMC4yNywwLjYxLTAuMzVjMC4yMy0wLjA4LDAuNDctMC4xMiwwLjczLTAuMTIgICAgICAgczAuNTIsMC4wMiwwLjc5LDAuMDdTMy4yMiw1MC44OSwzLjM5LDUxYy0wLjA0LDAuMDctMC4wOCwwLjE1LTAuMTIsMC4yNGMtMC4wNSwwLjA5LTAuMDksMC4xNy0wLjEzLDAuMjUgICAgICAgYy0wLjA0LDAuMDgtMC4wNywwLjE0LTAuMSwwLjJjLTAuMDMsMC4wNS0wLjA1LDAuMDgtMC4wNSwwLjA4Yy0wLjA0LTAuMDEtMC4wNy0wLjA0LTAuMTItMC4wN2MtMC4wNC0wLjAzLTAuMS0wLjA1LTAuMTgtMC4wOCAgICAgICBjLTAuMDgtMC4wMy0wLjE5LTAuMDUtMC4zMi0wLjA2Yy0wLjEzLTAuMDItMC4zLTAuMDEtMC41LDAuMDFjLTAuMTIsMC4wMS0wLjIyLDAuMDQtMC4zMywwLjA5Yy0wLjEsMC4wNi0wLjE5LDAuMTMtMC4yNywwLjIxICAgICAgIGMtMC4wOCwwLjA4LTAuMTQsMC4xNy0wLjE5LDAuMjdjLTAuMDQsMC4xLTAuMDcsMC4yLTAuMDcsMC4yOWMwLDAuMjMsMC4wNywwLjQxLDAuMiwwLjU1YzAuMTMsMC4xNSwwLjI5LDAuMjcsMC40OSwwLjM3ICAgICAgIGMwLjE5LDAuMTEsMC40LDAuMjEsMC42MywwLjMyYzAuMjMsMC4xLDAuNDQsMC4yMiwwLjY0LDAuMzZjMC4xOSwwLjE0LDAuMzUsMC4zMywwLjQ5LDAuNTRDMy41OSw1NC43OSwzLjY1LDU1LjA2LDMuNjUsNTUuNHoiLz4mI3hhOwkJCQk8L2c+JiN4YTsJCQkJPGcgaWQ9InNoYXBlNDAyNC0xNCIgdHJhbnNmb3JtPSJ0cmFuc2xhdGUoMTAuMTkxMiwtMC4wMDgxOTk1MykiPiYjeGE7CQkJCQk8dGl0bGUgaWQ9InRpdGxlMzg3NjIiPlNoZWV0LjQwMjQ8L3RpdGxlPiYjeGE7CQkJCQk8cGF0aCBpZD0icGF0aDM4NzY0IiBpbmtzY2FwZTpjb25uZWN0b3ItY3VydmF0dXJlPSIwIiBzdHlsZT0iZmlsbDojRkZGRkZGOyIgZD0iTTEuOTUsNTcuMThMMCw1MC43OWgxLjE3bDEuNDYsNS40OGwxLjU0LTUuNDggICAgICAgaDEuMTdsLTIuMDUsNi4zOUgxLjk1eiIvPiYjeGE7CQkJCTwvZz4mI3hhOwkJCTwvZz4mI3hhOwkJCTxnIGlkPSJzaGFwZTQwMjUtMTYiIHRyYW5zZm9ybT0idHJhbnNsYXRlKDMuMTIxNzMsLTEzLjg3NjEpIj4mI3hhOwkJCQk8dGl0bGUgaWQ9InRpdGxlMzg3NjgiPlNoZWV0LjQwMjU8L3RpdGxlPiYjeGE7CQkJCTxwYXRoIGlkPSJwYXRoMzg3NzAiIGlua3NjYXBlOmNvbm5lY3Rvci1jdXJ2YXR1cmU9IjAiIHN0eWxlPSJmaWxsOiNDOEJEQjg7IiBkPSJNNy40OSw0NS44M1Y0My4zSDB2Mi41M3YxLjI2djEuMjZ2MS4yNnYxLjI2ICAgICAgdjEuMjZ2MS4yNnYxLjI3djIuNTJoNi4yNGgxLjI1SDIwLjZ2LTIuNTJ2LTEuMjd2LTEuMjZ2LTEuMjZ2LTEuMjZ2LTEuMjZ2LTIuNTJINy40OXogTTEuMjUsNDQuNTZoNC45OXYxLjI3SDEuMjVWNDQuNTZ6ICAgICAgIE0xLjI1LDQ3LjA5aDQuOTl2MS4yNkgxLjI1VjQ3LjA5eiBNMS4yNSw0OS42MWg0Ljk5djEuMjZIMS4yNVY0OS42MXogTTEuMjUsNTIuMTNoNC45OXYxLjI2SDEuMjVWNTIuMTN6IE02LjI0LDU1LjkySDEuMjUgICAgICB2LTEuMjZoNC45OVY1NS45MnogTTE5LjM1LDU1LjkySDcuNDl2LTEuMjZoMTEuODZWNTUuOTJ6IE0xOS4zNSw1My4zOUg3LjQ5di0xLjI2aDExLjg2VjUzLjM5eiBNMTkuMzUsNTAuODdINy40OXYtMS4yNmgxMS44NiAgICAgIEwxOS4zNSw1MC44N3ogTTcuNDksNDguMzV2LTEuMjZoMTEuODZ2MS4yNkg3LjQ5eiIvPiYjeGE7CQkJPC9nPiYjeGE7CQk8L2c+JiN4YTsJPC9nPiYjeGE7PC9nPiYjeGE7PC9zdmc+;" parent="1" vertex="1">
          <mxGeometry x="-3.5" y="319" width="27" height="35" as="geometry" />
        </mxCell>
        <mxCell id="xZAcJMV6n3TPmo2zS2b6-35" value="" style="shape=image;verticalLabelPosition=bottom;labelBackgroundColor=#ffffff;verticalAlign=top;aspect=fixed;imageAspect=0;image=data:image/svg+xml,PHN2ZyB4bWxuczpjYz0iaHR0cDovL2NyZWF0aXZlY29tbW9ucy5vcmcvbnMjIiB4bWxuczpkYz0iaHR0cDovL3B1cmwub3JnL2RjL2VsZW1lbnRzLzEuMS8iIHhtbG5zOmlua3NjYXBlPSJodHRwOi8vd3d3Lmlua3NjYXBlLm9yZy9uYW1lc3BhY2VzL2lua3NjYXBlIiB4bWxuczpyZGY9Imh0dHA6Ly93d3cudzMub3JnLzE5OTkvMDIvMjItcmRmLXN5bnRheC1ucyMiIHhtbG5zOnNvZGlwb2RpPSJodHRwOi8vc29kaXBvZGkuc291cmNlZm9yZ2UubmV0L0RURC9zb2RpcG9kaS0wLmR0ZCIgeG1sbnM6c3ZnPSJodHRwOi8vd3d3LnczLm9yZy8yMDAwL3N2ZyIgeG1sbnM9Imh0dHA6Ly93d3cudzMub3JnLzIwMDAvc3ZnIiB4bWxuczp4bGluaz0iaHR0cDovL3d3dy53My5vcmcvMTk5OS94bGluayIgdmVyc2lvbj0iMS4xIiBpZD0ic3ZnNDI5MjIiIGlua3NjYXBlOnZlcnNpb249IjAuOTIuMyAoMjQwNTU0NiwgMjAxOC0wMy0xMSkiIHNvZGlwb2RpOmRvY25hbWU9ImV4Y2VsXzEuc3ZnIiB4PSIwcHgiIHk9IjBweCIgdmlld0JveD0iMCAwIDMxLjg4IDM2LjQ0IiBzdHlsZT0iZW5hYmxlLWJhY2tncm91bmQ6bmV3IDAgMCAzMS44OCAzNi40NDsiIHhtbDpzcGFjZT0icHJlc2VydmUiPiYjeGE7PHNvZGlwb2RpOm5hbWVkdmlldyBib3JkZXJjb2xvcj0iIzY2NjY2NiIgYm9yZGVyb3BhY2l0eT0iMSIgZml0LW1hcmdpbi1ib3R0b209IjAiIGZpdC1tYXJnaW4tbGVmdD0iMCIgZml0LW1hcmdpbi1yaWdodD0iMCIgZml0LW1hcmdpbi10b3A9IjAiIGdyaWR0b2xlcmFuY2U9IjEwIiBndWlkZXRvbGVyYW5jZT0iMTAiIGlkPSJuYW1lZHZpZXc0MjkyNCIgaW5rc2NhcGU6Y3VycmVudC1sYXllcj0ic3ZnNDI5MjIiIGlua3NjYXBlOmN4PSIyMS4yNTQ2MzgiIGlua3NjYXBlOmN5PSIyNC4yOTQ4MzciIGlua3NjYXBlOnBhZ2VvcGFjaXR5PSIwIiBpbmtzY2FwZTpwYWdlc2hhZG93PSIyIiBpbmtzY2FwZTp3aW5kb3ctaGVpZ2h0PSIxMDE3IiBpbmtzY2FwZTp3aW5kb3ctbWF4aW1pemVkPSIxIiBpbmtzY2FwZTp3aW5kb3ctd2lkdGg9IjE5MjAiIGlua3NjYXBlOndpbmRvdy14PSItOCIgaW5rc2NhcGU6d2luZG93LXk9Ii04IiBpbmtzY2FwZTp6b29tPSIxNi43NDczMDEiIG9iamVjdHRvbGVyYW5jZT0iMTAiIHBhZ2Vjb2xvcj0iI2ZmZmZmZiIgc2hvd2dyaWQ9ImZhbHNlIj4mI3hhOwk8L3NvZGlwb2RpOm5hbWVkdmlldz4mI3hhOzxnIGlkPSJnNDI5MjAiIHRyYW5zZm9ybT0idHJhbnNsYXRlKC0xLjE5NTMxLC0xLjE5NDcyODUpIj4mI3hhOwk8dGl0bGUgaWQ9InRpdGxlNDI4NzIiPlBhZ2UtMTwvdGl0bGU+JiN4YTsJPGcgaWQ9Imdyb3VwNDA0Ny0xIiB0cmFuc2Zvcm09InRyYW5zbGF0ZSgxLjE5NTMxLC0xLjE5NTMxKSI+JiN4YTsJCTx0aXRsZSBpZD0idGl0bGU0Mjg3NCI+RXhjZWwgIzE8L3RpdGxlPiYjeGE7CQk8ZyBpZD0ic2hhcGU0MDQ4LTIiIHRyYW5zZm9ybT0idHJhbnNsYXRlKDQuNTU0NTYpIj4mI3hhOwkJCTx0aXRsZSBpZD0idGl0bGU0Mjg3NiI+U2hlZXQuNDA0ODwvdGl0bGU+JiN4YTsJCQk8cGF0aCBpZD0icGF0aDQyODc4IiBpbmtzY2FwZTpjb25uZWN0b3ItY3VydmF0dXJlPSIwIiBzdHlsZT0iZmlsbDojRTJFNUU3OyIgZD0iTTIuMjgsMi4zOUMxLjAyLDIuMzksMCwzLjQyLDAsNC42N3YzMS44OCAgICAgYzAsMS4yNSwxLjAyLDIuMjgsMi4yOCwyLjI4aDIyLjc3YzEuMjUsMCwyLjI4LTEuMDMsMi4yOC0yLjI4VjExLjVsLTkuMTEtOS4xMUgyLjI4eiIvPiYjeGE7CQk8L2c+JiN4YTsJCTxnIGlkPSJzaGFwZTQwNDktNCIgdHJhbnNmb3JtPSJ0cmFuc2xhdGUoMjIuNzcyOCwtMjcuMzI3NCkiPiYjeGE7CQkJPHRpdGxlIGlkPSJ0aXRsZTQyODgxIj5TaGVldC40MDQ5PC90aXRsZT4mI3hhOwkJCTxwYXRoIGlkPSJwYXRoNDI4ODMiIGlua3NjYXBlOmNvbm5lY3Rvci1jdXJ2YXR1cmU9IjAiIHN0eWxlPSJmaWxsOiNCMEI3QkQ7IiBkPSJNMi4yOCwzOC44M2g2LjgzTDAsMjkuNzJ2Ni44MyAgICAgQzAsMzcuOCwxLjAyLDM4LjgzLDIuMjgsMzguODN6Ii8+JiN4YTsJCTwvZz4mI3hhOwkJPGcgaWQ9InNoYXBlNDA1MC02IiB0cmFuc2Zvcm09InRyYW5zbGF0ZSgyNS4wNTAxLC0yMC40OTU1KSI+JiN4YTsJCQk8dGl0bGUgaWQ9InRpdGxlNDI4ODYiPlNoZWV0LjQwNTA8L3RpdGxlPiYjeGE7CQkJPHBhdGggaWQ9InBhdGg0Mjg4OCIgaW5rc2NhcGU6Y29ubmVjdG9yLWN1cnZhdHVyZT0iMCIgc3R5bGU9ImZpbGw6I0NBRDFEODsiIGQ9Ik02LjgzLDM4LjgzTDAsMzJoNi44M1YzOC44M3oiLz4mI3hhOwkJPC9nPiYjeGE7CQk8ZyBpZD0ic2hhcGU0MDUxLTgiIHRyYW5zZm9ybT0idHJhbnNsYXRlKDAsLTUuNjkzMikiPiYjeGE7CQkJPHRpdGxlIGlkPSJ0aXRsZTQyODkxIj5TaGVldC40MDUxPC90aXRsZT4mI3hhOwkJCTxwYXRoIGlkPSJwYXRoNDI4OTMiIGlua3NjYXBlOmNvbm5lY3Rvci1jdXJ2YXR1cmU9IjAiIHN0eWxlPSJmaWxsOiM5REJCNjE7IiBkPSJNMjcuMzMsMzcuNjljMCwwLjYyLTAuNTIsMS4xNC0xLjE0LDEuMTRIMS4xNCAgICAgQzAuNTEsMzguODMsMCwzOC4zMSwwLDM3LjY5VjI2LjNjMC0wLjYyLDAuNTEtMS4xNCwxLjE0LTEuMTRoMjUuMDVjMC42MiwwLDEuMTQsMC41MiwxLjE0LDEuMTRMMjcuMzMsMzcuNjl6Ii8+JiN4YTsJCTwvZz4mI3hhOwkJPGcgaWQ9Imdyb3VwNDA1Mi0xMCIgdHJhbnNmb3JtPSJ0cmFuc2xhdGUoNC44MzQ2NywtOC41MjYxNCkiPiYjeGE7CQkJPHRpdGxlIGlkPSJ0aXRsZTQyODk2Ij5TaGVldC40MDUyPC90aXRsZT4mI3hhOwkJCTxnIGlkPSJzaGFwZTQwNTMtMTEiIHRyYW5zZm9ybT0idHJhbnNsYXRlKDAsLTAuMTYzOTY0KSI+JiN4YTsJCQkJPHRpdGxlIGlkPSJ0aXRsZTQyODk4Ij5TaGVldC40MDUzPC90aXRsZT4mI3hhOwkJCQk8cGF0aCBpZD0icGF0aDQyOTAwIiBpbmtzY2FwZTpjb25uZWN0b3ItY3VydmF0dXJlPSIwIiBzdHlsZT0iZmlsbDojRkZGRkZGOyIgZD0iTTMuMTYsMzQuMjlsMS41OC0xLjk4ICAgICAgYzAuNDgtMC42MiwxLjQsMC4xNywwLjg4LDAuNzZjLTAuNTUsMC42NS0xLjEyLDEuMzUtMS42NywyLjA3bDEuODYsMi4zMWMwLjUsMC42OS0wLjUsMS4zNC0wLjk5LDAuNjdsLTEuNjgtMi4xNWwtMS42NSwyLjE5ICAgICAgYy0wLjQ2LDAuNjctMS40OS0wLjA4LTAuOTctMC43bDEuODMtMi4zMmMtMC41Ny0wLjcyLTEuMTMtMS40Mi0xLjY5LTIuMDdjLTAuNTctMC42OCwwLjUtMS4zOCwwLjkyLTAuNzRMMy4xNiwzNC4yOXoiLz4mI3hhOwkJCTwvZz4mI3hhOwkJCTxnIGlkPSJzaGFwZTQwNTQtMTMiIHRyYW5zZm9ybT0idHJhbnNsYXRlKDYuOTMzMTgsLTAuNTgyOTg0KSI+JiN4YTsJCQkJPHRpdGxlIGlkPSJ0aXRsZTQyOTAzIj5TaGVldC40MDU0PC90aXRsZT4mI3hhOwkJCQk8cGF0aCBpZD0icGF0aDQyOTA1IiBpbmtzY2FwZTpjb25uZWN0b3ItY3VydmF0dXJlPSIwIiBzdHlsZT0iZmlsbDojRkZGRkZGOyIgZD0iTTAsMzMuMDdjMC0wLjMsMC4yNi0wLjU1LDAuNTctMC41NSAgICAgIGMwLjMsMCwwLjU0LDAuMjUsMC41NCwwLjU1djQuNTZoMi40OGMwLjg5LDAsMC45MSwxLjIsMCwxLjJIMC41OEMwLjI2LDM4LjgzLDAsMzguNiwwLDM4LjI3VjMzLjA3eiIvPiYjeGE7CQkJPC9nPiYjeGE7CQkJPGcgaWQ9InNoYXBlNDA1NS0xNSIgdHJhbnNmb3JtPSJ0cmFuc2xhdGUoMTEuOTY0OCkiPiYjeGE7CQkJCTx0aXRsZSBpZD0idGl0bGU0MjkwOCI+U2hlZXQuNDA1NTwvdGl0bGU+JiN4YTsJCQkJPHBhdGggaWQ9InBhdGg0MjkxMCIgaW5rc2NhcGU6Y29ubmVjdG9yLWN1cnZhdHVyZT0iMCIgc3R5bGU9ImZpbGw6I0ZGRkZGRjsiIGQ9Ik0wLjI4LDMzLjMxYzAuMjEtMS43NywyLjg4LTIuMDgsNC4xNC0xLjEyICAgICAgYzAuNjIsMC41LTAuMDQsMS4yOS0wLjU5LDAuODljLTAuNjctMC40Mi0yLjItMC42Mi0yLjM5LDAuMzJjLTAuMjUsMS40OSwzLjcxLDAuNjQsMy42NSwzLjA2Yy0wLjA3LDIuMzEtMy40MiwyLjM3LTQuNjcsMS4zMyAgICAgIGMtMC4zLTAuMjUtMC4yOS0wLjY1LTAuMTMtMC44OWMwLjI0LTAuMjQsMC41LTAuMzIsMC44MS0wLjA3YzAuNzUsMC41MSwyLjY3LDAuOSwyLjgtMC40QzMuNzksMzUuMDksMCwzNS45LDAuMjgsMzMuMzF6Ii8+JiN4YTsJCQk8L2c+JiN4YTsJCTwvZz4mI3hhOwkJPGcgaWQ9InNoYXBlNDA1Ni0xNyIgdHJhbnNmb3JtPSJ0cmFuc2xhdGUoNC41NTQ1NiwtNC41NTQ1NikiPiYjeGE7CQkJPHRpdGxlIGlkPSJ0aXRsZTQyOTE0Ij5TaGVldC40MDU2PC90aXRsZT4mI3hhOwkJCTxwYXRoIGlkPSJwYXRoNDI5MTYiIGlua3NjYXBlOmNvbm5lY3Rvci1jdXJ2YXR1cmU9IjAiIHN0eWxlPSJmaWxsOiNDQUQxRDg7IiBkPSJNMjEuNjMsMzcuNjlIMHYxLjE0aDIxLjYzICAgICBjMC42MywwLDEuMTQtMC41MiwxLjE0LTEuMTR2LTEuMTRDMjIuNzcsMzcuMTgsMjIuMjYsMzcuNjksMjEuNjMsMzcuNjl6Ii8+JiN4YTsJCTwvZz4mI3hhOwk8L2c+JiN4YTs8L2c+JiN4YTs8L3N2Zz4=;" parent="1" vertex="1">
          <mxGeometry x="-105.49000000000001" y="377" width="32" height="36" as="geometry" />
        </mxCell>
        <mxCell id="xZAcJMV6n3TPmo2zS2b6-36" value="" style="shape=image;verticalLabelPosition=bottom;labelBackgroundColor=#ffffff;verticalAlign=top;aspect=fixed;imageAspect=0;image=data:image/svg+xml,PHN2ZyB4bWxuczpjYz0iaHR0cDovL2NyZWF0aXZlY29tbW9ucy5vcmcvbnMjIiB4bWxuczpkYz0iaHR0cDovL3B1cmwub3JnL2RjL2VsZW1lbnRzLzEuMS8iIHhtbG5zOmlua3NjYXBlPSJodHRwOi8vd3d3Lmlua3NjYXBlLm9yZy9uYW1lc3BhY2VzL2lua3NjYXBlIiB4bWxuczpyZGY9Imh0dHA6Ly93d3cudzMub3JnLzE5OTkvMDIvMjItcmRmLXN5bnRheC1ucyMiIHhtbG5zOnNvZGlwb2RpPSJodHRwOi8vc29kaXBvZGkuc291cmNlZm9yZ2UubmV0L0RURC9zb2RpcG9kaS0wLmR0ZCIgeG1sbnM6c3ZnPSJodHRwOi8vd3d3LnczLm9yZy8yMDAwL3N2ZyIgeG1sbnM9Imh0dHA6Ly93d3cudzMub3JnLzIwMDAvc3ZnIiB4bWxuczp4bGluaz0iaHR0cDovL3d3dy53My5vcmcvMTk5OS94bGluayIgdmVyc2lvbj0iMS4xIiBpZD0ic3ZnNDQ4MjAiIGlua3NjYXBlOnZlcnNpb249IjAuOTIuMyAoMjQwNTU0NiwgMjAxOC0wMy0xMSkiIHNvZGlwb2RpOmRvY25hbWU9ImZpbGUuc3ZnIiB4PSIwcHgiIHk9IjBweCIgdmlld0JveD0iMCAwIDI0Ljg1IDMyLjk4IiBzdHlsZT0iZW5hYmxlLWJhY2tncm91bmQ6bmV3IDAgMCAyNC44NSAzMi45ODsiIHhtbDpzcGFjZT0icHJlc2VydmUiPiYjeGE7PHNvZGlwb2RpOm5hbWVkdmlldyBib3JkZXJjb2xvcj0iIzY2NjY2NiIgYm9yZGVyb3BhY2l0eT0iMSIgZml0LW1hcmdpbi1ib3R0b209IjAiIGZpdC1tYXJnaW4tbGVmdD0iMCIgZml0LW1hcmdpbi1yaWdodD0iMCIgZml0LW1hcmdpbi10b3A9IjAiIGdyaWR0b2xlcmFuY2U9IjEwIiBndWlkZXRvbGVyYW5jZT0iMTAiIGlkPSJuYW1lZHZpZXc0NDgyMiIgaW5rc2NhcGU6Y3VycmVudC1sYXllcj0ic3ZnNDQ4MjAiIGlua3NjYXBlOmN4PSIxNi41NzAyNTYiIGlua3NjYXBlOmN5PSIyMS45ODc3MTgiIGlua3NjYXBlOnBhZ2VvcGFjaXR5PSIwIiBpbmtzY2FwZTpwYWdlc2hhZG93PSIyIiBpbmtzY2FwZTp3aW5kb3ctaGVpZ2h0PSIxMDE3IiBpbmtzY2FwZTp3aW5kb3ctbWF4aW1pemVkPSIxIiBpbmtzY2FwZTp3aW5kb3ctd2lkdGg9IjE5MjAiIGlua3NjYXBlOndpbmRvdy14PSItOCIgaW5rc2NhcGU6d2luZG93LXk9Ii04IiBpbmtzY2FwZTp6b29tPSIxOC44NTk2MjEiIG9iamVjdHRvbGVyYW5jZT0iMTAiIHBhZ2Vjb2xvcj0iI2ZmZmZmZiIgc2hvd2dyaWQ9ImZhbHNlIj4mI3hhOwk8L3NvZGlwb2RpOm5hbWVkdmlldz4mI3hhOzxnIGlkPSJnNDQ4MTgiIHRyYW5zZm9ybT0idHJhbnNsYXRlKC0wLjc1LC0wLjc0NjY0MDQ3KSI+JiN4YTsJPHRpdGxlIGlkPSJ0aXRsZTQ0NzY2Ij5QYWdlLTE8L3RpdGxlPiYjeGE7CTxnIGlkPSJncm91cDM5MjQtMSIgdHJhbnNmb3JtPSJ0cmFuc2xhdGUoMS41LC0xLjUpIj4mI3hhOwkJPHRpdGxlIGlkPSJ0aXRsZTQ0NzY4Ij5GaWxlPC90aXRsZT4mI3hhOwkJPGcgaWQ9InNoYXBlMzkyNS0yIj4mI3hhOwkJCTx0aXRsZSBpZD0idGl0bGU0NDc3MCI+cG9seWdvbjE1OTEyPC90aXRsZT4mI3hhOwkJCTxwYXRoIGlkPSJwYXRoNDQ3NzIiIGlua3NjYXBlOmNvbm5lY3Rvci1jdXJ2YXR1cmU9IjAiIHN0eWxlPSJmaWxsOiNGRkZGRkY7IiBkPSJNMjMuODYsMzQuNDhIMFYyLjQ5aDEzLjM1TDIzLjg2LDEyLjVWMzQuNDh6Ii8+JiN4YTsJCTwvZz4mI3hhOwkJPGcgaWQ9InNoYXBlMzkyNi00IiB0cmFuc2Zvcm09InRyYW5zbGF0ZSgxMy4yLC0yMS44MzA4KSI+JiN4YTsJCQk8dGl0bGUgaWQ9InRpdGxlNDQ3NzUiPnBvbHlnb24xNTkxNDwvdGl0bGU+JiN4YTsJCQk8cGF0aCBpZD0icGF0aDQ0Nzc3IiBpbmtzY2FwZTpjb25uZWN0b3ItY3VydmF0dXJlPSIwIiBzdHlsZT0iZmlsbDojNTVEMkY2OyIgZD0iTTEwLjY2LDM0LjQ4SDBWMjQuMzJMMTAuNjYsMzQuNDh6Ii8+JiN4YTsJCTwvZz4mI3hhOwkJPGcgaWQ9InNoYXBlMzkyNy02Ij4mI3hhOwkJCTx0aXRsZSBpZD0idGl0bGU0NDc4MCI+cGF0aDE1OTE2PC90aXRsZT4mI3hhOwkJCSYjeGE7CQkJCTxwYXRoIGlkPSJwYXRoNDQ3ODIiIGlua3NjYXBlOmNvbm5lY3Rvci1jdXJ2YXR1cmU9IjAiIHN0eWxlPSJmaWxsOm5vbmU7c3Ryb2tlOiM1NTZBOEE7c3Ryb2tlLXdpZHRoOjEuNTtzdHJva2UtbWl0ZXJsaW1pdDozOyIgZD0iICAgICBNMTMuMzksM0gwLjc0QzAuNDcsMywwLDIuOTcsMCwzLjI0djMwLjQ5YzAuMDksMC4zNywwLjM3LDAuNjYsMC43NCwwLjc1aDIyLjM4YzAuMjcsMCwwLjIzLTAuNDcsMC4yMy0wLjc1VjEyLjU4TDEzLjM5LDN6Ii8+JiN4YTsJCTwvZz4mI3hhOwkJPGcgaWQ9InNoYXBlMzkyOC04IiB0cmFuc2Zvcm09InRyYW5zbGF0ZSgwLjUwNzY5MiwtMC41MDc2OTIpIj4mI3hhOwkJCTx0aXRsZSBpZD0idGl0bGU0NDc4NSI+cmVjdDE1OTE4PC90aXRsZT4mI3hhOwkJCTxyZWN0IGlkPSJyZWN0NDQ3ODciIHg9IjAiIHk9IjQuMDIiIHN0eWxlPSJmaWxsOiNFNUU1RTU7IiB3aWR0aD0iOC4xMiIgaGVpZ2h0PSIzMC40NiIvPiYjeGE7CQk8L2c+JiN4YTsJCTxnIGlkPSJzaGFwZTM5MjktMTAiIHRyYW5zZm9ybT0idHJhbnNsYXRlKDEyLjY5MjMsLTIxLjMyMzEpIj4mI3hhOwkJCTx0aXRsZSBpZD0idGl0bGU0NDc5MCI+cG9seWxpbmUxNTkyMDwvdGl0bGU+JiN4YTsJCQk8cGF0aCBpZD0icGF0aDQ0NzkyIiBpbmtzY2FwZTpjb25uZWN0b3ItY3VydmF0dXJlPSIwIiBzdHlsZT0iZmlsbDpub25lOyIgZD0iTTAsMjQuMzJ2MTAuMTZoMTAuNjZMMCwyNC4zMnoiLz4mI3hhOwkJCSYjeGE7CQkJCTxwYXRoIGlkPSJwYXRoNDQ3OTQiIGlua3NjYXBlOmNvbm5lY3Rvci1jdXJ2YXR1cmU9IjAiIHN0eWxlPSJmaWxsOm5vbmU7c3Ryb2tlOiM1NTZBOEE7c3Ryb2tlLXdpZHRoOjEuNTtzdHJva2UtbWl0ZXJsaW1pdDozOyIgZD0iICAgICBNMCwyNC4zMnYxMC4xNmgxMC42NiIvPiYjeGE7CQk8L2c+JiN4YTsJCTxnIGlkPSJzaGFwZTM5MzAtMTMiIHRyYW5zZm9ybT0idHJhbnNsYXRlKDMuNTUzODUsLTIwLjgxNTQpIj4mI3hhOwkJCTx0aXRsZSBpZD0idGl0bGU0NDc5NyI+bGluZTE1OTIyPC90aXRsZT4mI3hhOwkJCSYjeGE7CQkJCTxwYXRoIGlkPSJwYXRoNDQ3OTkiIGlua3NjYXBlOmNvbm5lY3Rvci1jdXJ2YXR1cmU9IjAiIHN0eWxlPSJmaWxsOm5vbmU7c3Ryb2tlOiNBN0E5QUM7c3Ryb2tlLXdpZHRoOjEuNTtzdHJva2UtbWl0ZXJsaW1pdDozOyIgZD0iICAgICBNMCwzNC40OGg2LjYiLz4mI3hhOwkJPC9nPiYjeGE7CQk8ZyBpZD0ic2hhcGUzOTMxLTE2IiB0cmFuc2Zvcm09InRyYW5zbGF0ZSgzLjU1Mzg1LC0xNi4yNDYyKSI+JiN4YTsJCQk8dGl0bGUgaWQ9InRpdGxlNDQ4MDIiPmxpbmUxNTkyNDwvdGl0bGU+JiN4YTsJCQkmI3hhOwkJCQk8cGF0aCBpZD0icGF0aDQ0ODA0IiBpbmtzY2FwZTpjb25uZWN0b3ItY3VydmF0dXJlPSIwIiBzdHlsZT0iZmlsbDpub25lO3N0cm9rZTojQTdBOUFDO3N0cm9rZS13aWR0aDoxLjU7c3Ryb2tlLW1pdGVybGltaXQ6MzsiIGQ9IiAgICAgTTAsMzQuNDhoMTYuMjUiLz4mI3hhOwkJPC9nPiYjeGE7CQk8ZyBpZD0ic2hhcGUzOTMyLTE5IiB0cmFuc2Zvcm09InRyYW5zbGF0ZSgzLjU1Mzg1LC0xMS42NzY5KSI+JiN4YTsJCQk8dGl0bGUgaWQ9InRpdGxlNDQ4MDciPmxpbmUxNTkyNjwvdGl0bGU+JiN4YTsJCQkmI3hhOwkJCQk8cGF0aCBpZD0icGF0aDQ0ODA5IiBpbmtzY2FwZTpjb25uZWN0b3ItY3VydmF0dXJlPSIwIiBzdHlsZT0iZmlsbDpub25lO3N0cm9rZTojQTdBOUFDO3N0cm9rZS13aWR0aDoxLjU7c3Ryb2tlLW1pdGVybGltaXQ6MzsiIGQ9IiAgICAgTTAsMzQuNDhoMTYuMjUiLz4mI3hhOwkJPC9nPiYjeGE7CQk8ZyBpZD0ic2hhcGUzOTMzLTIyIiB0cmFuc2Zvcm09InRyYW5zbGF0ZSgzLjU1Mzg1LC03LjEwNzY5KSI+JiN4YTsJCQk8dGl0bGUgaWQ9InRpdGxlNDQ4MTIiPmxpbmUxNTkyODwvdGl0bGU+JiN4YTsJCQkmI3hhOwkJCQk8cGF0aCBpZD0icGF0aDQ0ODE0IiBpbmtzY2FwZTpjb25uZWN0b3ItY3VydmF0dXJlPSIwIiBzdHlsZT0iZmlsbDpub25lO3N0cm9rZTojQTdBOUFDO3N0cm9rZS13aWR0aDoxLjU7c3Ryb2tlLW1pdGVybGltaXQ6MzsiIGQ9IiAgICAgTTAsMzQuNDhoMTYuMjUiLz4mI3hhOwkJPC9nPiYjeGE7CTwvZz4mI3hhOzwvZz4mI3hhOzwvc3ZnPg==;" parent="1" vertex="1">
          <mxGeometry x="-1.5" y="377" width="25" height="33" as="geometry" />
        </mxCell>
        <mxCell id="xZAcJMV6n3TPmo2zS2b6-37" value="" style="shape=image;verticalLabelPosition=bottom;labelBackgroundColor=#ffffff;verticalAlign=top;aspect=fixed;imageAspect=0;image=data:image/svg+xml,PHN2ZyB4bWxuczpjYz0iaHR0cDovL2NyZWF0aXZlY29tbW9ucy5vcmcvbnMjIiB4bWxuczpkYz0iaHR0cDovL3B1cmwub3JnL2RjL2VsZW1lbnRzLzEuMS8iIHhtbG5zOmlua3NjYXBlPSJodHRwOi8vd3d3Lmlua3NjYXBlLm9yZy9uYW1lc3BhY2VzL2lua3NjYXBlIiB4bWxuczpyZGY9Imh0dHA6Ly93d3cudzMub3JnLzE5OTkvMDIvMjItcmRmLXN5bnRheC1ucyMiIHhtbG5zOnNvZGlwb2RpPSJodHRwOi8vc29kaXBvZGkuc291cmNlZm9yZ2UubmV0L0RURC9zb2RpcG9kaS0wLmR0ZCIgeG1sbnM6c3ZnPSJodHRwOi8vd3d3LnczLm9yZy8yMDAwL3N2ZyIgeG1sbnM9Imh0dHA6Ly93d3cudzMub3JnLzIwMDAvc3ZnIiB4bWxuczp4bGluaz0iaHR0cDovL3d3dy53My5vcmcvMTk5OS94bGluayIgdmVyc2lvbj0iMS4xIiBpZD0ic3ZnMTgxNTczIiBpbmtzY2FwZTp2ZXJzaW9uPSIwLjkyLjMgKDI0MDU1NDYsIDIwMTgtMDMtMTEpIiBzb2RpcG9kaTpkb2NuYW1lPSJqc29uLnN2ZyIgeD0iMHB4IiB5PSIwcHgiIHZpZXdCb3g9IjAgMCA3Ni41IDc1LjYzIiBzdHlsZT0iZW5hYmxlLWJhY2tncm91bmQ6bmV3IDAgMCA3Ni41IDc1LjYzOyIgeG1sOnNwYWNlPSJwcmVzZXJ2ZSI+JiN4YTs8c29kaXBvZGk6bmFtZWR2aWV3IGJvcmRlcmNvbG9yPSIjNjY2NjY2IiBib3JkZXJvcGFjaXR5PSIxIiBmaXQtbWFyZ2luLWJvdHRvbT0iMCIgZml0LW1hcmdpbi1sZWZ0PSIwIiBmaXQtbWFyZ2luLXJpZ2h0PSIwIiBmaXQtbWFyZ2luLXRvcD0iMCIgZ3JpZHRvbGVyYW5jZT0iMTAiIGd1aWRldG9sZXJhbmNlPSIxMCIgaWQ9Im5hbWVkdmlldzE4MTU3NSIgaW5rc2NhcGU6Y3VycmVudC1sYXllcj0ic3ZnMTgxNTczIiBpbmtzY2FwZTpjeD0iNTEiIGlua3NjYXBlOmN5PSI1MC40MjEyNjciIGlua3NjYXBlOnBhZ2VvcGFjaXR5PSIwIiBpbmtzY2FwZTpwYWdlc2hhZG93PSIyIiBpbmtzY2FwZTp3aW5kb3ctaGVpZ2h0PSIxMDE3IiBpbmtzY2FwZTp3aW5kb3ctbWF4aW1pemVkPSIxIiBpbmtzY2FwZTp3aW5kb3ctd2lkdGg9IjE5MjAiIGlua3NjYXBlOndpbmRvdy14PSItOCIgaW5rc2NhcGU6d2luZG93LXk9Ii04IiBpbmtzY2FwZTp6b29tPSI4LjU5Nzk5NjkiIG9iamVjdHRvbGVyYW5jZT0iMTAiIHBhZ2Vjb2xvcj0iI2ZmZmZmZiIgc2hvd2dyaWQ9ImZhbHNlIj4mI3hhOwk8L3NvZGlwb2RpOm5hbWVkdmlldz4mI3hhOzxnIGlkPSJnMTgxNTcxIj4mI3hhOwk8dGl0bGUgaWQ9InRpdGxlMTgxNTEyIj5QYWdlLTE8L3RpdGxlPiYjeGE7CTxnIGlkPSJncm91cDEwNzctMSI+JiN4YTsJCTx0aXRsZSBpZD0idGl0bGUxODE1MTQiPkpTT048L3RpdGxlPiYjeGE7CQk8ZyBpZD0ic2hhcGUxMDc4LTIiPiYjeGE7CQkJPHRpdGxlIGlkPSJ0aXRsZTE4MTUxNiI+U2hlZXQuMTA3ODwvdGl0bGU+JiN4YTsJCQk8cGF0aCBpZD0icGF0aDE4MTUxOCIgaW5rc2NhcGU6Y29ubmVjdG9yLWN1cnZhdHVyZT0iMCIgc3R5bGU9ImZpbGw6Izk3NzdBODsiIGQ9Ik0wLDM3LjgxQzAsMTYuOTQsMTcuMTMsMCwzOC4yNSwwICAgICBDNTkuNDIsMCw3Ni41LDE2Ljk0LDc2LjUsMzcuODFjMCwyMC45My0xNy4wOCwzNy44Mi0zOC4yNSwzNy44MkMxNy4xMyw3NS42MywwLDU4Ljc0LDAsMzcuODF6Ii8+JiN4YTsJCTwvZz4mI3hhOwkJPGcgaWQ9Imdyb3VwMTA3OS00IiB0cmFuc2Zvcm09InRyYW5zbGF0ZSgxNS42NTM0LC0xNy4zOTk4KSI+JiN4YTsJCQk8dGl0bGUgaWQ9InRpdGxlMTgxNTIxIj5TaGVldC4xMDc5PC90aXRsZT4mI3hhOwkJCTxnIGlkPSJncm91cDEwODAtNSIgdHJhbnNmb3JtPSJ0cmFuc2xhdGUoNi43NDUzLC0xNi40NDE5KSI+JiN4YTsJCQkJPHRpdGxlIGlkPSJ0aXRsZTE4MTUyMyI+U2hlZXQuMTA4MDwvdGl0bGU+JiN4YTsJCQkJPGcgaWQ9InNoYXBlMTA4MS02Ij4mI3hhOwkJCQkJPHRpdGxlIGlkPSJ0aXRsZTE4MTUyNSI+U2hlZXQuMTA4MTwvdGl0bGU+JiN4YTsJCQkJCTxwYXRoIGlkPSJwYXRoMTgxNTI3IiBpbmtzY2FwZTpjb25uZWN0b3ItY3VydmF0dXJlPSIwIiBzdHlsZT0iZmlsbDojRkZGRkZGOyIgZD0iTTYuMSw1OS43OFY1NC45YzAtMC42NywwLjU0LTEuMjIsMS4yMi0xLjIyICAgICAgIGMwLjY3LDAsMS4yMi0wLjU1LDEuMjItMS4yMmMwLTAuNjctMC41NS0xLjIyLTEuMjItMS4yMmMtMi4wMiwwLTMuNjYsMS42NC0zLjY2LDMuNjZ2NC44OGMwLDEuMzQtMS4xLDIuNDQtMi40NCwyLjQ0ICAgICAgIEMwLjU1LDYyLjIyLDAsNjIuNzYsMCw2My40M2MwLDAuNjgsMC41NSwxLjIyLDEuMjIsMS4yMmMxLjM0LDAsMi40NCwxLjEsMi40NCwyLjQ0djQuODhjMCwyLjAyLDEuNjQsMy42NiwzLjY2LDMuNjYgICAgICAgYzAuNjcsMCwxLjIyLTAuNTUsMS4yMi0xLjIycy0wLjU1LTEuMjItMS4yMi0xLjIyYy0wLjY4LDAtMS4yMi0wLjU1LTEuMjItMS4yMnYtNC44OGMwLTEuNDYtMC42Ni0yLjc2LTEuNjktMy42NiAgICAgICBDNS40NCw2Mi41NCw2LjEsNjEuMjQsNi4xLDU5Ljc4eiIvPiYjeGE7CQkJCTwvZz4mI3hhOwkJCQk8ZyBpZD0ic2hhcGUxMDgyLTgiIHRyYW5zZm9ybT0idHJhbnNsYXRlKDE0LjAyMjMsLTE0LjYzMikiPiYjeGE7CQkJCQk8dGl0bGUgaWQ9InRpdGxlMTgxNTMwIj5TaGVldC4xMDgyPC90aXRsZT4mI3hhOwkJCQkJPGNpcmNsZSBpZD0iZWxsaXBzZTE4MTUzMiIgc3R5bGU9ImZpbGw6I0ZGRkZGRjsiIGN4PSIxLjgzIiBjeT0iNzMuOCIgcj0iMS44MyIvPiYjeGE7CQkJCTwvZz4mI3hhOwkJCQk8ZyBpZD0ic2hhcGUxMDgzLTEwIiB0cmFuc2Zvcm09InRyYW5zbGF0ZSgyMy4xNjczKSI+JiN4YTsJCQkJCTx0aXRsZSBpZD0idGl0bGUxODE1MzUiPlNoZWV0LjEwODM8L3RpdGxlPiYjeGE7CQkJCQk8cGF0aCBpZD0icGF0aDE4MTUzNyIgaW5rc2NhcGU6Y29ubmVjdG9yLWN1cnZhdHVyZT0iMCIgc3R5bGU9ImZpbGw6I0ZGRkZGRjsiIGQ9Ik03LjMyLDYyLjIyYy0xLjM1LDAtMi40NC0xLjEtMi40NC0yLjQ0VjU0LjkgICAgICAgYzAtMi4wMi0xLjY0LTMuNjYtMy42Ni0zLjY2QzAuNTUsNTEuMjQsMCw1MS43OSwwLDUyLjQ2YzAsMC42NywwLjU1LDEuMjIsMS4yMiwxLjIyczEuMjIsMC41NSwxLjIyLDEuMjJ2NC44OCAgICAgICBjMCwxLjQ2LDAuNjYsMi43NiwxLjY4LDMuNjVjLTEuMDIsMC45LTEuNjgsMi4yLTEuNjgsMy42NnY0Ljg4YzAsMC42Ny0wLjU1LDEuMjItMS4yMiwxLjIyUzAsNzMuNzQsMCw3NC40MSAgICAgICBzMC41NSwxLjIyLDEuMjIsMS4yMmMyLjAyLDAsMy42Ni0xLjY0LDMuNjYtMy42NnYtNC44OGMwLTEuMzQsMS4wOS0yLjQ0LDIuNDQtMi40NGMwLjY3LDAsMS4yMi0wLjU0LDEuMjItMS4yMiAgICAgICBDOC41NCw2Mi43Niw3Ljk5LDYyLjIyLDcuMzIsNjIuMjJ6Ii8+JiN4YTsJCQkJPC9nPiYjeGE7CQkJCTxnIGlkPSJzaGFwZTEwODQtMTIiIHRyYW5zZm9ybT0idHJhbnNsYXRlKDE0LjYzMiwtMy42NTc5OSkiPiYjeGE7CQkJCQk8dGl0bGUgaWQ9InRpdGxlMTgxNTQwIj5TaGVldC4xMDg0PC90aXRsZT4mI3hhOwkJCQkJPHBhdGggaWQ9InBhdGgxODE1NDIiIGlua3NjYXBlOmNvbm5lY3Rvci1jdXJ2YXR1cmU9IjAiIHN0eWxlPSJmaWxsOiNGRkZGRkY7IiBkPSJNMS4yMiw2OS41M0MwLjU1LDY5LjUzLDAsNzAuMDgsMCw3MC43NXYzLjY2ICAgICAgIGMwLDAuNjcsMC41NSwxLjIyLDEuMjIsMS4yMnMxLjIyLTAuNTUsMS4yMi0xLjIydi0zLjY2QzIuNDQsNzAuMDgsMS44OSw2OS41MywxLjIyLDY5LjUzeiIvPiYjeGE7CQkJCTwvZz4mI3hhOwkJCTwvZz4mI3hhOwkJCTxnIGlkPSJncm91cDEwODUtMTQiPiYjeGE7CQkJCTx0aXRsZSBpZD0idGl0bGUxODE1NDYiPlNoZWV0LjEwODU8L3RpdGxlPiYjeGE7CQkJCTxnIGlkPSJzaGFwZTEwODYtMTUiPiYjeGE7CQkJCQk8dGl0bGUgaWQ9InRpdGxlMTgxNTQ4Ij5TaGVldC4xMDg2PC90aXRsZT4mI3hhOwkJCQkJPHBhdGggaWQ9InBhdGgxODE1NTAiIGlua3NjYXBlOmNvbm5lY3Rvci1jdXJ2YXR1cmU9IjAiIHN0eWxlPSJmaWxsOiNGRkZGRkY7IiBkPSJNOC4yNCw2MS44djEwLjQ5YzAsMC42My0wLjEyLDEuMTYtMC4zNSwxLjU5ICAgICAgIGMtMC4yMywwLjQ0LTAuNTQsMC43OC0wLjkzLDEuMDVjLTAuMzksMC4yNi0wLjg0LDAuNDQtMS4zNCwwLjU0Yy0wLjUxLDAuMTEtMS4wMywwLjE2LTEuNTYsMC4xNmMtMC4yNywwLTAuNTktMC4wMy0wLjk1LTAuMDggICAgICAgQzIuNzYsNzUuNDksMi4zOCw3NS40MSwyLDc1LjI5cy0wLjc1LTAuMjUtMS4xLTAuMzljLTAuMzYtMC4xNS0wLjY2LTAuMzEtMC45LTAuNWwwLjkzLTEuNDdjMC4xMiwwLjA4LDAuMywwLjE3LDAuNTIsMC4yNiAgICAgICBjMC4yMywwLjA5LDAuNDgsMC4xOCwwLjc0LDAuMjVjMC4yNywwLjA4LDAuNTUsMC4xNSwwLjg0LDAuMjFjMC4zLDAuMDcsMC41NywwLjEsMC44MiwwLjFjMC42NSwwLDEuMTYtMC4xMywxLjU1LTAuMzggICAgICAgYzAuMzgtMC4yNSwwLjU4LTAuNjcsMC42MS0xLjI3VjYxLjhIOC4yNHoiLz4mI3hhOwkJCQk8L2c+JiN4YTsJCQkJPGcgaWQ9InNoYXBlMTA4Ny0xNyIgdHJhbnNmb3JtPSJ0cmFuc2xhdGUoMTEuMzI0NywtMC4wMTg3MDUyKSI+JiN4YTsJCQkJCTx0aXRsZSBpZD0idGl0bGUxODE1NTMiPlNoZWV0LjEwODc8L3RpdGxlPiYjeGE7CQkJCQk8cGF0aCBpZD0icGF0aDE4MTU1NSIgaW5rc2NhcGU6Y29ubmVjdG9yLWN1cnZhdHVyZT0iMCIgc3R5bGU9ImZpbGw6I0ZGRkZGRjsiIGQ9Ik03LjgyLDcxLjg3YzAsMC40OC0wLjEsMC45NS0wLjMsMS40MSAgICAgICBjLTAuMiwwLjQ2LTAuNDksMC44Ni0wLjg1LDEuMjFjLTAuMzcsMC4zNC0wLjgyLDAuNjItMS4zNSwwLjgzYy0wLjU0LDAuMjEtMS4xNSwwLjMxLTEuODMsMC4zMWMtMC4yOSwwLTAuNTktMC4wMi0wLjktMC4wNSAgICAgICBjLTAuMzItMC4wMy0wLjYzLTAuMDgtMC45NS0wLjE1Yy0wLjMxLTAuMDgtMC42MS0wLjE4LTAuOS0wLjNDMC40NSw3NSwwLjIxLDc0Ljg0LDAsNzQuNjZsMC4zOC0xLjU3ICAgICAgIGMwLjE3LDAuMSwwLjM5LDAuMTksMC42NSwwLjI4czAuNTMsMC4xOCwwLjgxLDAuMjZzMC41NiwwLjE0LDAuODQsMC4xOXMwLjU1LDAuMDcsMC43OSwwLjA3YzAuNzQsMCwxLjMxLTAuMTcsMS43MS0wLjUyICAgICAgIGMwLjM5LTAuMzUsMC41OS0wLjg2LDAuNTktMS41NGMwLTAuNDItMC4xNC0wLjc3LTAuNDItMS4wNmMtMC4yOC0wLjI5LTAuNjMtMC41Ni0xLjA1LTAuOGMtMC40Mi0wLjIzLTAuODctMC40Ny0xLjM2LTAuNzEgICAgICAgQzIuNDUsNjkuMDIsMiw2OC43NCwxLjU3LDY4LjQycy0wLjc4LTAuNy0xLjA2LTEuMTRzLTAuNDItMC45OS0wLjQyLTEuNjRjMC0wLjYsMC4xMS0xLjEzLDAuMzMtMS41OXMwLjUxLTAuODYsMC44OS0xLjE4ICAgICAgIGMwLjM3LTAuMzIsMC44LTAuNTcsMS4yOS0wLjc0YzAuNS0wLjE3LDEuMDItMC4yNiwxLjU2LTAuMjZjMC41NiwwLDEuMTMsMC4wNiwxLjcsMC4xNnMxLjA0LDAuMjcsMS4zOSwwLjUgICAgICAgQzcuMTgsNjIuNjksNy4wOSw2Mi44Niw3LDYzLjA1Yy0wLjEsMC4xOS0wLjE5LDAuMzctMC4yOCwwLjUzYy0wLjA4LDAuMTctMC4xNiwwLjMtMC4yMiwwLjQxYy0wLjA2LDAuMTEtMC4wOSwwLjE3LTAuMTEsMC4xOSAgICAgICBjLTAuMDctMC4wNC0wLjE1LTAuMDktMC4yNC0wLjE1Yy0wLjEtMC4wNi0wLjIzLTAuMTItMC40LTAuMThjLTAuMTctMC4wNi0wLjM5LTAuMTEtMC42Ny0wLjEzQzQuOCw2My42OSw0LjQ0LDYzLjcsNCw2My43NCAgICAgICBjLTAuMjUsMC4wMi0wLjQ4LDAuMDktMC43LDAuMjFjLTAuMjIsMC4xMS0wLjQxLDAuMjYtMC41OCwwLjQzYy0wLjE3LDAuMTctMC4zMSwwLjM2LTAuNCwwLjU3Yy0wLjEsMC4yMi0wLjE1LDAuNDItMC4xNSwwLjYxICAgICAgIGMwLDAuNDksMC4xNCwwLjg4LDAuNDIsMS4xOHMwLjYzLDAuNTYsMS4wNCwwLjc5YzAuNDEsMC4yMiwwLjg3LDAuNDQsMS4zNSwwLjY2YzAuNDksMC4yMSwwLjk0LDAuNDcsMS4zNywwLjc3ICAgICAgIGMwLjQyLDAuMzEsMC43NiwwLjY5LDEuMDUsMS4xNEM3LjY4LDcwLjU2LDcuODIsNzEuMTUsNy44Miw3MS44N3oiLz4mI3hhOwkJCQk8L2c+JiN4YTsJCQkJPGcgaWQ9InNoYXBlMTA4OC0xOSIgdHJhbnNmb3JtPSJ0cmFuc2xhdGUoMjEuMTU0MykiPiYjeGE7CQkJCQk8dGl0bGUgaWQ9InRpdGxlMTgxNTU4Ij5TaGVldC4xMDg4PC90aXRsZT4mI3hhOwkJCQkJPHBhdGggaWQ9InBhdGgxODE1NjAiIGlua3NjYXBlOmNvbm5lY3Rvci1jdXJ2YXR1cmU9IjAiIHN0eWxlPSJmaWxsOiNGRkZGRkY7IiBkPSJNMTEuMjIsNjguNzRjMCwxLjEzLTAuMTUsMi4xMy0wLjQzLDMgICAgICAgYy0wLjI5LDAuODYtMC42OSwxLjU4LTEuMTksMi4xNWMtMC41MSwwLjU3LTEuMSwxLjAxLTEuNzcsMS4zYy0wLjY4LDAuMjktMS40MiwwLjQ0LTIuMjIsMC40NGMtMC44MSwwLTEuNTUtMC4xNS0yLjIyLTAuNDQgICAgICAgYy0wLjY4LTAuMjktMS4yNy0wLjcyLTEuNzctMS4zYy0wLjUxLTAuNTctMC45MS0xLjI5LTEuMTktMi4xNUMwLjE0LDcwLjg3LDAsNjkuODcsMCw2OC43NGMwLTEuMTMsMC4xNC0yLjEzLDAuNDMtMi45OCAgICAgICBjMC4yOC0wLjg2LDAuNjgtMS41OCwxLjE5LTIuMTVjMC41LTAuNTcsMS4wOS0xLjAxLDEuNzctMS4zMWMwLjY3LTAuMywxLjQxLTAuNDQsMi4yMi0wLjQ0YzAuOCwwLDEuNTQsMC4xNCwyLjIyLDAuNDQgICAgICAgYzAuNjcsMC4zLDEuMjYsMC43NCwxLjc3LDEuMzFjMC41LDAuNTcsMC45LDEuMjksMS4xOSwyLjE1QzExLjA3LDY2LjYxLDExLjIyLDY3LjYxLDExLjIyLDY4Ljc0eiBNNS41NSw3My44NCAgICAgICBjMC40NSwwLDAuODgtMC4wOSwxLjI5LTAuMjdjMC40MS0wLjE3LDAuNzctMC40NiwxLjEtMC44NmMwLjMyLTAuNCwwLjU3LTAuOTMsMC43NS0xLjU4YzAuMTktMC42NiwwLjI4LTEuNDUsMC4zLTIuMzkgICAgICAgYy0wLjAyLTAuOTEtMC4xMS0xLjY5LTAuMjktMi4zM2MtMC4xNy0wLjYzLTAuNDItMS4xNi0wLjczLTEuNThjLTAuMzEtMC40MS0wLjY2LTAuNzEtMS4wNi0wLjg5ICAgICAgIGMtMC4zOS0wLjE4LTAuODEtMC4yOC0xLjI1LTAuMjhjLTAuNDUsMC0wLjg4LDAuMDktMS4yOSwwLjI2cy0wLjc3LDAuNDYtMS4wOSwwLjg3Yy0wLjMyLDAuNC0wLjU4LDAuOTMtMC43NiwxLjU4ICAgICAgIGMtMC4xOCwwLjY0LTAuMjgsMS40My0wLjI5LDIuMzdjMC4wMSwwLjkyLDAuMSwxLjY5LDAuMjgsMi4zNGMwLjE4LDAuNjUsMC40MiwxLjE3LDAuNzMsMS41OHMwLjY3LDAuNzEsMS4wNiwwLjkgICAgICAgQzQuNyw3My43NSw1LjExLDczLjg0LDUuNTUsNzMuODR6Ii8+JiN4YTsJCQkJPC9nPiYjeGE7CQkJCTxnIGlkPSJzaGFwZTEwODktMjEiIHRyYW5zZm9ybT0idHJhbnNsYXRlKDM1LjQ1NzEsLTAuMDkwODU0MSkiPiYjeGE7CQkJCQk8dGl0bGUgaWQ9InRpdGxlMTgxNTYzIj5TaGVldC4xMDg5PC90aXRsZT4mI3hhOwkJCQkJPHBhdGggaWQ9InBhdGgxODE1NjUiIGlua3NjYXBlOmNvbm5lY3Rvci1jdXJ2YXR1cmU9IjAiIHN0eWxlPSJmaWxsOiNGRkZGRkY7IiBkPSJNOS43NCw2Mi4xN3YxMy40Nkg3LjUxbC01LjI4LTkuMjh2OS4yOEgwICAgICAgIFY2Mi4xN2gyLjIzbDUuMjgsOS4yN3YtOS4yN0w5Ljc0LDYyLjE3eiIvPiYjeGE7CQkJCTwvZz4mI3hhOwkJCTwvZz4mI3hhOwkJPC9nPiYjeGE7CTwvZz4mI3hhOzwvZz4mI3hhOzwvc3ZnPg==;" parent="1" vertex="1">
          <mxGeometry x="-103.49000000000001" y="590" width="37.49" height="37" as="geometry" />
        </mxCell>
        <mxCell id="4ndBJUu1C0Kb1_ytCzMU-1" value="" style="shape=image;verticalLabelPosition=bottom;labelBackgroundColor=#ffffff;verticalAlign=top;aspect=fixed;imageAspect=0;image=data:image/svg+xml,PHN2ZyB4bWxuczpjYz0iaHR0cDovL2NyZWF0aXZlY29tbW9ucy5vcmcvbnMjIiB4bWxuczpkYz0iaHR0cDovL3B1cmwub3JnL2RjL2VsZW1lbnRzLzEuMS8iIHhtbG5zOmlua3NjYXBlPSJodHRwOi8vd3d3Lmlua3NjYXBlLm9yZy9uYW1lc3BhY2VzL2lua3NjYXBlIiB4bWxuczpyZGY9Imh0dHA6Ly93d3cudzMub3JnLzE5OTkvMDIvMjItcmRmLXN5bnRheC1ucyMiIHhtbG5zOnNvZGlwb2RpPSJodHRwOi8vc29kaXBvZGkuc291cmNlZm9yZ2UubmV0L0RURC9zb2RpcG9kaS0wLmR0ZCIgeG1sbnM6c3ZnPSJodHRwOi8vd3d3LnczLm9yZy8yMDAwL3N2ZyIgeG1sbnM9Imh0dHA6Ly93d3cudzMub3JnLzIwMDAvc3ZnIiB4bWxuczp4bGluaz0iaHR0cDovL3d3dy53My5vcmcvMTk5OS94bGluayIgdmVyc2lvbj0iMS4xIiBpZD0ic3ZnNDQ4MjAiIGlua3NjYXBlOnZlcnNpb249IjAuOTIuMyAoMjQwNTU0NiwgMjAxOC0wMy0xMSkiIHNvZGlwb2RpOmRvY25hbWU9ImZpbGUuc3ZnIiB4PSIwcHgiIHk9IjBweCIgdmlld0JveD0iMCAwIDI0Ljg1IDMyLjk4IiBzdHlsZT0iZW5hYmxlLWJhY2tncm91bmQ6bmV3IDAgMCAyNC44NSAzMi45ODsiIHhtbDpzcGFjZT0icHJlc2VydmUiPiYjeGE7PHNvZGlwb2RpOm5hbWVkdmlldyBib3JkZXJjb2xvcj0iIzY2NjY2NiIgYm9yZGVyb3BhY2l0eT0iMSIgZml0LW1hcmdpbi1ib3R0b209IjAiIGZpdC1tYXJnaW4tbGVmdD0iMCIgZml0LW1hcmdpbi1yaWdodD0iMCIgZml0LW1hcmdpbi10b3A9IjAiIGdyaWR0b2xlcmFuY2U9IjEwIiBndWlkZXRvbGVyYW5jZT0iMTAiIGlkPSJuYW1lZHZpZXc0NDgyMiIgaW5rc2NhcGU6Y3VycmVudC1sYXllcj0ic3ZnNDQ4MjAiIGlua3NjYXBlOmN4PSIxNi41NzAyNTYiIGlua3NjYXBlOmN5PSIyMS45ODc3MTgiIGlua3NjYXBlOnBhZ2VvcGFjaXR5PSIwIiBpbmtzY2FwZTpwYWdlc2hhZG93PSIyIiBpbmtzY2FwZTp3aW5kb3ctaGVpZ2h0PSIxMDE3IiBpbmtzY2FwZTp3aW5kb3ctbWF4aW1pemVkPSIxIiBpbmtzY2FwZTp3aW5kb3ctd2lkdGg9IjE5MjAiIGlua3NjYXBlOndpbmRvdy14PSItOCIgaW5rc2NhcGU6d2luZG93LXk9Ii04IiBpbmtzY2FwZTp6b29tPSIxOC44NTk2MjEiIG9iamVjdHRvbGVyYW5jZT0iMTAiIHBhZ2Vjb2xvcj0iI2ZmZmZmZiIgc2hvd2dyaWQ9ImZhbHNlIj4mI3hhOwk8L3NvZGlwb2RpOm5hbWVkdmlldz4mI3hhOzxnIGlkPSJnNDQ4MTgiIHRyYW5zZm9ybT0idHJhbnNsYXRlKC0wLjc1LC0wLjc0NjY0MDQ3KSI+JiN4YTsJPHRpdGxlIGlkPSJ0aXRsZTQ0NzY2Ij5QYWdlLTE8L3RpdGxlPiYjeGE7CTxnIGlkPSJncm91cDM5MjQtMSIgdHJhbnNmb3JtPSJ0cmFuc2xhdGUoMS41LC0xLjUpIj4mI3hhOwkJPHRpdGxlIGlkPSJ0aXRsZTQ0NzY4Ij5GaWxlPC90aXRsZT4mI3hhOwkJPGcgaWQ9InNoYXBlMzkyNS0yIj4mI3hhOwkJCTx0aXRsZSBpZD0idGl0bGU0NDc3MCI+cG9seWdvbjE1OTEyPC90aXRsZT4mI3hhOwkJCTxwYXRoIGlkPSJwYXRoNDQ3NzIiIGlua3NjYXBlOmNvbm5lY3Rvci1jdXJ2YXR1cmU9IjAiIHN0eWxlPSJmaWxsOiNGRkZGRkY7IiBkPSJNMjMuODYsMzQuNDhIMFYyLjQ5aDEzLjM1TDIzLjg2LDEyLjVWMzQuNDh6Ii8+JiN4YTsJCTwvZz4mI3hhOwkJPGcgaWQ9InNoYXBlMzkyNi00IiB0cmFuc2Zvcm09InRyYW5zbGF0ZSgxMy4yLC0yMS44MzA4KSI+JiN4YTsJCQk8dGl0bGUgaWQ9InRpdGxlNDQ3NzUiPnBvbHlnb24xNTkxNDwvdGl0bGU+JiN4YTsJCQk8cGF0aCBpZD0icGF0aDQ0Nzc3IiBpbmtzY2FwZTpjb25uZWN0b3ItY3VydmF0dXJlPSIwIiBzdHlsZT0iZmlsbDojNTVEMkY2OyIgZD0iTTEwLjY2LDM0LjQ4SDBWMjQuMzJMMTAuNjYsMzQuNDh6Ii8+JiN4YTsJCTwvZz4mI3hhOwkJPGcgaWQ9InNoYXBlMzkyNy02Ij4mI3hhOwkJCTx0aXRsZSBpZD0idGl0bGU0NDc4MCI+cGF0aDE1OTE2PC90aXRsZT4mI3hhOwkJCSYjeGE7CQkJCTxwYXRoIGlkPSJwYXRoNDQ3ODIiIGlua3NjYXBlOmNvbm5lY3Rvci1jdXJ2YXR1cmU9IjAiIHN0eWxlPSJmaWxsOm5vbmU7c3Ryb2tlOiM1NTZBOEE7c3Ryb2tlLXdpZHRoOjEuNTtzdHJva2UtbWl0ZXJsaW1pdDozOyIgZD0iICAgICBNMTMuMzksM0gwLjc0QzAuNDcsMywwLDIuOTcsMCwzLjI0djMwLjQ5YzAuMDksMC4zNywwLjM3LDAuNjYsMC43NCwwLjc1aDIyLjM4YzAuMjcsMCwwLjIzLTAuNDcsMC4yMy0wLjc1VjEyLjU4TDEzLjM5LDN6Ii8+JiN4YTsJCTwvZz4mI3hhOwkJPGcgaWQ9InNoYXBlMzkyOC04IiB0cmFuc2Zvcm09InRyYW5zbGF0ZSgwLjUwNzY5MiwtMC41MDc2OTIpIj4mI3hhOwkJCTx0aXRsZSBpZD0idGl0bGU0NDc4NSI+cmVjdDE1OTE4PC90aXRsZT4mI3hhOwkJCTxyZWN0IGlkPSJyZWN0NDQ3ODciIHg9IjAiIHk9IjQuMDIiIHN0eWxlPSJmaWxsOiNFNUU1RTU7IiB3aWR0aD0iOC4xMiIgaGVpZ2h0PSIzMC40NiIvPiYjeGE7CQk8L2c+JiN4YTsJCTxnIGlkPSJzaGFwZTM5MjktMTAiIHRyYW5zZm9ybT0idHJhbnNsYXRlKDEyLjY5MjMsLTIxLjMyMzEpIj4mI3hhOwkJCTx0aXRsZSBpZD0idGl0bGU0NDc5MCI+cG9seWxpbmUxNTkyMDwvdGl0bGU+JiN4YTsJCQk8cGF0aCBpZD0icGF0aDQ0NzkyIiBpbmtzY2FwZTpjb25uZWN0b3ItY3VydmF0dXJlPSIwIiBzdHlsZT0iZmlsbDpub25lOyIgZD0iTTAsMjQuMzJ2MTAuMTZoMTAuNjZMMCwyNC4zMnoiLz4mI3hhOwkJCSYjeGE7CQkJCTxwYXRoIGlkPSJwYXRoNDQ3OTQiIGlua3NjYXBlOmNvbm5lY3Rvci1jdXJ2YXR1cmU9IjAiIHN0eWxlPSJmaWxsOm5vbmU7c3Ryb2tlOiM1NTZBOEE7c3Ryb2tlLXdpZHRoOjEuNTtzdHJva2UtbWl0ZXJsaW1pdDozOyIgZD0iICAgICBNMCwyNC4zMnYxMC4xNmgxMC42NiIvPiYjeGE7CQk8L2c+JiN4YTsJCTxnIGlkPSJzaGFwZTM5MzAtMTMiIHRyYW5zZm9ybT0idHJhbnNsYXRlKDMuNTUzODUsLTIwLjgxNTQpIj4mI3hhOwkJCTx0aXRsZSBpZD0idGl0bGU0NDc5NyI+bGluZTE1OTIyPC90aXRsZT4mI3hhOwkJCSYjeGE7CQkJCTxwYXRoIGlkPSJwYXRoNDQ3OTkiIGlua3NjYXBlOmNvbm5lY3Rvci1jdXJ2YXR1cmU9IjAiIHN0eWxlPSJmaWxsOm5vbmU7c3Ryb2tlOiNBN0E5QUM7c3Ryb2tlLXdpZHRoOjEuNTtzdHJva2UtbWl0ZXJsaW1pdDozOyIgZD0iICAgICBNMCwzNC40OGg2LjYiLz4mI3hhOwkJPC9nPiYjeGE7CQk8ZyBpZD0ic2hhcGUzOTMxLTE2IiB0cmFuc2Zvcm09InRyYW5zbGF0ZSgzLjU1Mzg1LC0xNi4yNDYyKSI+JiN4YTsJCQk8dGl0bGUgaWQ9InRpdGxlNDQ4MDIiPmxpbmUxNTkyNDwvdGl0bGU+JiN4YTsJCQkmI3hhOwkJCQk8cGF0aCBpZD0icGF0aDQ0ODA0IiBpbmtzY2FwZTpjb25uZWN0b3ItY3VydmF0dXJlPSIwIiBzdHlsZT0iZmlsbDpub25lO3N0cm9rZTojQTdBOUFDO3N0cm9rZS13aWR0aDoxLjU7c3Ryb2tlLW1pdGVybGltaXQ6MzsiIGQ9IiAgICAgTTAsMzQuNDhoMTYuMjUiLz4mI3hhOwkJPC9nPiYjeGE7CQk8ZyBpZD0ic2hhcGUzOTMyLTE5IiB0cmFuc2Zvcm09InRyYW5zbGF0ZSgzLjU1Mzg1LC0xMS42NzY5KSI+JiN4YTsJCQk8dGl0bGUgaWQ9InRpdGxlNDQ4MDciPmxpbmUxNTkyNjwvdGl0bGU+JiN4YTsJCQkmI3hhOwkJCQk8cGF0aCBpZD0icGF0aDQ0ODA5IiBpbmtzY2FwZTpjb25uZWN0b3ItY3VydmF0dXJlPSIwIiBzdHlsZT0iZmlsbDpub25lO3N0cm9rZTojQTdBOUFDO3N0cm9rZS13aWR0aDoxLjU7c3Ryb2tlLW1pdGVybGltaXQ6MzsiIGQ9IiAgICAgTTAsMzQuNDhoMTYuMjUiLz4mI3hhOwkJPC9nPiYjeGE7CQk8ZyBpZD0ic2hhcGUzOTMzLTIyIiB0cmFuc2Zvcm09InRyYW5zbGF0ZSgzLjU1Mzg1LC03LjEwNzY5KSI+JiN4YTsJCQk8dGl0bGUgaWQ9InRpdGxlNDQ4MTIiPmxpbmUxNTkyODwvdGl0bGU+JiN4YTsJCQkmI3hhOwkJCQk8cGF0aCBpZD0icGF0aDQ0ODE0IiBpbmtzY2FwZTpjb25uZWN0b3ItY3VydmF0dXJlPSIwIiBzdHlsZT0iZmlsbDpub25lO3N0cm9rZTojQTdBOUFDO3N0cm9rZS13aWR0aDoxLjU7c3Ryb2tlLW1pdGVybGltaXQ6MzsiIGQ9IiAgICAgTTAsMzQuNDhoMTYuMjUiLz4mI3hhOwkJPC9nPiYjeGE7CTwvZz4mI3hhOzwvZz4mI3hhOzwvc3ZnPg==;" parent="1" vertex="1">
          <mxGeometry x="8.5" y="387" width="25" height="33" as="geometry" />
        </mxCell>
        <mxCell id="4ndBJUu1C0Kb1_ytCzMU-3" value="" style="shape=image;verticalLabelPosition=bottom;labelBackgroundColor=#ffffff;verticalAlign=top;aspect=fixed;imageAspect=0;image=data:image/svg+xml,PHN2ZyB4bWxuczpjYz0iaHR0cDovL2NyZWF0aXZlY29tbW9ucy5vcmcvbnMjIiB4bWxuczpkYz0iaHR0cDovL3B1cmwub3JnL2RjL2VsZW1lbnRzLzEuMS8iIHhtbG5zOmlua3NjYXBlPSJodHRwOi8vd3d3Lmlua3NjYXBlLm9yZy9uYW1lc3BhY2VzL2lua3NjYXBlIiB4bWxuczpyZGY9Imh0dHA6Ly93d3cudzMub3JnLzE5OTkvMDIvMjItcmRmLXN5bnRheC1ucyMiIHhtbG5zOnNvZGlwb2RpPSJodHRwOi8vc29kaXBvZGkuc291cmNlZm9yZ2UubmV0L0RURC9zb2RpcG9kaS0wLmR0ZCIgeG1sbnM6c3ZnPSJodHRwOi8vd3d3LnczLm9yZy8yMDAwL3N2ZyIgeG1sbnM9Imh0dHA6Ly93d3cudzMub3JnLzIwMDAvc3ZnIiB4bWxuczp4bGluaz0iaHR0cDovL3d3dy53My5vcmcvMTk5OS94bGluayIgdmVyc2lvbj0iMS4xIiBpZD0ic3ZnMTgxNTczIiBpbmtzY2FwZTp2ZXJzaW9uPSIwLjkyLjMgKDI0MDU1NDYsIDIwMTgtMDMtMTEpIiBzb2RpcG9kaTpkb2NuYW1lPSJqc29uLnN2ZyIgeD0iMHB4IiB5PSIwcHgiIHZpZXdCb3g9IjAgMCA3Ni41IDc1LjYzIiBzdHlsZT0iZW5hYmxlLWJhY2tncm91bmQ6bmV3IDAgMCA3Ni41IDc1LjYzOyIgeG1sOnNwYWNlPSJwcmVzZXJ2ZSI+JiN4YTs8c29kaXBvZGk6bmFtZWR2aWV3IGJvcmRlcmNvbG9yPSIjNjY2NjY2IiBib3JkZXJvcGFjaXR5PSIxIiBmaXQtbWFyZ2luLWJvdHRvbT0iMCIgZml0LW1hcmdpbi1sZWZ0PSIwIiBmaXQtbWFyZ2luLXJpZ2h0PSIwIiBmaXQtbWFyZ2luLXRvcD0iMCIgZ3JpZHRvbGVyYW5jZT0iMTAiIGd1aWRldG9sZXJhbmNlPSIxMCIgaWQ9Im5hbWVkdmlldzE4MTU3NSIgaW5rc2NhcGU6Y3VycmVudC1sYXllcj0ic3ZnMTgxNTczIiBpbmtzY2FwZTpjeD0iNTEiIGlua3NjYXBlOmN5PSI1MC40MjEyNjciIGlua3NjYXBlOnBhZ2VvcGFjaXR5PSIwIiBpbmtzY2FwZTpwYWdlc2hhZG93PSIyIiBpbmtzY2FwZTp3aW5kb3ctaGVpZ2h0PSIxMDE3IiBpbmtzY2FwZTp3aW5kb3ctbWF4aW1pemVkPSIxIiBpbmtzY2FwZTp3aW5kb3ctd2lkdGg9IjE5MjAiIGlua3NjYXBlOndpbmRvdy14PSItOCIgaW5rc2NhcGU6d2luZG93LXk9Ii04IiBpbmtzY2FwZTp6b29tPSI4LjU5Nzk5NjkiIG9iamVjdHRvbGVyYW5jZT0iMTAiIHBhZ2Vjb2xvcj0iI2ZmZmZmZiIgc2hvd2dyaWQ9ImZhbHNlIj4mI3hhOwk8L3NvZGlwb2RpOm5hbWVkdmlldz4mI3hhOzxnIGlkPSJnMTgxNTcxIj4mI3hhOwk8dGl0bGUgaWQ9InRpdGxlMTgxNTEyIj5QYWdlLTE8L3RpdGxlPiYjeGE7CTxnIGlkPSJncm91cDEwNzctMSI+JiN4YTsJCTx0aXRsZSBpZD0idGl0bGUxODE1MTQiPkpTT048L3RpdGxlPiYjeGE7CQk8ZyBpZD0ic2hhcGUxMDc4LTIiPiYjeGE7CQkJPHRpdGxlIGlkPSJ0aXRsZTE4MTUxNiI+U2hlZXQuMTA3ODwvdGl0bGU+JiN4YTsJCQk8cGF0aCBpZD0icGF0aDE4MTUxOCIgaW5rc2NhcGU6Y29ubmVjdG9yLWN1cnZhdHVyZT0iMCIgc3R5bGU9ImZpbGw6Izk3NzdBODsiIGQ9Ik0wLDM3LjgxQzAsMTYuOTQsMTcuMTMsMCwzOC4yNSwwICAgICBDNTkuNDIsMCw3Ni41LDE2Ljk0LDc2LjUsMzcuODFjMCwyMC45My0xNy4wOCwzNy44Mi0zOC4yNSwzNy44MkMxNy4xMyw3NS42MywwLDU4Ljc0LDAsMzcuODF6Ii8+JiN4YTsJCTwvZz4mI3hhOwkJPGcgaWQ9Imdyb3VwMTA3OS00IiB0cmFuc2Zvcm09InRyYW5zbGF0ZSgxNS42NTM0LC0xNy4zOTk4KSI+JiN4YTsJCQk8dGl0bGUgaWQ9InRpdGxlMTgxNTIxIj5TaGVldC4xMDc5PC90aXRsZT4mI3hhOwkJCTxnIGlkPSJncm91cDEwODAtNSIgdHJhbnNmb3JtPSJ0cmFuc2xhdGUoNi43NDUzLC0xNi40NDE5KSI+JiN4YTsJCQkJPHRpdGxlIGlkPSJ0aXRsZTE4MTUyMyI+U2hlZXQuMTA4MDwvdGl0bGU+JiN4YTsJCQkJPGcgaWQ9InNoYXBlMTA4MS02Ij4mI3hhOwkJCQkJPHRpdGxlIGlkPSJ0aXRsZTE4MTUyNSI+U2hlZXQuMTA4MTwvdGl0bGU+JiN4YTsJCQkJCTxwYXRoIGlkPSJwYXRoMTgxNTI3IiBpbmtzY2FwZTpjb25uZWN0b3ItY3VydmF0dXJlPSIwIiBzdHlsZT0iZmlsbDojRkZGRkZGOyIgZD0iTTYuMSw1OS43OFY1NC45YzAtMC42NywwLjU0LTEuMjIsMS4yMi0xLjIyICAgICAgIGMwLjY3LDAsMS4yMi0wLjU1LDEuMjItMS4yMmMwLTAuNjctMC41NS0xLjIyLTEuMjItMS4yMmMtMi4wMiwwLTMuNjYsMS42NC0zLjY2LDMuNjZ2NC44OGMwLDEuMzQtMS4xLDIuNDQtMi40NCwyLjQ0ICAgICAgIEMwLjU1LDYyLjIyLDAsNjIuNzYsMCw2My40M2MwLDAuNjgsMC41NSwxLjIyLDEuMjIsMS4yMmMxLjM0LDAsMi40NCwxLjEsMi40NCwyLjQ0djQuODhjMCwyLjAyLDEuNjQsMy42NiwzLjY2LDMuNjYgICAgICAgYzAuNjcsMCwxLjIyLTAuNTUsMS4yMi0xLjIycy0wLjU1LTEuMjItMS4yMi0xLjIyYy0wLjY4LDAtMS4yMi0wLjU1LTEuMjItMS4yMnYtNC44OGMwLTEuNDYtMC42Ni0yLjc2LTEuNjktMy42NiAgICAgICBDNS40NCw2Mi41NCw2LjEsNjEuMjQsNi4xLDU5Ljc4eiIvPiYjeGE7CQkJCTwvZz4mI3hhOwkJCQk8ZyBpZD0ic2hhcGUxMDgyLTgiIHRyYW5zZm9ybT0idHJhbnNsYXRlKDE0LjAyMjMsLTE0LjYzMikiPiYjeGE7CQkJCQk8dGl0bGUgaWQ9InRpdGxlMTgxNTMwIj5TaGVldC4xMDgyPC90aXRsZT4mI3hhOwkJCQkJPGNpcmNsZSBpZD0iZWxsaXBzZTE4MTUzMiIgc3R5bGU9ImZpbGw6I0ZGRkZGRjsiIGN4PSIxLjgzIiBjeT0iNzMuOCIgcj0iMS44MyIvPiYjeGE7CQkJCTwvZz4mI3hhOwkJCQk8ZyBpZD0ic2hhcGUxMDgzLTEwIiB0cmFuc2Zvcm09InRyYW5zbGF0ZSgyMy4xNjczKSI+JiN4YTsJCQkJCTx0aXRsZSBpZD0idGl0bGUxODE1MzUiPlNoZWV0LjEwODM8L3RpdGxlPiYjeGE7CQkJCQk8cGF0aCBpZD0icGF0aDE4MTUzNyIgaW5rc2NhcGU6Y29ubmVjdG9yLWN1cnZhdHVyZT0iMCIgc3R5bGU9ImZpbGw6I0ZGRkZGRjsiIGQ9Ik03LjMyLDYyLjIyYy0xLjM1LDAtMi40NC0xLjEtMi40NC0yLjQ0VjU0LjkgICAgICAgYzAtMi4wMi0xLjY0LTMuNjYtMy42Ni0zLjY2QzAuNTUsNTEuMjQsMCw1MS43OSwwLDUyLjQ2YzAsMC42NywwLjU1LDEuMjIsMS4yMiwxLjIyczEuMjIsMC41NSwxLjIyLDEuMjJ2NC44OCAgICAgICBjMCwxLjQ2LDAuNjYsMi43NiwxLjY4LDMuNjVjLTEuMDIsMC45LTEuNjgsMi4yLTEuNjgsMy42NnY0Ljg4YzAsMC42Ny0wLjU1LDEuMjItMS4yMiwxLjIyUzAsNzMuNzQsMCw3NC40MSAgICAgICBzMC41NSwxLjIyLDEuMjIsMS4yMmMyLjAyLDAsMy42Ni0xLjY0LDMuNjYtMy42NnYtNC44OGMwLTEuMzQsMS4wOS0yLjQ0LDIuNDQtMi40NGMwLjY3LDAsMS4yMi0wLjU0LDEuMjItMS4yMiAgICAgICBDOC41NCw2Mi43Niw3Ljk5LDYyLjIyLDcuMzIsNjIuMjJ6Ii8+JiN4YTsJCQkJPC9nPiYjeGE7CQkJCTxnIGlkPSJzaGFwZTEwODQtMTIiIHRyYW5zZm9ybT0idHJhbnNsYXRlKDE0LjYzMiwtMy42NTc5OSkiPiYjeGE7CQkJCQk8dGl0bGUgaWQ9InRpdGxlMTgxNTQwIj5TaGVldC4xMDg0PC90aXRsZT4mI3hhOwkJCQkJPHBhdGggaWQ9InBhdGgxODE1NDIiIGlua3NjYXBlOmNvbm5lY3Rvci1jdXJ2YXR1cmU9IjAiIHN0eWxlPSJmaWxsOiNGRkZGRkY7IiBkPSJNMS4yMiw2OS41M0MwLjU1LDY5LjUzLDAsNzAuMDgsMCw3MC43NXYzLjY2ICAgICAgIGMwLDAuNjcsMC41NSwxLjIyLDEuMjIsMS4yMnMxLjIyLTAuNTUsMS4yMi0xLjIydi0zLjY2QzIuNDQsNzAuMDgsMS44OSw2OS41MywxLjIyLDY5LjUzeiIvPiYjeGE7CQkJCTwvZz4mI3hhOwkJCTwvZz4mI3hhOwkJCTxnIGlkPSJncm91cDEwODUtMTQiPiYjeGE7CQkJCTx0aXRsZSBpZD0idGl0bGUxODE1NDYiPlNoZWV0LjEwODU8L3RpdGxlPiYjeGE7CQkJCTxnIGlkPSJzaGFwZTEwODYtMTUiPiYjeGE7CQkJCQk8dGl0bGUgaWQ9InRpdGxlMTgxNTQ4Ij5TaGVldC4xMDg2PC90aXRsZT4mI3hhOwkJCQkJPHBhdGggaWQ9InBhdGgxODE1NTAiIGlua3NjYXBlOmNvbm5lY3Rvci1jdXJ2YXR1cmU9IjAiIHN0eWxlPSJmaWxsOiNGRkZGRkY7IiBkPSJNOC4yNCw2MS44djEwLjQ5YzAsMC42My0wLjEyLDEuMTYtMC4zNSwxLjU5ICAgICAgIGMtMC4yMywwLjQ0LTAuNTQsMC43OC0wLjkzLDEuMDVjLTAuMzksMC4yNi0wLjg0LDAuNDQtMS4zNCwwLjU0Yy0wLjUxLDAuMTEtMS4wMywwLjE2LTEuNTYsMC4xNmMtMC4yNywwLTAuNTktMC4wMy0wLjk1LTAuMDggICAgICAgQzIuNzYsNzUuNDksMi4zOCw3NS40MSwyLDc1LjI5cy0wLjc1LTAuMjUtMS4xLTAuMzljLTAuMzYtMC4xNS0wLjY2LTAuMzEtMC45LTAuNWwwLjkzLTEuNDdjMC4xMiwwLjA4LDAuMywwLjE3LDAuNTIsMC4yNiAgICAgICBjMC4yMywwLjA5LDAuNDgsMC4xOCwwLjc0LDAuMjVjMC4yNywwLjA4LDAuNTUsMC4xNSwwLjg0LDAuMjFjMC4zLDAuMDcsMC41NywwLjEsMC44MiwwLjFjMC42NSwwLDEuMTYtMC4xMywxLjU1LTAuMzggICAgICAgYzAuMzgtMC4yNSwwLjU4LTAuNjcsMC42MS0xLjI3VjYxLjhIOC4yNHoiLz4mI3hhOwkJCQk8L2c+JiN4YTsJCQkJPGcgaWQ9InNoYXBlMTA4Ny0xNyIgdHJhbnNmb3JtPSJ0cmFuc2xhdGUoMTEuMzI0NywtMC4wMTg3MDUyKSI+JiN4YTsJCQkJCTx0aXRsZSBpZD0idGl0bGUxODE1NTMiPlNoZWV0LjEwODc8L3RpdGxlPiYjeGE7CQkJCQk8cGF0aCBpZD0icGF0aDE4MTU1NSIgaW5rc2NhcGU6Y29ubmVjdG9yLWN1cnZhdHVyZT0iMCIgc3R5bGU9ImZpbGw6I0ZGRkZGRjsiIGQ9Ik03LjgyLDcxLjg3YzAsMC40OC0wLjEsMC45NS0wLjMsMS40MSAgICAgICBjLTAuMiwwLjQ2LTAuNDksMC44Ni0wLjg1LDEuMjFjLTAuMzcsMC4zNC0wLjgyLDAuNjItMS4zNSwwLjgzYy0wLjU0LDAuMjEtMS4xNSwwLjMxLTEuODMsMC4zMWMtMC4yOSwwLTAuNTktMC4wMi0wLjktMC4wNSAgICAgICBjLTAuMzItMC4wMy0wLjYzLTAuMDgtMC45NS0wLjE1Yy0wLjMxLTAuMDgtMC42MS0wLjE4LTAuOS0wLjNDMC40NSw3NSwwLjIxLDc0Ljg0LDAsNzQuNjZsMC4zOC0xLjU3ICAgICAgIGMwLjE3LDAuMSwwLjM5LDAuMTksMC42NSwwLjI4czAuNTMsMC4xOCwwLjgxLDAuMjZzMC41NiwwLjE0LDAuODQsMC4xOXMwLjU1LDAuMDcsMC43OSwwLjA3YzAuNzQsMCwxLjMxLTAuMTcsMS43MS0wLjUyICAgICAgIGMwLjM5LTAuMzUsMC41OS0wLjg2LDAuNTktMS41NGMwLTAuNDItMC4xNC0wLjc3LTAuNDItMS4wNmMtMC4yOC0wLjI5LTAuNjMtMC41Ni0xLjA1LTAuOGMtMC40Mi0wLjIzLTAuODctMC40Ny0xLjM2LTAuNzEgICAgICAgQzIuNDUsNjkuMDIsMiw2OC43NCwxLjU3LDY4LjQycy0wLjc4LTAuNy0xLjA2LTEuMTRzLTAuNDItMC45OS0wLjQyLTEuNjRjMC0wLjYsMC4xMS0xLjEzLDAuMzMtMS41OXMwLjUxLTAuODYsMC44OS0xLjE4ICAgICAgIGMwLjM3LTAuMzIsMC44LTAuNTcsMS4yOS0wLjc0YzAuNS0wLjE3LDEuMDItMC4yNiwxLjU2LTAuMjZjMC41NiwwLDEuMTMsMC4wNiwxLjcsMC4xNnMxLjA0LDAuMjcsMS4zOSwwLjUgICAgICAgQzcuMTgsNjIuNjksNy4wOSw2Mi44Niw3LDYzLjA1Yy0wLjEsMC4xOS0wLjE5LDAuMzctMC4yOCwwLjUzYy0wLjA4LDAuMTctMC4xNiwwLjMtMC4yMiwwLjQxYy0wLjA2LDAuMTEtMC4wOSwwLjE3LTAuMTEsMC4xOSAgICAgICBjLTAuMDctMC4wNC0wLjE1LTAuMDktMC4yNC0wLjE1Yy0wLjEtMC4wNi0wLjIzLTAuMTItMC40LTAuMThjLTAuMTctMC4wNi0wLjM5LTAuMTEtMC42Ny0wLjEzQzQuOCw2My42OSw0LjQ0LDYzLjcsNCw2My43NCAgICAgICBjLTAuMjUsMC4wMi0wLjQ4LDAuMDktMC43LDAuMjFjLTAuMjIsMC4xMS0wLjQxLDAuMjYtMC41OCwwLjQzYy0wLjE3LDAuMTctMC4zMSwwLjM2LTAuNCwwLjU3Yy0wLjEsMC4yMi0wLjE1LDAuNDItMC4xNSwwLjYxICAgICAgIGMwLDAuNDksMC4xNCwwLjg4LDAuNDIsMS4xOHMwLjYzLDAuNTYsMS4wNCwwLjc5YzAuNDEsMC4yMiwwLjg3LDAuNDQsMS4zNSwwLjY2YzAuNDksMC4yMSwwLjk0LDAuNDcsMS4zNywwLjc3ICAgICAgIGMwLjQyLDAuMzEsMC43NiwwLjY5LDEuMDUsMS4xNEM3LjY4LDcwLjU2LDcuODIsNzEuMTUsNy44Miw3MS44N3oiLz4mI3hhOwkJCQk8L2c+JiN4YTsJCQkJPGcgaWQ9InNoYXBlMTA4OC0xOSIgdHJhbnNmb3JtPSJ0cmFuc2xhdGUoMjEuMTU0MykiPiYjeGE7CQkJCQk8dGl0bGUgaWQ9InRpdGxlMTgxNTU4Ij5TaGVldC4xMDg4PC90aXRsZT4mI3hhOwkJCQkJPHBhdGggaWQ9InBhdGgxODE1NjAiIGlua3NjYXBlOmNvbm5lY3Rvci1jdXJ2YXR1cmU9IjAiIHN0eWxlPSJmaWxsOiNGRkZGRkY7IiBkPSJNMTEuMjIsNjguNzRjMCwxLjEzLTAuMTUsMi4xMy0wLjQzLDMgICAgICAgYy0wLjI5LDAuODYtMC42OSwxLjU4LTEuMTksMi4xNWMtMC41MSwwLjU3LTEuMSwxLjAxLTEuNzcsMS4zYy0wLjY4LDAuMjktMS40MiwwLjQ0LTIuMjIsMC40NGMtMC44MSwwLTEuNTUtMC4xNS0yLjIyLTAuNDQgICAgICAgYy0wLjY4LTAuMjktMS4yNy0wLjcyLTEuNzctMS4zYy0wLjUxLTAuNTctMC45MS0xLjI5LTEuMTktMi4xNUMwLjE0LDcwLjg3LDAsNjkuODcsMCw2OC43NGMwLTEuMTMsMC4xNC0yLjEzLDAuNDMtMi45OCAgICAgICBjMC4yOC0wLjg2LDAuNjgtMS41OCwxLjE5LTIuMTVjMC41LTAuNTcsMS4wOS0xLjAxLDEuNzctMS4zMWMwLjY3LTAuMywxLjQxLTAuNDQsMi4yMi0wLjQ0YzAuOCwwLDEuNTQsMC4xNCwyLjIyLDAuNDQgICAgICAgYzAuNjcsMC4zLDEuMjYsMC43NCwxLjc3LDEuMzFjMC41LDAuNTcsMC45LDEuMjksMS4xOSwyLjE1QzExLjA3LDY2LjYxLDExLjIyLDY3LjYxLDExLjIyLDY4Ljc0eiBNNS41NSw3My44NCAgICAgICBjMC40NSwwLDAuODgtMC4wOSwxLjI5LTAuMjdjMC40MS0wLjE3LDAuNzctMC40NiwxLjEtMC44NmMwLjMyLTAuNCwwLjU3LTAuOTMsMC43NS0xLjU4YzAuMTktMC42NiwwLjI4LTEuNDUsMC4zLTIuMzkgICAgICAgYy0wLjAyLTAuOTEtMC4xMS0xLjY5LTAuMjktMi4zM2MtMC4xNy0wLjYzLTAuNDItMS4xNi0wLjczLTEuNThjLTAuMzEtMC40MS0wLjY2LTAuNzEtMS4wNi0wLjg5ICAgICAgIGMtMC4zOS0wLjE4LTAuODEtMC4yOC0xLjI1LTAuMjhjLTAuNDUsMC0wLjg4LDAuMDktMS4yOSwwLjI2cy0wLjc3LDAuNDYtMS4wOSwwLjg3Yy0wLjMyLDAuNC0wLjU4LDAuOTMtMC43NiwxLjU4ICAgICAgIGMtMC4xOCwwLjY0LTAuMjgsMS40My0wLjI5LDIuMzdjMC4wMSwwLjkyLDAuMSwxLjY5LDAuMjgsMi4zNGMwLjE4LDAuNjUsMC40MiwxLjE3LDAuNzMsMS41OHMwLjY3LDAuNzEsMS4wNiwwLjkgICAgICAgQzQuNyw3My43NSw1LjExLDczLjg0LDUuNTUsNzMuODR6Ii8+JiN4YTsJCQkJPC9nPiYjeGE7CQkJCTxnIGlkPSJzaGFwZTEwODktMjEiIHRyYW5zZm9ybT0idHJhbnNsYXRlKDM1LjQ1NzEsLTAuMDkwODU0MSkiPiYjeGE7CQkJCQk8dGl0bGUgaWQ9InRpdGxlMTgxNTYzIj5TaGVldC4xMDg5PC90aXRsZT4mI3hhOwkJCQkJPHBhdGggaWQ9InBhdGgxODE1NjUiIGlua3NjYXBlOmNvbm5lY3Rvci1jdXJ2YXR1cmU9IjAiIHN0eWxlPSJmaWxsOiNGRkZGRkY7IiBkPSJNOS43NCw2Mi4xN3YxMy40Nkg3LjUxbC01LjI4LTkuMjh2OS4yOEgwICAgICAgIFY2Mi4xN2gyLjIzbDUuMjgsOS4yN3YtOS4yN0w5Ljc0LDYyLjE3eiIvPiYjeGE7CQkJCTwvZz4mI3hhOwkJCTwvZz4mI3hhOwkJPC9nPiYjeGE7CTwvZz4mI3hhOzwvZz4mI3hhOzwvc3ZnPg==;" parent="1" vertex="1">
          <mxGeometry x="870" y="740" width="37" height="36.52" as="geometry" />
        </mxCell>
        <mxCell id="4ndBJUu1C0Kb1_ytCzMU-9" style="edgeStyle=orthogonalEdgeStyle;rounded=0;orthogonalLoop=1;jettySize=auto;html=1;exitX=0.5;exitY=1;exitDx=0;exitDy=0;entryX=0.46;entryY=-0.033;entryDx=0;entryDy=0;entryPerimeter=0;strokeColor=#808080;" parent="1" source="UqW9Xq1WL7jgjOPIQogc-33" target="QFZf7pw_Yvivp7_EfdEL-19" edge="1">
          <mxGeometry relative="1" as="geometry" />
        </mxCell>
        <mxCell id="4ndBJUu1C0Kb1_ytCzMU-11" value="Application&amp;nbsp;&lt;div&gt;Monitoring&lt;/div&gt;" style="edgeLabel;html=1;align=center;verticalAlign=middle;resizable=0;points=[];" parent="4ndBJUu1C0Kb1_ytCzMU-9" vertex="1" connectable="0">
          <mxGeometry x="-0.2392" y="2" relative="1" as="geometry">
            <mxPoint as="offset" />
          </mxGeometry>
        </mxCell>
        <mxCell id="4ndBJUu1C0Kb1_ytCzMU-10" value="" style="image;aspect=fixed;html=1;points=[];align=center;fontSize=12;image=img/lib/azure2/management_governance/Metrics.svg;" parent="1" vertex="1">
          <mxGeometry x="1310" y="1120" width="37.64" height="40" as="geometry" />
        </mxCell>
        <mxCell id="4ndBJUu1C0Kb1_ytCzMU-12" style="edgeStyle=orthogonalEdgeStyle;rounded=0;orthogonalLoop=1;jettySize=auto;html=1;exitX=0.25;exitY=0;exitDx=0;exitDy=0;entryX=0.512;entryY=1.044;entryDx=0;entryDy=0;entryPerimeter=0;strokeColor=#808080;" parent="1" source="UqW9Xq1WL7jgjOPIQogc-33" target="QFZf7pw_Yvivp7_EfdEL-22" edge="1">
          <mxGeometry relative="1" as="geometry" />
        </mxCell>
        <mxCell id="4ndBJUu1C0Kb1_ytCzMU-32" style="edgeStyle=orthogonalEdgeStyle;rounded=0;orthogonalLoop=1;jettySize=auto;html=1;exitX=0.5;exitY=0;exitDx=0;exitDy=0;entryX=0.41;entryY=0;entryDx=0;entryDy=0;dashed=1;strokeColor=#808080;entryPerimeter=0;" parent="1" source="4ndBJUu1C0Kb1_ytCzMU-13" target="UqW9Xq1WL7jgjOPIQogc-7" edge="1">
          <mxGeometry relative="1" as="geometry" />
        </mxCell>
        <mxCell id="4ndBJUu1C0Kb1_ytCzMU-33" value="Retry record&amp;nbsp;&lt;div&gt;processor&lt;/div&gt;" style="edgeLabel;html=1;align=center;verticalAlign=middle;resizable=0;points=[];" parent="4ndBJUu1C0Kb1_ytCzMU-32" vertex="1" connectable="0">
          <mxGeometry x="-0.1571" y="2" relative="1" as="geometry">
            <mxPoint as="offset" />
          </mxGeometry>
        </mxCell>
        <mxCell id="4ndBJUu1C0Kb1_ytCzMU-13" value="Retry Finalizer" style="rounded=0;whiteSpace=wrap;html=1;fillColor=#f5f5f5;strokeColor=none;fontColor=#333333;verticalAlign=top;" parent="1" vertex="1">
          <mxGeometry x="1303.5" y="290" width="135" height="151" as="geometry" />
        </mxCell>
        <mxCell id="4ndBJUu1C0Kb1_ytCzMU-14" value="RetryProcessor&amp;nbsp;&lt;div&gt;App&lt;/div&gt;" style="aspect=fixed;html=1;perimeter=none;align=center;shadow=0;dashed=0;image;fontSize=12;image=img/lib/mscae/WebApp_WebJobs.svg;labelBackgroundColor=none;" parent="1" vertex="1">
          <mxGeometry x="1339.9999999999998" y="335" width="64" height="64" as="geometry" />
        </mxCell>
        <mxCell id="4ndBJUu1C0Kb1_ytCzMU-20" style="edgeStyle=orthogonalEdgeStyle;rounded=0;orthogonalLoop=1;jettySize=auto;html=1;exitX=0.37;exitY=1;exitDx=0;exitDy=0;exitPerimeter=0;entryX=0.225;entryY=0.033;entryDx=0;entryDy=0;entryPerimeter=0;strokeColor=#808080;" parent="1" source="UqW9Xq1WL7jgjOPIQogc-7" target="UqW9Xq1WL7jgjOPIQogc-10" edge="1">
          <mxGeometry relative="1" as="geometry" />
        </mxCell>
        <mxCell id="4ndBJUu1C0Kb1_ytCzMU-22" style="edgeStyle=orthogonalEdgeStyle;rounded=0;orthogonalLoop=1;jettySize=auto;html=1;exitX=0;exitY=0;exitDx=0;exitDy=0;entryX=0.598;entryY=-0.02;entryDx=0;entryDy=0;entryPerimeter=0;strokeColor=#808080;" parent="1" target="UqW9Xq1WL7jgjOPIQogc-10" edge="1">
          <mxGeometry relative="1" as="geometry">
            <mxPoint x="1216.215" y="652.0699999999999" as="sourcePoint" />
            <mxPoint x="746.2900000000002" y="537" as="targetPoint" />
            <Array as="points">
              <mxPoint x="1214" y="652" />
              <mxPoint x="1214" y="517" />
              <mxPoint x="746" y="517" />
              <mxPoint x="746" y="567" />
            </Array>
          </mxGeometry>
        </mxCell>
        <mxCell id="gfm_nSeY3BKA6nFXt_tZ-2" value="Rules Configuration" style="edgeLabel;html=1;align=center;verticalAlign=middle;resizable=0;points=[];" vertex="1" connectable="0" parent="4ndBJUu1C0Kb1_ytCzMU-22">
          <mxGeometry x="-0.0875" y="-1" relative="1" as="geometry">
            <mxPoint y="-10" as="offset" />
          </mxGeometry>
        </mxCell>
        <mxCell id="4ndBJUu1C0Kb1_ytCzMU-23" style="edgeStyle=orthogonalEdgeStyle;rounded=0;orthogonalLoop=1;jettySize=auto;html=1;exitX=1;exitY=0.469;exitDx=0;exitDy=0;exitPerimeter=0;entryX=0;entryY=0.5;entryDx=0;entryDy=0;entryPerimeter=0;strokeColor=#808080;" parent="1" source="UqW9Xq1WL7jgjOPIQogc-12" target="UqW9Xq1WL7jgjOPIQogc-18" edge="1">
          <mxGeometry relative="1" as="geometry" />
        </mxCell>
        <mxCell id="4ndBJUu1C0Kb1_ytCzMU-24" value="Standardized&amp;nbsp;&lt;div&gt;POJO Objects&lt;/div&gt;" style="edgeLabel;html=1;align=center;verticalAlign=middle;resizable=0;points=[];labelBackgroundColor=#f5f5f5;" parent="4ndBJUu1C0Kb1_ytCzMU-23" vertex="1" connectable="0">
          <mxGeometry x="-0.2205" y="-2" relative="1" as="geometry">
            <mxPoint x="8" y="-21" as="offset" />
          </mxGeometry>
        </mxCell>
        <mxCell id="4ndBJUu1C0Kb1_ytCzMU-25" value="" style="shape=image;verticalLabelPosition=bottom;labelBackgroundColor=#ffffff;verticalAlign=top;aspect=fixed;imageAspect=0;image=data:image/svg+xml,PHN2ZyB4bWxuczpjYz0iaHR0cDovL2NyZWF0aXZlY29tbW9ucy5vcmcvbnMjIiB4bWxuczpkYz0iaHR0cDovL3B1cmwub3JnL2RjL2VsZW1lbnRzLzEuMS8iIHhtbG5zOmlua3NjYXBlPSJodHRwOi8vd3d3Lmlua3NjYXBlLm9yZy9uYW1lc3BhY2VzL2lua3NjYXBlIiB4bWxuczpyZGY9Imh0dHA6Ly93d3cudzMub3JnLzE5OTkvMDIvMjItcmRmLXN5bnRheC1ucyMiIHhtbG5zOnNvZGlwb2RpPSJodHRwOi8vc29kaXBvZGkuc291cmNlZm9yZ2UubmV0L0RURC9zb2RpcG9kaS0wLmR0ZCIgeG1sbnM6c3ZnPSJodHRwOi8vd3d3LnczLm9yZy8yMDAwL3N2ZyIgeG1sbnM9Imh0dHA6Ly93d3cudzMub3JnLzIwMDAvc3ZnIiB4bWxuczp4bGluaz0iaHR0cDovL3d3dy53My5vcmcvMTk5OS94bGluayIgdmVyc2lvbj0iMS4xIiBpZD0ic3ZnMTgxNTczIiBpbmtzY2FwZTp2ZXJzaW9uPSIwLjkyLjMgKDI0MDU1NDYsIDIwMTgtMDMtMTEpIiBzb2RpcG9kaTpkb2NuYW1lPSJqc29uLnN2ZyIgeD0iMHB4IiB5PSIwcHgiIHZpZXdCb3g9IjAgMCA3Ni41IDc1LjYzIiBzdHlsZT0iZW5hYmxlLWJhY2tncm91bmQ6bmV3IDAgMCA3Ni41IDc1LjYzOyIgeG1sOnNwYWNlPSJwcmVzZXJ2ZSI+JiN4YTs8c29kaXBvZGk6bmFtZWR2aWV3IGJvcmRlcmNvbG9yPSIjNjY2NjY2IiBib3JkZXJvcGFjaXR5PSIxIiBmaXQtbWFyZ2luLWJvdHRvbT0iMCIgZml0LW1hcmdpbi1sZWZ0PSIwIiBmaXQtbWFyZ2luLXJpZ2h0PSIwIiBmaXQtbWFyZ2luLXRvcD0iMCIgZ3JpZHRvbGVyYW5jZT0iMTAiIGd1aWRldG9sZXJhbmNlPSIxMCIgaWQ9Im5hbWVkdmlldzE4MTU3NSIgaW5rc2NhcGU6Y3VycmVudC1sYXllcj0ic3ZnMTgxNTczIiBpbmtzY2FwZTpjeD0iNTEiIGlua3NjYXBlOmN5PSI1MC40MjEyNjciIGlua3NjYXBlOnBhZ2VvcGFjaXR5PSIwIiBpbmtzY2FwZTpwYWdlc2hhZG93PSIyIiBpbmtzY2FwZTp3aW5kb3ctaGVpZ2h0PSIxMDE3IiBpbmtzY2FwZTp3aW5kb3ctbWF4aW1pemVkPSIxIiBpbmtzY2FwZTp3aW5kb3ctd2lkdGg9IjE5MjAiIGlua3NjYXBlOndpbmRvdy14PSItOCIgaW5rc2NhcGU6d2luZG93LXk9Ii04IiBpbmtzY2FwZTp6b29tPSI4LjU5Nzk5NjkiIG9iamVjdHRvbGVyYW5jZT0iMTAiIHBhZ2Vjb2xvcj0iI2ZmZmZmZiIgc2hvd2dyaWQ9ImZhbHNlIj4mI3hhOwk8L3NvZGlwb2RpOm5hbWVkdmlldz4mI3hhOzxnIGlkPSJnMTgxNTcxIj4mI3hhOwk8dGl0bGUgaWQ9InRpdGxlMTgxNTEyIj5QYWdlLTE8L3RpdGxlPiYjeGE7CTxnIGlkPSJncm91cDEwNzctMSI+JiN4YTsJCTx0aXRsZSBpZD0idGl0bGUxODE1MTQiPkpTT048L3RpdGxlPiYjeGE7CQk8ZyBpZD0ic2hhcGUxMDc4LTIiPiYjeGE7CQkJPHRpdGxlIGlkPSJ0aXRsZTE4MTUxNiI+U2hlZXQuMTA3ODwvdGl0bGU+JiN4YTsJCQk8cGF0aCBpZD0icGF0aDE4MTUxOCIgaW5rc2NhcGU6Y29ubmVjdG9yLWN1cnZhdHVyZT0iMCIgc3R5bGU9ImZpbGw6Izk3NzdBODsiIGQ9Ik0wLDM3LjgxQzAsMTYuOTQsMTcuMTMsMCwzOC4yNSwwICAgICBDNTkuNDIsMCw3Ni41LDE2Ljk0LDc2LjUsMzcuODFjMCwyMC45My0xNy4wOCwzNy44Mi0zOC4yNSwzNy44MkMxNy4xMyw3NS42MywwLDU4Ljc0LDAsMzcuODF6Ii8+JiN4YTsJCTwvZz4mI3hhOwkJPGcgaWQ9Imdyb3VwMTA3OS00IiB0cmFuc2Zvcm09InRyYW5zbGF0ZSgxNS42NTM0LC0xNy4zOTk4KSI+JiN4YTsJCQk8dGl0bGUgaWQ9InRpdGxlMTgxNTIxIj5TaGVldC4xMDc5PC90aXRsZT4mI3hhOwkJCTxnIGlkPSJncm91cDEwODAtNSIgdHJhbnNmb3JtPSJ0cmFuc2xhdGUoNi43NDUzLC0xNi40NDE5KSI+JiN4YTsJCQkJPHRpdGxlIGlkPSJ0aXRsZTE4MTUyMyI+U2hlZXQuMTA4MDwvdGl0bGU+JiN4YTsJCQkJPGcgaWQ9InNoYXBlMTA4MS02Ij4mI3hhOwkJCQkJPHRpdGxlIGlkPSJ0aXRsZTE4MTUyNSI+U2hlZXQuMTA4MTwvdGl0bGU+JiN4YTsJCQkJCTxwYXRoIGlkPSJwYXRoMTgxNTI3IiBpbmtzY2FwZTpjb25uZWN0b3ItY3VydmF0dXJlPSIwIiBzdHlsZT0iZmlsbDojRkZGRkZGOyIgZD0iTTYuMSw1OS43OFY1NC45YzAtMC42NywwLjU0LTEuMjIsMS4yMi0xLjIyICAgICAgIGMwLjY3LDAsMS4yMi0wLjU1LDEuMjItMS4yMmMwLTAuNjctMC41NS0xLjIyLTEuMjItMS4yMmMtMi4wMiwwLTMuNjYsMS42NC0zLjY2LDMuNjZ2NC44OGMwLDEuMzQtMS4xLDIuNDQtMi40NCwyLjQ0ICAgICAgIEMwLjU1LDYyLjIyLDAsNjIuNzYsMCw2My40M2MwLDAuNjgsMC41NSwxLjIyLDEuMjIsMS4yMmMxLjM0LDAsMi40NCwxLjEsMi40NCwyLjQ0djQuODhjMCwyLjAyLDEuNjQsMy42NiwzLjY2LDMuNjYgICAgICAgYzAuNjcsMCwxLjIyLTAuNTUsMS4yMi0xLjIycy0wLjU1LTEuMjItMS4yMi0xLjIyYy0wLjY4LDAtMS4yMi0wLjU1LTEuMjItMS4yMnYtNC44OGMwLTEuNDYtMC42Ni0yLjc2LTEuNjktMy42NiAgICAgICBDNS40NCw2Mi41NCw2LjEsNjEuMjQsNi4xLDU5Ljc4eiIvPiYjeGE7CQkJCTwvZz4mI3hhOwkJCQk8ZyBpZD0ic2hhcGUxMDgyLTgiIHRyYW5zZm9ybT0idHJhbnNsYXRlKDE0LjAyMjMsLTE0LjYzMikiPiYjeGE7CQkJCQk8dGl0bGUgaWQ9InRpdGxlMTgxNTMwIj5TaGVldC4xMDgyPC90aXRsZT4mI3hhOwkJCQkJPGNpcmNsZSBpZD0iZWxsaXBzZTE4MTUzMiIgc3R5bGU9ImZpbGw6I0ZGRkZGRjsiIGN4PSIxLjgzIiBjeT0iNzMuOCIgcj0iMS44MyIvPiYjeGE7CQkJCTwvZz4mI3hhOwkJCQk8ZyBpZD0ic2hhcGUxMDgzLTEwIiB0cmFuc2Zvcm09InRyYW5zbGF0ZSgyMy4xNjczKSI+JiN4YTsJCQkJCTx0aXRsZSBpZD0idGl0bGUxODE1MzUiPlNoZWV0LjEwODM8L3RpdGxlPiYjeGE7CQkJCQk8cGF0aCBpZD0icGF0aDE4MTUzNyIgaW5rc2NhcGU6Y29ubmVjdG9yLWN1cnZhdHVyZT0iMCIgc3R5bGU9ImZpbGw6I0ZGRkZGRjsiIGQ9Ik03LjMyLDYyLjIyYy0xLjM1LDAtMi40NC0xLjEtMi40NC0yLjQ0VjU0LjkgICAgICAgYzAtMi4wMi0xLjY0LTMuNjYtMy42Ni0zLjY2QzAuNTUsNTEuMjQsMCw1MS43OSwwLDUyLjQ2YzAsMC42NywwLjU1LDEuMjIsMS4yMiwxLjIyczEuMjIsMC41NSwxLjIyLDEuMjJ2NC44OCAgICAgICBjMCwxLjQ2LDAuNjYsMi43NiwxLjY4LDMuNjVjLTEuMDIsMC45LTEuNjgsMi4yLTEuNjgsMy42NnY0Ljg4YzAsMC42Ny0wLjU1LDEuMjItMS4yMiwxLjIyUzAsNzMuNzQsMCw3NC40MSAgICAgICBzMC41NSwxLjIyLDEuMjIsMS4yMmMyLjAyLDAsMy42Ni0xLjY0LDMuNjYtMy42NnYtNC44OGMwLTEuMzQsMS4wOS0yLjQ0LDIuNDQtMi40NGMwLjY3LDAsMS4yMi0wLjU0LDEuMjItMS4yMiAgICAgICBDOC41NCw2Mi43Niw3Ljk5LDYyLjIyLDcuMzIsNjIuMjJ6Ii8+JiN4YTsJCQkJPC9nPiYjeGE7CQkJCTxnIGlkPSJzaGFwZTEwODQtMTIiIHRyYW5zZm9ybT0idHJhbnNsYXRlKDE0LjYzMiwtMy42NTc5OSkiPiYjeGE7CQkJCQk8dGl0bGUgaWQ9InRpdGxlMTgxNTQwIj5TaGVldC4xMDg0PC90aXRsZT4mI3hhOwkJCQkJPHBhdGggaWQ9InBhdGgxODE1NDIiIGlua3NjYXBlOmNvbm5lY3Rvci1jdXJ2YXR1cmU9IjAiIHN0eWxlPSJmaWxsOiNGRkZGRkY7IiBkPSJNMS4yMiw2OS41M0MwLjU1LDY5LjUzLDAsNzAuMDgsMCw3MC43NXYzLjY2ICAgICAgIGMwLDAuNjcsMC41NSwxLjIyLDEuMjIsMS4yMnMxLjIyLTAuNTUsMS4yMi0xLjIydi0zLjY2QzIuNDQsNzAuMDgsMS44OSw2OS41MywxLjIyLDY5LjUzeiIvPiYjeGE7CQkJCTwvZz4mI3hhOwkJCTwvZz4mI3hhOwkJCTxnIGlkPSJncm91cDEwODUtMTQiPiYjeGE7CQkJCTx0aXRsZSBpZD0idGl0bGUxODE1NDYiPlNoZWV0LjEwODU8L3RpdGxlPiYjeGE7CQkJCTxnIGlkPSJzaGFwZTEwODYtMTUiPiYjeGE7CQkJCQk8dGl0bGUgaWQ9InRpdGxlMTgxNTQ4Ij5TaGVldC4xMDg2PC90aXRsZT4mI3hhOwkJCQkJPHBhdGggaWQ9InBhdGgxODE1NTAiIGlua3NjYXBlOmNvbm5lY3Rvci1jdXJ2YXR1cmU9IjAiIHN0eWxlPSJmaWxsOiNGRkZGRkY7IiBkPSJNOC4yNCw2MS44djEwLjQ5YzAsMC42My0wLjEyLDEuMTYtMC4zNSwxLjU5ICAgICAgIGMtMC4yMywwLjQ0LTAuNTQsMC43OC0wLjkzLDEuMDVjLTAuMzksMC4yNi0wLjg0LDAuNDQtMS4zNCwwLjU0Yy0wLjUxLDAuMTEtMS4wMywwLjE2LTEuNTYsMC4xNmMtMC4yNywwLTAuNTktMC4wMy0wLjk1LTAuMDggICAgICAgQzIuNzYsNzUuNDksMi4zOCw3NS40MSwyLDc1LjI5cy0wLjc1LTAuMjUtMS4xLTAuMzljLTAuMzYtMC4xNS0wLjY2LTAuMzEtMC45LTAuNWwwLjkzLTEuNDdjMC4xMiwwLjA4LDAuMywwLjE3LDAuNTIsMC4yNiAgICAgICBjMC4yMywwLjA5LDAuNDgsMC4xOCwwLjc0LDAuMjVjMC4yNywwLjA4LDAuNTUsMC4xNSwwLjg0LDAuMjFjMC4zLDAuMDcsMC41NywwLjEsMC44MiwwLjFjMC42NSwwLDEuMTYtMC4xMywxLjU1LTAuMzggICAgICAgYzAuMzgtMC4yNSwwLjU4LTAuNjcsMC42MS0xLjI3VjYxLjhIOC4yNHoiLz4mI3hhOwkJCQk8L2c+JiN4YTsJCQkJPGcgaWQ9InNoYXBlMTA4Ny0xNyIgdHJhbnNmb3JtPSJ0cmFuc2xhdGUoMTEuMzI0NywtMC4wMTg3MDUyKSI+JiN4YTsJCQkJCTx0aXRsZSBpZD0idGl0bGUxODE1NTMiPlNoZWV0LjEwODc8L3RpdGxlPiYjeGE7CQkJCQk8cGF0aCBpZD0icGF0aDE4MTU1NSIgaW5rc2NhcGU6Y29ubmVjdG9yLWN1cnZhdHVyZT0iMCIgc3R5bGU9ImZpbGw6I0ZGRkZGRjsiIGQ9Ik03LjgyLDcxLjg3YzAsMC40OC0wLjEsMC45NS0wLjMsMS40MSAgICAgICBjLTAuMiwwLjQ2LTAuNDksMC44Ni0wLjg1LDEuMjFjLTAuMzcsMC4zNC0wLjgyLDAuNjItMS4zNSwwLjgzYy0wLjU0LDAuMjEtMS4xNSwwLjMxLTEuODMsMC4zMWMtMC4yOSwwLTAuNTktMC4wMi0wLjktMC4wNSAgICAgICBjLTAuMzItMC4wMy0wLjYzLTAuMDgtMC45NS0wLjE1Yy0wLjMxLTAuMDgtMC42MS0wLjE4LTAuOS0wLjNDMC40NSw3NSwwLjIxLDc0Ljg0LDAsNzQuNjZsMC4zOC0xLjU3ICAgICAgIGMwLjE3LDAuMSwwLjM5LDAuMTksMC42NSwwLjI4czAuNTMsMC4xOCwwLjgxLDAuMjZzMC41NiwwLjE0LDAuODQsMC4xOXMwLjU1LDAuMDcsMC43OSwwLjA3YzAuNzQsMCwxLjMxLTAuMTcsMS43MS0wLjUyICAgICAgIGMwLjM5LTAuMzUsMC41OS0wLjg2LDAuNTktMS41NGMwLTAuNDItMC4xNC0wLjc3LTAuNDItMS4wNmMtMC4yOC0wLjI5LTAuNjMtMC41Ni0xLjA1LTAuOGMtMC40Mi0wLjIzLTAuODctMC40Ny0xLjM2LTAuNzEgICAgICAgQzIuNDUsNjkuMDIsMiw2OC43NCwxLjU3LDY4LjQycy0wLjc4LTAuNy0xLjA2LTEuMTRzLTAuNDItMC45OS0wLjQyLTEuNjRjMC0wLjYsMC4xMS0xLjEzLDAuMzMtMS41OXMwLjUxLTAuODYsMC44OS0xLjE4ICAgICAgIGMwLjM3LTAuMzIsMC44LTAuNTcsMS4yOS0wLjc0YzAuNS0wLjE3LDEuMDItMC4yNiwxLjU2LTAuMjZjMC41NiwwLDEuMTMsMC4wNiwxLjcsMC4xNnMxLjA0LDAuMjcsMS4zOSwwLjUgICAgICAgQzcuMTgsNjIuNjksNy4wOSw2Mi44Niw3LDYzLjA1Yy0wLjEsMC4xOS0wLjE5LDAuMzctMC4yOCwwLjUzYy0wLjA4LDAuMTctMC4xNiwwLjMtMC4yMiwwLjQxYy0wLjA2LDAuMTEtMC4wOSwwLjE3LTAuMTEsMC4xOSAgICAgICBjLTAuMDctMC4wNC0wLjE1LTAuMDktMC4yNC0wLjE1Yy0wLjEtMC4wNi0wLjIzLTAuMTItMC40LTAuMThjLTAuMTctMC4wNi0wLjM5LTAuMTEtMC42Ny0wLjEzQzQuOCw2My42OSw0LjQ0LDYzLjcsNCw2My43NCAgICAgICBjLTAuMjUsMC4wMi0wLjQ4LDAuMDktMC43LDAuMjFjLTAuMjIsMC4xMS0wLjQxLDAuMjYtMC41OCwwLjQzYy0wLjE3LDAuMTctMC4zMSwwLjM2LTAuNCwwLjU3Yy0wLjEsMC4yMi0wLjE1LDAuNDItMC4xNSwwLjYxICAgICAgIGMwLDAuNDksMC4xNCwwLjg4LDAuNDIsMS4xOHMwLjYzLDAuNTYsMS4wNCwwLjc5YzAuNDEsMC4yMiwwLjg3LDAuNDQsMS4zNSwwLjY2YzAuNDksMC4yMSwwLjk0LDAuNDcsMS4zNywwLjc3ICAgICAgIGMwLjQyLDAuMzEsMC43NiwwLjY5LDEuMDUsMS4xNEM3LjY4LDcwLjU2LDcuODIsNzEuMTUsNy44Miw3MS44N3oiLz4mI3hhOwkJCQk8L2c+JiN4YTsJCQkJPGcgaWQ9InNoYXBlMTA4OC0xOSIgdHJhbnNmb3JtPSJ0cmFuc2xhdGUoMjEuMTU0MykiPiYjeGE7CQkJCQk8dGl0bGUgaWQ9InRpdGxlMTgxNTU4Ij5TaGVldC4xMDg4PC90aXRsZT4mI3hhOwkJCQkJPHBhdGggaWQ9InBhdGgxODE1NjAiIGlua3NjYXBlOmNvbm5lY3Rvci1jdXJ2YXR1cmU9IjAiIHN0eWxlPSJmaWxsOiNGRkZGRkY7IiBkPSJNMTEuMjIsNjguNzRjMCwxLjEzLTAuMTUsMi4xMy0wLjQzLDMgICAgICAgYy0wLjI5LDAuODYtMC42OSwxLjU4LTEuMTksMi4xNWMtMC41MSwwLjU3LTEuMSwxLjAxLTEuNzcsMS4zYy0wLjY4LDAuMjktMS40MiwwLjQ0LTIuMjIsMC40NGMtMC44MSwwLTEuNTUtMC4xNS0yLjIyLTAuNDQgICAgICAgYy0wLjY4LTAuMjktMS4yNy0wLjcyLTEuNzctMS4zYy0wLjUxLTAuNTctMC45MS0xLjI5LTEuMTktMi4xNUMwLjE0LDcwLjg3LDAsNjkuODcsMCw2OC43NGMwLTEuMTMsMC4xNC0yLjEzLDAuNDMtMi45OCAgICAgICBjMC4yOC0wLjg2LDAuNjgtMS41OCwxLjE5LTIuMTVjMC41LTAuNTcsMS4wOS0xLjAxLDEuNzctMS4zMWMwLjY3LTAuMywxLjQxLTAuNDQsMi4yMi0wLjQ0YzAuOCwwLDEuNTQsMC4xNCwyLjIyLDAuNDQgICAgICAgYzAuNjcsMC4zLDEuMjYsMC43NCwxLjc3LDEuMzFjMC41LDAuNTcsMC45LDEuMjksMS4xOSwyLjE1QzExLjA3LDY2LjYxLDExLjIyLDY3LjYxLDExLjIyLDY4Ljc0eiBNNS41NSw3My44NCAgICAgICBjMC40NSwwLDAuODgtMC4wOSwxLjI5LTAuMjdjMC40MS0wLjE3LDAuNzctMC40NiwxLjEtMC44NmMwLjMyLTAuNCwwLjU3LTAuOTMsMC43NS0xLjU4YzAuMTktMC42NiwwLjI4LTEuNDUsMC4zLTIuMzkgICAgICAgYy0wLjAyLTAuOTEtMC4xMS0xLjY5LTAuMjktMi4zM2MtMC4xNy0wLjYzLTAuNDItMS4xNi0wLjczLTEuNThjLTAuMzEtMC40MS0wLjY2LTAuNzEtMS4wNi0wLjg5ICAgICAgIGMtMC4zOS0wLjE4LTAuODEtMC4yOC0xLjI1LTAuMjhjLTAuNDUsMC0wLjg4LDAuMDktMS4yOSwwLjI2cy0wLjc3LDAuNDYtMS4wOSwwLjg3Yy0wLjMyLDAuNC0wLjU4LDAuOTMtMC43NiwxLjU4ICAgICAgIGMtMC4xOCwwLjY0LTAuMjgsMS40My0wLjI5LDIuMzdjMC4wMSwwLjkyLDAuMSwxLjY5LDAuMjgsMi4zNGMwLjE4LDAuNjUsMC40MiwxLjE3LDAuNzMsMS41OHMwLjY3LDAuNzEsMS4wNiwwLjkgICAgICAgQzQuNyw3My43NSw1LjExLDczLjg0LDUuNTUsNzMuODR6Ii8+JiN4YTsJCQkJPC9nPiYjeGE7CQkJCTxnIGlkPSJzaGFwZTEwODktMjEiIHRyYW5zZm9ybT0idHJhbnNsYXRlKDM1LjQ1NzEsLTAuMDkwODU0MSkiPiYjeGE7CQkJCQk8dGl0bGUgaWQ9InRpdGxlMTgxNTYzIj5TaGVldC4xMDg5PC90aXRsZT4mI3hhOwkJCQkJPHBhdGggaWQ9InBhdGgxODE1NjUiIGlua3NjYXBlOmNvbm5lY3Rvci1jdXJ2YXR1cmU9IjAiIHN0eWxlPSJmaWxsOiNGRkZGRkY7IiBkPSJNOS43NCw2Mi4xN3YxMy40Nkg3LjUxbC01LjI4LTkuMjh2OS4yOEgwICAgICAgIFY2Mi4xN2gyLjIzbDUuMjgsOS4yN3YtOS4yN0w5Ljc0LDYyLjE3eiIvPiYjeGE7CQkJCTwvZz4mI3hhOwkJCTwvZz4mI3hhOwkJPC9nPiYjeGE7CTwvZz4mI3hhOzwvZz4mI3hhOzwvc3ZnPg==;" parent="1" vertex="1">
          <mxGeometry x="747" y="643.39" width="37" height="36.52" as="geometry" />
        </mxCell>
        <mxCell id="4ndBJUu1C0Kb1_ytCzMU-27" style="edgeStyle=orthogonalEdgeStyle;rounded=0;orthogonalLoop=1;jettySize=auto;html=1;exitX=1;exitY=0.5;exitDx=0;exitDy=0;exitPerimeter=0;entryX=-0.062;entryY=0.484;entryDx=0;entryDy=0;entryPerimeter=0;strokeColor=#808080;" parent="1" source="UqW9Xq1WL7jgjOPIQogc-15" target="UqW9Xq1WL7jgjOPIQogc-12" edge="1">
          <mxGeometry relative="1" as="geometry" />
        </mxCell>
        <mxCell id="4ndBJUu1C0Kb1_ytCzMU-31" value="" style="edgeStyle=orthogonalEdgeStyle;rounded=0;orthogonalLoop=1;jettySize=auto;html=1;exitX=1;exitY=0.5;exitDx=0;exitDy=0;entryX=0.007;entryY=0.438;entryDx=0;entryDy=0;entryPerimeter=0;strokeColor=#808080;" parent="1" source="QFZf7pw_Yvivp7_EfdEL-29" target="4ndBJUu1C0Kb1_ytCzMU-29" edge="1">
          <mxGeometry relative="1" as="geometry">
            <mxPoint x="90" y="391" as="sourcePoint" />
            <mxPoint x="232" y="390" as="targetPoint" />
          </mxGeometry>
        </mxCell>
        <mxCell id="4ndBJUu1C0Kb1_ytCzMU-29" value="&lt;div&gt;&lt;br&gt;&lt;/div&gt;&lt;div&gt;&lt;br&gt;&lt;/div&gt;&lt;div&gt;&lt;br&gt;&lt;/div&gt;&lt;div&gt;&lt;br&gt;&lt;/div&gt;&lt;div&gt;&lt;br&gt;&lt;/div&gt;&lt;div&gt;Time Event&amp;nbsp;&lt;/div&gt;&lt;div&gt;Trigger&lt;/div&gt;" style="shape=collate;html=1;" parent="1" vertex="1">
          <mxGeometry x="150" y="371" width="40" height="39" as="geometry" />
        </mxCell>
        <mxCell id="4ndBJUu1C0Kb1_ytCzMU-37" value="" style="shape=image;html=1;verticalAlign=top;verticalLabelPosition=bottom;labelBackgroundColor=#ffffff;imageAspect=0;aspect=fixed;image=https://cdn0.iconfinder.com/data/icons/phosphor-thin-vol-3/256/number-circle-one-thin-128.png;sketch=1;curveFitting=1;jiggle=2;imageBorder=default;" parent="1" vertex="1">
          <mxGeometry x="50" y="466" width="28" height="28" as="geometry" />
        </mxCell>
        <mxCell id="4ndBJUu1C0Kb1_ytCzMU-38" value="" style="shape=image;html=1;verticalAlign=top;verticalLabelPosition=bottom;labelBackgroundColor=#ffffff;imageAspect=0;aspect=fixed;image=https://cdn0.iconfinder.com/data/icons/phosphor-thin-vol-3/256/number-circle-two-thin-128.png;sketch=1;curveFitting=1;jiggle=2;imageBorder=default;" parent="1" vertex="1">
          <mxGeometry x="442" y="307" width="28" height="28" as="geometry" />
        </mxCell>
        <mxCell id="4ndBJUu1C0Kb1_ytCzMU-39" value="" style="shape=image;html=1;verticalAlign=top;verticalLabelPosition=bottom;labelBackgroundColor=#ffffff;imageAspect=0;aspect=fixed;image=https://cdn0.iconfinder.com/data/icons/phosphor-thin-vol-3/256/number-circle-three-thin-128.png;sketch=1;curveFitting=1;jiggle=2;imageBorder=default;" parent="1" vertex="1">
          <mxGeometry x="900" y="550" width="28" height="28" as="geometry" />
        </mxCell>
        <mxCell id="4ndBJUu1C0Kb1_ytCzMU-40" value="" style="shape=image;html=1;verticalAlign=top;verticalLabelPosition=bottom;labelBackgroundColor=#ffffff;imageAspect=0;aspect=fixed;image=https://cdn0.iconfinder.com/data/icons/phosphor-thin-vol-3/256/number-circle-four-thin-128.png;sketch=1;curveFitting=1;jiggle=2;imageBorder=default;" parent="1" vertex="1">
          <mxGeometry x="505.75" y="880" width="28" height="28" as="geometry" />
        </mxCell>
        <mxCell id="4ndBJUu1C0Kb1_ytCzMU-42" value="" style="shape=image;html=1;verticalAlign=top;verticalLabelPosition=bottom;labelBackgroundColor=#ffffff;imageAspect=0;aspect=fixed;image=https://cdn0.iconfinder.com/data/icons/phosphor-thin-vol-3/256/number-circle-five-thin-128.png;sketch=1;curveFitting=1;jiggle=2;shadow=0;imageBorder=default;" parent="1" vertex="1">
          <mxGeometry x="1403.5" y="880" width="28" height="28" as="geometry" />
        </mxCell>
        <mxCell id="4ndBJUu1C0Kb1_ytCzMU-41" value="" style="shape=image;html=1;verticalAlign=top;verticalLabelPosition=bottom;labelBackgroundColor=#ffffff;imageAspect=0;aspect=fixed;image=https://cdn0.iconfinder.com/data/icons/phosphor-thin-vol-3/256/number-circle-seven-thin-128.png;sketch=1;curveFitting=1;jiggle=2;imageBorder=default;" parent="1" vertex="1">
          <mxGeometry x="724.5" y="1200" width="28" height="28" as="geometry" />
        </mxCell>
        <mxCell id="4ndBJUu1C0Kb1_ytCzMU-44" value="" style="shape=image;verticalLabelPosition=bottom;labelBackgroundColor=#ffffff;verticalAlign=top;aspect=fixed;imageAspect=0;image=data:image/svg+xml,PHN2ZyB4bWxuczpjYz0iaHR0cDovL2NyZWF0aXZlY29tbW9ucy5vcmcvbnMjIiB4bWxuczpkYz0iaHR0cDovL3B1cmwub3JnL2RjL2VsZW1lbnRzLzEuMS8iIHhtbG5zOmlua3NjYXBlPSJodHRwOi8vd3d3Lmlua3NjYXBlLm9yZy9uYW1lc3BhY2VzL2lua3NjYXBlIiB4bWxuczpyZGY9Imh0dHA6Ly93d3cudzMub3JnLzE5OTkvMDIvMjItcmRmLXN5bnRheC1ucyMiIHhtbG5zOnNvZGlwb2RpPSJodHRwOi8vc29kaXBvZGkuc291cmNlZm9yZ2UubmV0L0RURC9zb2RpcG9kaS0wLmR0ZCIgeG1sbnM6c3ZnPSJodHRwOi8vd3d3LnczLm9yZy8yMDAwL3N2ZyIgeG1sbnM9Imh0dHA6Ly93d3cudzMub3JnLzIwMDAvc3ZnIiB4bWxuczp4bGluaz0iaHR0cDovL3d3dy53My5vcmcvMTk5OS94bGluayIgdmVyc2lvbj0iMS4xIiBpZD0ic3ZnMTk4MDc4IiBpbmtzY2FwZTp2ZXJzaW9uPSIwLjkyLjMgKDI0MDU1NDYsIDIwMTgtMDMtMTEpIiBzb2RpcG9kaTpkb2NuYW1lPSJyZXN0LnN2ZyIgeD0iMHB4IiB5PSIwcHgiIHZpZXdCb3g9IjAgMCA1Ny42NSA1Ny42NSIgc3R5bGU9ImVuYWJsZS1iYWNrZ3JvdW5kOm5ldyAwIDAgNTcuNjUgNTcuNjU7IiB4bWw6c3BhY2U9InByZXNlcnZlIj4mI3hhOzxzb2RpcG9kaTpuYW1lZHZpZXcgYm9yZGVyY29sb3I9IiM2NjY2NjYiIGJvcmRlcm9wYWNpdHk9IjEiIGZpdC1tYXJnaW4tYm90dG9tPSIwIiBmaXQtbWFyZ2luLWxlZnQ9IjAiIGZpdC1tYXJnaW4tcmlnaHQ9IjAiIGZpdC1tYXJnaW4tdG9wPSIwIiBncmlkdG9sZXJhbmNlPSIxMCIgZ3VpZGV0b2xlcmFuY2U9IjEwIiBpZD0ibmFtZWR2aWV3MTk4MDgwIiBpbmtzY2FwZTpjdXJyZW50LWxheWVyPSJzdmcxOTgwNzgiIGlua3NjYXBlOmN4PSIzOC40MzAyMyIgaW5rc2NhcGU6Y3k9IjM4LjQzNjQ5NiIgaW5rc2NhcGU6cGFnZW9wYWNpdHk9IjAiIGlua3NjYXBlOnBhZ2VzaGFkb3c9IjIiIGlua3NjYXBlOndpbmRvdy1oZWlnaHQ9IjEwMTciIGlua3NjYXBlOndpbmRvdy1tYXhpbWl6ZWQ9IjEiIGlua3NjYXBlOndpbmRvdy13aWR0aD0iMTkyMCIgaW5rc2NhcGU6d2luZG93LXg9Ii04IiBpbmtzY2FwZTp3aW5kb3cteT0iLTgiIGlua3NjYXBlOnpvb209IjguOTE0MjA2OSIgb2JqZWN0dG9sZXJhbmNlPSIxMCIgcGFnZWNvbG9yPSIjZmZmZmZmIiBzaG93Z3JpZD0iZmFsc2UiPiYjeGE7CTwvc29kaXBvZGk6bmFtZWR2aWV3PiYjeGE7PGcgaWQ9ImcxOTgwNzYiIHRyYW5zZm9ybT0idHJhbnNsYXRlKC03LjY1LC03LjY1MDAwMTEpIj4mI3hhOwk8dGl0bGUgaWQ9InRpdGxlMTk4MDM4Ij5QYWdlLTE8L3RpdGxlPiYjeGE7CTxnIGlkPSJncm91cDEwNjktMSIgdHJhbnNmb3JtPSJ0cmFuc2xhdGUoNy42NSwtNy42NSkiPiYjeGE7CQk8dGl0bGUgaWQ9InRpdGxlMTk4MDQwIj5SRVNUPC90aXRsZT4mI3hhOwkJPGcgaWQ9InNoYXBlMTA3MC0yIj4mI3hhOwkJCTx0aXRsZSBpZD0idGl0bGUxOTgwNDIiPlNoZWV0LjEwNzA8L3RpdGxlPiYjeGE7CQkJPGNpcmNsZSBpZD0iZWxsaXBzZTE5ODA0NCIgc3R5bGU9ImZpbGw6IzEwN0MxMDsiIGN4PSIyOC44MiIgY3k9IjQ0LjEyIiByPSIyOC44MiIvPiYjeGE7CQk8L2c+JiN4YTsJCTxnIGlkPSJzaGFwZTEwNzEtNCI+JiN4YTsJCQk8dGl0bGUgaWQ9InRpdGxlMTk4MDQ3Ij5TaGVldC4xMDcxPC90aXRsZT4mI3hhOwkJCTxwYXRoIGlkPSJwYXRoMTk4MDQ5IiBpbmtzY2FwZTpjb25uZWN0b3ItY3VydmF0dXJlPSIwIiBzdHlsZT0iZmlsbDojMDA0QjFDOyIgZD0iTTguODYsMjMuMzdDMy4zOSwyOC42MywwLDM1Ljk4LDAsNDQuMTIgICAgIGMwLDE1LjkzLDEyLjksMjguODMsMjguODIsMjguODNjOC4xNSwwLDE1LjQ5LTMuMzksMjAuNzUtOC44N0w4Ljg2LDIzLjM3eiIvPiYjeGE7CQk8L2c+JiN4YTsJCTxnIGlkPSJncm91cDEwNzItNiIgdHJhbnNmb3JtPSJ0cmFuc2xhdGUoNi42NzI0NCwtMjAuOTk4NykiPiYjeGE7CQkJPHRpdGxlIGlkPSJ0aXRsZTE5ODA1MiI+U2hlZXQuMTA3MjwvdGl0bGU+JiN4YTsJCQk8ZyBpZD0ic2hhcGUxMDczLTciIHRyYW5zZm9ybT0idHJhbnNsYXRlKDAsLTAuMjU1ODAxKSI+JiN4YTsJCQkJPHRpdGxlIGlkPSJ0aXRsZTE5ODA1NCI+U2hlZXQuMTA3MzwvdGl0bGU+JiN4YTsJCQkJPHBhdGggaWQ9InBhdGgxOTgwNTYiIGlua3NjYXBlOmNvbm5lY3Rvci1jdXJ2YXR1cmU9IjAiIHN0eWxlPSJmaWxsOiNGRkZGRkY7IiBkPSJNMTAuODUsNzIuOTVIOC43NEw2LjIxLDY4LjcgICAgICBjLTAuMjQtMC4zOS0wLjQ2LTAuNzMtMC42OC0xLjAxYy0wLjIyLTAuMjctMC40NC0wLjUtMC42Ny0wLjY4Yy0wLjIzLTAuMTctMC40Ny0wLjMtMC43NC0wLjM4Yy0wLjI2LTAuMDgtMC41Ni0wLjEyLTAuODktMC4xMiAgICAgIEgxLjc3djYuNDRIMFY1Ny44MWg0LjUyYzAuNjYsMCwxLjI3LDAuMDgsMS44MywwLjI1YzAuNTYsMC4xNiwxLjA0LDAuNDEsMS40NiwwLjc1YzAuNDEsMC4zNCwwLjczLDAuNzYsMC45NiwxLjI2ICAgICAgYzAuMjMsMC41MSwwLjM1LDEuMDksMC4zNSwxLjc3YzAsMC41My0wLjA4LDEuMDEtMC4yNCwxLjQ1Yy0wLjE2LDAuNDQtMC4zOCwwLjgzLTAuNjcsMS4xOGMtMC4zLDAuMzQtMC42NSwwLjY0LTEuMDYsMC44OCAgICAgIHMtMC44NywwLjQzLTEuMzksMC41NnYwLjA1YzAuMjYsMC4xMSwwLjQ4LDAuMjQsMC42NiwwLjM4YzAuMTksMC4xNSwwLjM3LDAuMzIsMC41NCwwLjUxYzAuMTYsMC4yLDAuMzMsMC40MiwwLjUsMC42NyAgICAgIGMwLjE2LDAuMjUsMC4zNSwwLjU0LDAuNTUsMC44OEwxMC44NSw3Mi45NXogTTEuNzcsNTkuNDF2NS40OWgyLjQxYzAuNDQsMCwwLjg1LTAuMDcsMS4yMy0wLjJzMC43LTAuMzIsMC45OC0wLjU3ICAgICAgYzAuMjctMC4yNSwwLjQ5LTAuNTYsMC42NC0wLjkyYzAuMTYtMC4zNiwwLjIzLTAuNzcsMC4yMy0xLjIyYzAtMC44MS0wLjI2LTEuNDQtMC43OC0xLjljLTAuNTMtMC40NS0xLjI5LTAuNjgtMi4yOC0wLjY4SDEuNzd6ICAgICAgIi8+JiN4YTsJCQk8L2c+JiN4YTsJCQk8ZyBpZD0ic2hhcGUxMDc0LTkiIHRyYW5zZm9ybT0idHJhbnNsYXRlKDEyLjkzMDYsLTAuMjU1ODAxKSI+JiN4YTsJCQkJPHRpdGxlIGlkPSJ0aXRsZTE5ODA1OSI+U2hlZXQuMTA3NDwvdGl0bGU+JiN4YTsJCQkJPHBhdGggaWQ9InBhdGgxOTgwNjEiIGlua3NjYXBlOmNvbm5lY3Rvci1jdXJ2YXR1cmU9IjAiIHN0eWxlPSJmaWxsOiNGRkZGRkY7IiBkPSJNOC4wMiw3Mi45NUgwVjU3LjgxaDcuNjh2MS42SDEuNzd2NS4wNGg1LjQ3ICAgICAgdjEuNTlIMS43N3Y1LjNoNi4yNVY3Mi45NXoiLz4mI3hhOwkJCTwvZz4mI3hhOwkJCTxnIGlkPSJzaGFwZTEwNzUtMTEiIHRyYW5zZm9ybT0idHJhbnNsYXRlKDIzLjE1ODMpIj4mI3hhOwkJCQk8dGl0bGUgaWQ9InRpdGxlMTk4MDY0Ij5TaGVldC4xMDc1PC90aXRsZT4mI3hhOwkJCQk8cGF0aCBpZD0icGF0aDE5ODA2NiIgaW5rc2NhcGU6Y29ubmVjdG9yLWN1cnZhdHVyZT0iMCIgc3R5bGU9ImZpbGw6I0ZGRkZGRjsiIGQ9Ik0wLDcyLjA4di0yLjA5YzAuMjQsMC4yMSwwLjUzLDAuNCwwLjg2LDAuNTcgICAgICBzMC42OSwwLjMxLDEuMDYsMC40M2MwLjM3LDAuMTEsMC43NCwwLjIsMS4xMSwwLjI2YzAuMzcsMC4wNywwLjcyLDAuMSwxLjAzLDAuMWMxLjA5LDAsMS45MS0wLjIsMi40NS0wLjYxICAgICAgYzAuNTQtMC40LDAuODEtMC45OCwwLjgxLTEuNzRjMC0wLjQxLTAuMDktMC43Ny0wLjI3LTEuMDdjLTAuMTgtMC4zLTAuNDMtMC41OC0wLjc1LTAuODNjLTAuMzItMC4yNS0wLjY5LTAuNDktMS4xMi0wLjcyICAgICAgYy0wLjQ0LTAuMjItMC45LTAuNDctMS40LTAuNzJjLTAuNTMtMC4yNy0xLjAyLTAuNTQtMS40OC0wLjgxYy0wLjQ2LTAuMjgtMC44NS0wLjU4LTEuMTktMC45MXMtMC42LTAuNzEtMC44LTEuMTIgICAgICBjLTAuMTktMC40Mi0wLjI5LTAuOTEtMC4yOS0xLjQ4YzAtMC42OSwwLjE1LTEuMjksMC40NS0xLjhjMC4zMS0wLjUxLDAuNzEtMC45MywxLjItMS4yNmMwLjQ5LTAuMzMsMS4wNS0wLjU3LDEuNjgtMC43NCAgICAgIGMwLjYzLTAuMTYsMS4yNy0wLjI0LDEuOTMtMC4yNGMxLjQ5LDAsMi41OCwwLjE4LDMuMjYsMC41NHYyYy0wLjktMC42Mi0yLjA0LTAuOTMtMy40NC0wLjkzYy0wLjM5LDAtMC43OCwwLjA0LTEuMTYsMC4xMiAgICAgIGMtMC4zOSwwLjA4LTAuNzQsMC4yMS0xLjA0LDAuMzljLTAuMywwLjE5LTAuNTUsMC40Mi0wLjc0LDAuNzFzLTAuMjgsMC42NC0wLjI4LDEuMDZjMCwwLjM4LDAuMDcsMC43MiwwLjIxLDEgICAgICBjMC4xNSwwLjI4LDAuMzYsMC41NCwwLjY0LDAuNzdzMC42MywwLjQ2LDEuMDMsMC42N2MwLjQxLDAuMjIsMC44NywwLjQ2LDEuNCwwLjcyQzUuNyw2NC42Miw2LjIyLDY0LjksNi43LDY1LjIgICAgICBjMC40OSwwLjI5LDAuOTEsMC42MiwxLjI4LDAuOThjMC4zNiwwLjM2LDAuNjUsMC43NiwwLjg3LDEuMTljMC4yMSwwLjQ0LDAuMzIsMC45NCwwLjMyLDEuNWMwLDAuNzUtMC4xNSwxLjM4LTAuNDQsMS44OSAgICAgIGMtMC4yOSwwLjUyLTAuNjgsMC45NC0xLjE4LDEuMjdjLTAuNSwwLjMyLTEuMDcsMC41NS0xLjcxLDAuN2MtMC42NSwwLjE0LTEuMzQsMC4yMi0yLjA1LDAuMjJjLTAuMjQsMC0wLjU0LTAuMDItMC44OS0wLjA2ICAgICAgcy0wLjcxLTAuMS0xLjA4LTAuMTdjLTAuMzYtMC4wOC0wLjcxLTAuMTctMS4wNC0wLjI4QzAuNDYsNzIuMzMsMC4yLDcyLjIxLDAsNzIuMDh6Ii8+JiN4YTsJCQk8L2c+JiN4YTsJCQk8ZyBpZD0ic2hhcGUxMDc2LTEzIiB0cmFuc2Zvcm09InRyYW5zbGF0ZSgzMy43OTgxLC0wLjI1NTgwMSkiPiYjeGE7CQkJCTx0aXRsZSBpZD0idGl0bGUxOTgwNjkiPlNoZWV0LjEwNzY8L3RpdGxlPiYjeGE7CQkJCTxwYXRoIGlkPSJwYXRoMTk4MDcxIiBpbmtzY2FwZTpjb25uZWN0b3ItY3VydmF0dXJlPSIwIiBzdHlsZT0iZmlsbDojRkZGRkZGOyIgZD0iTTEwLjUsNTkuNDFINi4xM3YxMy41NEg0LjM2VjU5LjQxSDB2LTEuNiAgICAgIGgxMC41VjU5LjQxeiIvPiYjeGE7CQkJPC9nPiYjeGE7CQk8L2c+JiN4YTsJPC9nPiYjeGE7PC9nPiYjeGE7PC9zdmc+;" parent="1" vertex="1">
          <mxGeometry x="346" y="930" width="26" height="26" as="geometry" />
        </mxCell>
        <mxCell id="gfm_nSeY3BKA6nFXt_tZ-9" value="Unified &#xa;Template" style="shape=image;verticalLabelPosition=bottom;labelBackgroundColor=#ffffff;verticalAlign=top;aspect=fixed;imageAspect=0;image=data:image/svg+xml,PHN2ZyB4bWxuczpjYz0iaHR0cDovL2NyZWF0aXZlY29tbW9ucy5vcmcvbnMjIiB4bWxuczpkYz0iaHR0cDovL3B1cmwub3JnL2RjL2VsZW1lbnRzLzEuMS8iIHhtbG5zOmlua3NjYXBlPSJodHRwOi8vd3d3Lmlua3NjYXBlLm9yZy9uYW1lc3BhY2VzL2lua3NjYXBlIiB4bWxuczpyZGY9Imh0dHA6Ly93d3cudzMub3JnLzE5OTkvMDIvMjItcmRmLXN5bnRheC1ucyMiIHhtbG5zOnNvZGlwb2RpPSJodHRwOi8vc29kaXBvZGkuc291cmNlZm9yZ2UubmV0L0RURC9zb2RpcG9kaS0wLmR0ZCIgeG1sbnM6c3ZnPSJodHRwOi8vd3d3LnczLm9yZy8yMDAwL3N2ZyIgeG1sbnM9Imh0dHA6Ly93d3cudzMub3JnLzIwMDAvc3ZnIiB4bWxuczp4bGluaz0iaHR0cDovL3d3dy53My5vcmcvMTk5OS94bGluayIgdmVyc2lvbj0iMS4xIiBpZD0ic3ZnNDQ4MjAiIGlua3NjYXBlOnZlcnNpb249IjAuOTIuMyAoMjQwNTU0NiwgMjAxOC0wMy0xMSkiIHNvZGlwb2RpOmRvY25hbWU9ImZpbGUuc3ZnIiB4PSIwcHgiIHk9IjBweCIgdmlld0JveD0iMCAwIDI0Ljg1IDMyLjk4IiBzdHlsZT0iZW5hYmxlLWJhY2tncm91bmQ6bmV3IDAgMCAyNC44NSAzMi45ODsiIHhtbDpzcGFjZT0icHJlc2VydmUiPiYjeGE7PHNvZGlwb2RpOm5hbWVkdmlldyBib3JkZXJjb2xvcj0iIzY2NjY2NiIgYm9yZGVyb3BhY2l0eT0iMSIgZml0LW1hcmdpbi1ib3R0b209IjAiIGZpdC1tYXJnaW4tbGVmdD0iMCIgZml0LW1hcmdpbi1yaWdodD0iMCIgZml0LW1hcmdpbi10b3A9IjAiIGdyaWR0b2xlcmFuY2U9IjEwIiBndWlkZXRvbGVyYW5jZT0iMTAiIGlkPSJuYW1lZHZpZXc0NDgyMiIgaW5rc2NhcGU6Y3VycmVudC1sYXllcj0ic3ZnNDQ4MjAiIGlua3NjYXBlOmN4PSIxNi41NzAyNTYiIGlua3NjYXBlOmN5PSIyMS45ODc3MTgiIGlua3NjYXBlOnBhZ2VvcGFjaXR5PSIwIiBpbmtzY2FwZTpwYWdlc2hhZG93PSIyIiBpbmtzY2FwZTp3aW5kb3ctaGVpZ2h0PSIxMDE3IiBpbmtzY2FwZTp3aW5kb3ctbWF4aW1pemVkPSIxIiBpbmtzY2FwZTp3aW5kb3ctd2lkdGg9IjE5MjAiIGlua3NjYXBlOndpbmRvdy14PSItOCIgaW5rc2NhcGU6d2luZG93LXk9Ii04IiBpbmtzY2FwZTp6b29tPSIxOC44NTk2MjEiIG9iamVjdHRvbGVyYW5jZT0iMTAiIHBhZ2Vjb2xvcj0iI2ZmZmZmZiIgc2hvd2dyaWQ9ImZhbHNlIj4mI3hhOwk8L3NvZGlwb2RpOm5hbWVkdmlldz4mI3hhOzxnIGlkPSJnNDQ4MTgiIHRyYW5zZm9ybT0idHJhbnNsYXRlKC0wLjc1LC0wLjc0NjY0MDQ3KSI+JiN4YTsJPHRpdGxlIGlkPSJ0aXRsZTQ0NzY2Ij5QYWdlLTE8L3RpdGxlPiYjeGE7CTxnIGlkPSJncm91cDM5MjQtMSIgdHJhbnNmb3JtPSJ0cmFuc2xhdGUoMS41LC0xLjUpIj4mI3hhOwkJPHRpdGxlIGlkPSJ0aXRsZTQ0NzY4Ij5GaWxlPC90aXRsZT4mI3hhOwkJPGcgaWQ9InNoYXBlMzkyNS0yIj4mI3hhOwkJCTx0aXRsZSBpZD0idGl0bGU0NDc3MCI+cG9seWdvbjE1OTEyPC90aXRsZT4mI3hhOwkJCTxwYXRoIGlkPSJwYXRoNDQ3NzIiIGlua3NjYXBlOmNvbm5lY3Rvci1jdXJ2YXR1cmU9IjAiIHN0eWxlPSJmaWxsOiNGRkZGRkY7IiBkPSJNMjMuODYsMzQuNDhIMFYyLjQ5aDEzLjM1TDIzLjg2LDEyLjVWMzQuNDh6Ii8+JiN4YTsJCTwvZz4mI3hhOwkJPGcgaWQ9InNoYXBlMzkyNi00IiB0cmFuc2Zvcm09InRyYW5zbGF0ZSgxMy4yLC0yMS44MzA4KSI+JiN4YTsJCQk8dGl0bGUgaWQ9InRpdGxlNDQ3NzUiPnBvbHlnb24xNTkxNDwvdGl0bGU+JiN4YTsJCQk8cGF0aCBpZD0icGF0aDQ0Nzc3IiBpbmtzY2FwZTpjb25uZWN0b3ItY3VydmF0dXJlPSIwIiBzdHlsZT0iZmlsbDojNTVEMkY2OyIgZD0iTTEwLjY2LDM0LjQ4SDBWMjQuMzJMMTAuNjYsMzQuNDh6Ii8+JiN4YTsJCTwvZz4mI3hhOwkJPGcgaWQ9InNoYXBlMzkyNy02Ij4mI3hhOwkJCTx0aXRsZSBpZD0idGl0bGU0NDc4MCI+cGF0aDE1OTE2PC90aXRsZT4mI3hhOwkJCSYjeGE7CQkJCTxwYXRoIGlkPSJwYXRoNDQ3ODIiIGlua3NjYXBlOmNvbm5lY3Rvci1jdXJ2YXR1cmU9IjAiIHN0eWxlPSJmaWxsOm5vbmU7c3Ryb2tlOiM1NTZBOEE7c3Ryb2tlLXdpZHRoOjEuNTtzdHJva2UtbWl0ZXJsaW1pdDozOyIgZD0iICAgICBNMTMuMzksM0gwLjc0QzAuNDcsMywwLDIuOTcsMCwzLjI0djMwLjQ5YzAuMDksMC4zNywwLjM3LDAuNjYsMC43NCwwLjc1aDIyLjM4YzAuMjcsMCwwLjIzLTAuNDcsMC4yMy0wLjc1VjEyLjU4TDEzLjM5LDN6Ii8+JiN4YTsJCTwvZz4mI3hhOwkJPGcgaWQ9InNoYXBlMzkyOC04IiB0cmFuc2Zvcm09InRyYW5zbGF0ZSgwLjUwNzY5MiwtMC41MDc2OTIpIj4mI3hhOwkJCTx0aXRsZSBpZD0idGl0bGU0NDc4NSI+cmVjdDE1OTE4PC90aXRsZT4mI3hhOwkJCTxyZWN0IGlkPSJyZWN0NDQ3ODciIHg9IjAiIHk9IjQuMDIiIHN0eWxlPSJmaWxsOiNFNUU1RTU7IiB3aWR0aD0iOC4xMiIgaGVpZ2h0PSIzMC40NiIvPiYjeGE7CQk8L2c+JiN4YTsJCTxnIGlkPSJzaGFwZTM5MjktMTAiIHRyYW5zZm9ybT0idHJhbnNsYXRlKDEyLjY5MjMsLTIxLjMyMzEpIj4mI3hhOwkJCTx0aXRsZSBpZD0idGl0bGU0NDc5MCI+cG9seWxpbmUxNTkyMDwvdGl0bGU+JiN4YTsJCQk8cGF0aCBpZD0icGF0aDQ0NzkyIiBpbmtzY2FwZTpjb25uZWN0b3ItY3VydmF0dXJlPSIwIiBzdHlsZT0iZmlsbDpub25lOyIgZD0iTTAsMjQuMzJ2MTAuMTZoMTAuNjZMMCwyNC4zMnoiLz4mI3hhOwkJCSYjeGE7CQkJCTxwYXRoIGlkPSJwYXRoNDQ3OTQiIGlua3NjYXBlOmNvbm5lY3Rvci1jdXJ2YXR1cmU9IjAiIHN0eWxlPSJmaWxsOm5vbmU7c3Ryb2tlOiM1NTZBOEE7c3Ryb2tlLXdpZHRoOjEuNTtzdHJva2UtbWl0ZXJsaW1pdDozOyIgZD0iICAgICBNMCwyNC4zMnYxMC4xNmgxMC42NiIvPiYjeGE7CQk8L2c+JiN4YTsJCTxnIGlkPSJzaGFwZTM5MzAtMTMiIHRyYW5zZm9ybT0idHJhbnNsYXRlKDMuNTUzODUsLTIwLjgxNTQpIj4mI3hhOwkJCTx0aXRsZSBpZD0idGl0bGU0NDc5NyI+bGluZTE1OTIyPC90aXRsZT4mI3hhOwkJCSYjeGE7CQkJCTxwYXRoIGlkPSJwYXRoNDQ3OTkiIGlua3NjYXBlOmNvbm5lY3Rvci1jdXJ2YXR1cmU9IjAiIHN0eWxlPSJmaWxsOm5vbmU7c3Ryb2tlOiNBN0E5QUM7c3Ryb2tlLXdpZHRoOjEuNTtzdHJva2UtbWl0ZXJsaW1pdDozOyIgZD0iICAgICBNMCwzNC40OGg2LjYiLz4mI3hhOwkJPC9nPiYjeGE7CQk8ZyBpZD0ic2hhcGUzOTMxLTE2IiB0cmFuc2Zvcm09InRyYW5zbGF0ZSgzLjU1Mzg1LC0xNi4yNDYyKSI+JiN4YTsJCQk8dGl0bGUgaWQ9InRpdGxlNDQ4MDIiPmxpbmUxNTkyNDwvdGl0bGU+JiN4YTsJCQkmI3hhOwkJCQk8cGF0aCBpZD0icGF0aDQ0ODA0IiBpbmtzY2FwZTpjb25uZWN0b3ItY3VydmF0dXJlPSIwIiBzdHlsZT0iZmlsbDpub25lO3N0cm9rZTojQTdBOUFDO3N0cm9rZS13aWR0aDoxLjU7c3Ryb2tlLW1pdGVybGltaXQ6MzsiIGQ9IiAgICAgTTAsMzQuNDhoMTYuMjUiLz4mI3hhOwkJPC9nPiYjeGE7CQk8ZyBpZD0ic2hhcGUzOTMyLTE5IiB0cmFuc2Zvcm09InRyYW5zbGF0ZSgzLjU1Mzg1LC0xMS42NzY5KSI+JiN4YTsJCQk8dGl0bGUgaWQ9InRpdGxlNDQ4MDciPmxpbmUxNTkyNjwvdGl0bGU+JiN4YTsJCQkmI3hhOwkJCQk8cGF0aCBpZD0icGF0aDQ0ODA5IiBpbmtzY2FwZTpjb25uZWN0b3ItY3VydmF0dXJlPSIwIiBzdHlsZT0iZmlsbDpub25lO3N0cm9rZTojQTdBOUFDO3N0cm9rZS13aWR0aDoxLjU7c3Ryb2tlLW1pdGVybGltaXQ6MzsiIGQ9IiAgICAgTTAsMzQuNDhoMTYuMjUiLz4mI3hhOwkJPC9nPiYjeGE7CQk8ZyBpZD0ic2hhcGUzOTMzLTIyIiB0cmFuc2Zvcm09InRyYW5zbGF0ZSgzLjU1Mzg1LC03LjEwNzY5KSI+JiN4YTsJCQk8dGl0bGUgaWQ9InRpdGxlNDQ4MTIiPmxpbmUxNTkyODwvdGl0bGU+JiN4YTsJCQkmI3hhOwkJCQk8cGF0aCBpZD0icGF0aDQ0ODE0IiBpbmtzY2FwZTpjb25uZWN0b3ItY3VydmF0dXJlPSIwIiBzdHlsZT0iZmlsbDpub25lO3N0cm9rZTojQTdBOUFDO3N0cm9rZS13aWR0aDoxLjU7c3Ryb2tlLW1pdGVybGltaXQ6MzsiIGQ9IiAgICAgTTAsMzQuNDhoMTYuMjUiLz4mI3hhOwkJPC9nPiYjeGE7CTwvZz4mI3hhOzwvZz4mI3hhOzwvc3ZnPg==;" vertex="1" parent="1">
          <mxGeometry x="491.82" y="408.0000000000001" width="25" height="33" as="geometry" />
        </mxCell>
        <mxCell id="gfm_nSeY3BKA6nFXt_tZ-12" value="" style="shape=image;html=1;verticalAlign=top;verticalLabelPosition=bottom;labelBackgroundColor=#ffffff;imageAspect=0;aspect=fixed;image=https://cdn0.iconfinder.com/data/icons/phosphor-thin-vol-3/256/number-circle-six-thin-128.png;sketch=1;curveFitting=1;jiggle=2;imageBorder=default;" vertex="1" parent="1">
          <mxGeometry x="1420" y="279" width="28" height="28" as="geometry" />
        </mxCell>
        <mxCell id="gfm_nSeY3BKA6nFXt_tZ-14" value="&lt;div&gt;1. **Read-Transformer Application:**&lt;/div&gt;&lt;div&gt;&amp;nbsp; &amp;nbsp;- Extract metadata from the source input.&lt;/div&gt;&lt;div&gt;&amp;nbsp; &amp;nbsp;- Map the metadata to a common data structure (Java Object).&lt;/div&gt;&lt;div&gt;&amp;nbsp; &amp;nbsp;- Convert the mapped data structure into the appropriate format (JSON).&lt;/div&gt;&lt;div&gt;&amp;nbsp; &amp;nbsp;- The application should normalize and map different metadata types into a unified template for ingestion by Collibra.&lt;/div&gt;&lt;div&gt;&lt;br&gt;&lt;/div&gt;&lt;div&gt;2. **Pre-validation Queue:**&lt;/div&gt;&lt;div&gt;&amp;nbsp; &amp;nbsp;- Stores the JSON message in a unified template, ensuring it is source-agnostic.&lt;/div&gt;&lt;div&gt;&lt;br&gt;&lt;/div&gt;&lt;div&gt;3. **Validator Application:**&lt;/div&gt;&lt;div&gt;&amp;nbsp; &amp;nbsp;- Retrieves validation rules from the rule file (Blob Storage) based on the source.(assumption: each process will have separate rule config)&lt;/div&gt;&lt;div&gt;&amp;nbsp; &amp;nbsp;- JSON Definition &amp;amp; syntax checks performed&lt;/div&gt;&lt;div&gt;&amp;nbsp; &amp;nbsp;- Applies the rules to the incoming messages from the queue and either sends invalid messages to the Invalid Data Queue or moves them to the Post-validation Queue if they pass all checks.&lt;/div&gt;&lt;div&gt;&lt;br&gt;&lt;/div&gt;&lt;div&gt;4. **Invalid Data Queue:**&lt;/div&gt;&lt;div&gt;&amp;nbsp; &amp;nbsp;- Holds messages that fail the validation rules.&lt;/div&gt;&lt;div&gt;&lt;br&gt;&lt;/div&gt;&lt;div&gt;5. **Blob Exporter:**&lt;/div&gt;&lt;div&gt;&amp;nbsp; &amp;nbsp;- Reads messages from connected queues and stores them as files in Blob container Storage for long-term retention. These files can be used for analysis or root-cause investigation.&lt;/div&gt;&lt;div&gt;&amp;nbsp; &amp;nbsp;- Triggers a Logic App or Email Sender to notify configured recipients.&lt;/div&gt;&lt;div&gt;&lt;br&gt;&lt;/div&gt;&lt;div&gt;6. **Logic App or Email Sender:**&lt;/div&gt;&lt;div&gt;&amp;nbsp; &amp;nbsp;- If using Azure Logic App, it is triggered by the Blob Exporter, eliminating the need for custom code. The managed service sends email notifications.&lt;/div&gt;&lt;div&gt;&amp;nbsp; &amp;nbsp;- If utilizing SMTP servers, a custom app will be developed to send the email notifications.&lt;/div&gt;&lt;div&gt;&lt;br&gt;&lt;/div&gt;&lt;div&gt;7. **Post-validation Queue:**&lt;/div&gt;&lt;div&gt;&amp;nbsp; &amp;nbsp;- Holds messages that have passed validation.&lt;/div&gt;&lt;div&gt;&lt;br&gt;&lt;/div&gt;&lt;div&gt;8. **Sync Application:** Load the data via Sync Processor&lt;/div&gt;&lt;div&gt;&amp;nbsp; &amp;nbsp;- Reads messages from the Post-validation Queue.&lt;/div&gt;&lt;div&gt;&amp;nbsp; &amp;nbsp;- Inserts the normalized JSON data as data assets into the Collibra platform(CDIP) using the Collibra ingestion library.&lt;/div&gt;&lt;div&gt;&amp;nbsp; &amp;nbsp;- Optionally, a simulation can be run before the actual insertion.&lt;/div&gt;&lt;div&gt;&lt;br&gt;&lt;/div&gt;&lt;div&gt;9. **Simulation Errors or Sync Queue:**&lt;/div&gt;&lt;div&gt;&amp;nbsp; &amp;nbsp;- Stores any errors encountered during the simulation process in the Sync Application, which can later be retrieved by the Blob Exporter for email notification.&lt;/div&gt;&lt;div&gt;&amp;nbsp; &amp;nbsp;- Also holds details of successful insertions, which can be used for user notifications.&lt;/div&gt;&lt;div&gt;&lt;br&gt;&lt;/div&gt;&lt;div&gt;10. **Retry Processor:**&lt;/div&gt;&lt;div&gt;&lt;span style=&quot;white-space-collapse: collapse;&quot;&gt;&lt;span style=&quot;white-space-collapse: preserve;&quot;&gt;&#x9;&lt;/span&gt;- Reads from Blob Storage (Blob Container) to check for new remediation records.&lt;/span&gt;&lt;/div&gt;&lt;div&gt;&lt;span style=&quot;white-space-collapse: collapse;&quot;&gt;&lt;span style=&quot;white-space-collapse: preserve;&quot;&gt;&#x9;&lt;/span&gt;- Pushes the unified retry records to the &quot;Pre-validation Queue&quot; for the &quot;Validation Processor.&quot;&lt;/span&gt;&lt;/div&gt;&lt;div&gt;&lt;span style=&quot;white-space-collapse: collapse;&quot;&gt;&lt;span style=&quot;white-space-collapse: preserve;&quot;&gt;&#x9;&lt;/span&gt;- This process attempts remediation for 3 intervals, applying only to remediated records in the specific Blob Container.&lt;/span&gt;&lt;/div&gt;" style="text;html=1;align=left;verticalAlign=middle;resizable=0;points=[];autosize=1;strokeColor=none;fillColor=none;labelBorderColor=default;" vertex="1" parent="1">
          <mxGeometry x="1560" y="385.07" width="1040" height="600" as="geometry" />
        </mxCell>
      </root>
    </mxGraphModel>
  </diagram>
</mxfile>
